<?xml version="1.0" encoding="UTF-8" standalone="no"?>
<svg
   xmlns:dc="http://purl.org/dc/elements/1.1/"
   xmlns:cc="http://creativecommons.org/ns#"
   xmlns:rdf="http://www.w3.org/1999/02/22-rdf-syntax-ns#"
   xmlns:svg="http://www.w3.org/2000/svg"
   xmlns="http://www.w3.org/2000/svg"
   xmlns:sodipodi="http://sodipodi.sourceforge.net/DTD/sodipodi-0.dtd"
   xmlns:inkscape="http://www.inkscape.org/namespaces/inkscape"
   sodipodi:docname="WormFinal.svg"
   inkscape:version="1.0 (4035a4fb49, 2020-05-01)"
   id="svg935"
   version="1.1"
   viewBox="0 0 3000 2796.8782"
   height="2796.8782mm"
   width="3000mm">
  <defs
     id="defs929">
    <clipPath
       id="clipPath940"
       clipPathUnits="userSpaceOnUse">
      <path
         style="color:#000000;font-style:normal;font-variant:normal;font-weight:normal;font-stretch:normal;font-size:medium;line-height:normal;font-family:sans-serif;font-variant-ligatures:normal;font-variant-position:normal;font-variant-caps:normal;font-variant-numeric:normal;font-variant-alternates:normal;font-variant-east-asian:normal;font-feature-settings:normal;font-variation-settings:normal;text-indent:0;text-align:start;text-decoration:none;text-decoration-line:none;text-decoration-style:solid;text-decoration-color:#000000;letter-spacing:normal;word-spacing:normal;text-transform:none;writing-mode:lr-tb;direction:ltr;text-orientation:mixed;dominant-baseline:auto;baseline-shift:baseline;text-anchor:start;white-space:normal;shape-padding:0;shape-margin:0;inline-size:0;clip-rule:nonzero;display:inline;overflow:visible;visibility:visible;opacity:1;isolation:auto;mix-blend-mode:normal;color-interpolation:sRGB;color-interpolation-filters:linearRGB;solid-color:#000000;solid-opacity:1;vector-effect:none;fill:#ffc9c9;fill-opacity:1;fill-rule:nonzero;stroke:none;stroke-width:32;stroke-linecap:round;stroke-linejoin:round;stroke-miterlimit:4;stroke-dasharray:none;stroke-dashoffset:0;stroke-opacity:1;color-rendering:auto;image-rendering:auto;shape-rendering:auto;text-rendering:auto;enable-background:accumulate;stop-color:#000000;stop-opacity:1"
         d="m 61.405696,52.624037 c -2.786806,0.01122 -7.169261,0.202031 -9.582708,1.595478 -7.652319,4.418197 -9.684166,19.792323 -3.112151,25.698849 24.103272,21.662556 15.478926,32.356556 10.357522,31.319916 -0.448186,-0.0907 -2.016477,2.26638 -8.248047,4.6582 -6.23157,2.39183 -15.104565,2.37323 -24.343749,13.05469 -4.619593,5.34073 -6.701059,15.18058 -4.712891,22.28321 1.988168,7.10262 5.852219,12.46017 11.160157,18.55273 16.482809,18.91932 37.343353,27.91291 56.685545,24.85742 19.342196,-3.05549 34.927256,-18.57003 39.882816,-38.66601 1.95618,-7.93281 8.80613,-19.68983 15.00976,-25.53125 2.47671,-2.3321 4.41674,-3.35181 5.41407,-3.79883 9.86602,-5.90202 31.51282,-15.22365 21.62695,-23.54492 -10.81653,-9.104637 -18.68926,-10.070003 -27.55469,-8.150396 -8.86543,1.919608 -15.58499,6.699336 -21.42383,12.197266 -11.67766,10.99585 -20.33497,25.73318 -24.140622,41.16602 -2.404208,9.74964 -7.43694,13.71448 -13.806641,14.7207 -6.369701,1.00622 -16.314928,-1.35709 -27.564453,-14.26953 -0.189841,-0.21791 -0.2051,-0.30046 -0.38086,-0.50977 1.830557,-0.84915 3.255301,-1.58053 5.615236,-2.48633 8.32344,-3.19473 15.958307,-11.78945 26.453124,-22.55468 14.838296,-15.22062 2.547861,-42.992839 -11.767452,-61.494652 -3.511918,-4.538972 -9.82816,-9.121201 -15.567086,-9.098111 z"
         id="path942"
         sodipodi:nodetypes="ssssssssssscsssssscssss" />
    </clipPath>
  </defs>
  <sodipodi:namedview
     inkscape:window-maximized="1"
     inkscape:window-y="-7"
     inkscape:window-x="-8"
     inkscape:window-height="1017"
     inkscape:window-width="1920"
     fit-margin-bottom="0"
     fit-margin-right="0"
     fit-margin-left="0"
     fit-margin-top="0"
     showgrid="false"
     inkscape:document-rotation="0"
     inkscape:current-layer="layer1"
     inkscape:document-units="mm"
     inkscape:cy="2360.254"
     inkscape:cx="6491.9044"
     inkscape:zoom="0.042593391"
     inkscape:pageshadow="2"
     inkscape:pageopacity="0.0"
     borderopacity="1.0"
     bordercolor="#666666"
     pagecolor="#ffffff"
     id="base" />
  <metadata
     id="metadata932">
    <rdf:RDF>
      <cc:Work
         rdf:about="">
        <dc:format>image/svg+xml</dc:format>
        <dc:type
           rdf:resource="http://purl.org/dc/dcmitype/StillImage" />
        <dc:title></dc:title>
      </cc:Work>
    </rdf:RDF>
  </metadata>
  <g
     transform="translate(-12.009386,-31.995319)"
     id="layer1"
     inkscape:groupmode="layer"
     inkscape:label="Lager 1">
    <path
       sodipodi:nodetypes="ssssssssssscsssssscssss"
       id="path918"
       d="M 810.8804,46.550532 C 756.7927,46.768101 671.73603,50.471645 624.89464,77.516308 476.37476,163.26678 436.93984,461.65513 564.49254,576.29179 1032.3002,996.729 864.91497,1204.2832 765.51621,1184.1636 c -8.69851,-1.7603 -39.13659,43.987 -160.08186,90.4086 -120.9453,46.4218 -293.1567,46.0608 -472.4751,253.3717 -89.659416,103.6554 -130.0573819,294.6319 -91.470033,432.4832 38.587155,137.8508 113.582673,241.8327 216.601523,360.0802 319.90619,367.1949 724.77771,541.7468 1100.18016,482.4444 375.4025,-59.3024 677.8847,-360.416 774.0646,-750.4483 37.9665,-153.9636 170.9135,-382.1494 291.3165,-495.5225 48.0692,-45.2625 85.7222,-65.0535 105.0789,-73.7297 191.4844,-114.549 611.6158,-295.4677 419.7461,-456.9709 -209.9323,-176.7071 -362.73,-195.44334 -534.7945,-158.18667 -172.0645,37.25664 -302.4809,130.02386 -415.8039,236.73027 -226.6456,213.4127 -394.6708,499.4419 -468.5326,798.9698 -46.6621,189.2255 -144.3398,266.177 -267.9659,285.7064 -123.6262,19.529 -316.64797,-26.3391 -534.984,-276.9501 -3.68453,-4.2291 -3.98068,-5.8312 -7.39191,-9.8936 35.52838,-16.4807 63.18043,-30.6757 108.98307,-48.2559 161.54528,-62.0048 309.72644,-228.8153 513.41494,-437.752 C 1629.3909,1121.2394 1390.8523,582.22295 1113.0139,223.13096 1044.8529,135.03643 922.26432,46.102351 810.8804,46.550532 Z"
       style="color:#000000;font-style:normal;font-variant:normal;font-weight:normal;font-stretch:normal;font-size:medium;line-height:normal;font-family:sans-serif;font-variant-ligatures:normal;font-variant-position:normal;font-variant-caps:normal;font-variant-numeric:normal;font-variant-alternates:normal;font-variant-east-asian:normal;font-feature-settings:normal;font-variation-settings:normal;text-indent:0;text-align:start;text-decoration:none;text-decoration-line:none;text-decoration-style:solid;text-decoration-color:#000000;letter-spacing:normal;word-spacing:normal;text-transform:none;writing-mode:lr-tb;direction:ltr;text-orientation:mixed;dominant-baseline:auto;baseline-shift:baseline;text-anchor:start;white-space:normal;shape-padding:0;shape-margin:0;inline-size:0;clip-rule:nonzero;display:inline;overflow:visible;visibility:visible;opacity:1;isolation:auto;mix-blend-mode:normal;color-interpolation:sRGB;color-interpolation-filters:linearRGB;solid-color:#000000;solid-opacity:1;vector-effect:none;fill:#ffc9c9;fill-opacity:1;fill-rule:nonzero;stroke:none;stroke-width:621.071;stroke-linecap:round;stroke-linejoin:round;stroke-miterlimit:4;stroke-dasharray:none;stroke-dashoffset:0;stroke-opacity:1;color-rendering:auto;image-rendering:auto;shape-rendering:auto;text-rendering:auto;enable-background:accumulate;stop-color:#000000;stop-opacity:1" />
    <path
       sodipodi:nodetypes="cssssscccccccccccc"
       id="path1007"
       d="m 790.80485,2721.1875 c 0,0 572.06175,-5.7038 734.67675,-105.4919 193.1248,-118.5103 350.3049,-300.9814 463.4115,-497.3197 96.9738,-168.3341 97.3686,-374.2377 212.166,-530.96 106.2156,-145.0061 243.6147,-246.7322 401.9484,-331.8143 100.2489,-53.8696 250.1221,-35.6371 316.4762,-128.0975 24.9387,-34.7505 7.5351,-128.09752 7.5351,-128.09752 l 79.1191,94.18932 -11.3028,67.8164 -293.8707,229.822 -259.9625,135.6326 -195.9139,252.4274 -128.0974,267.4976 -101.7245,293.8707 -154.4705,195.914 -222.2868,177.0759 -316.4763,105.4919 c -193.401,9.7931 -362.34905,-43.9918 -531.22765,-97.9569 z"
       style="fill:#ffa8a8;fill-opacity:1;stroke:none;stroke-width:5.13515px;stroke-linecap:butt;stroke-linejoin:miter;stroke-opacity:1" />
    <ellipse
       ry="45.210876"
       rx="44.306664"
       cy="485.13278"
       cx="650.46277"
       id="ellipse879"
       style="fill:#ff8787;fill-opacity:1;stroke:none;stroke-width:745.286;stroke-linecap:round;stroke-linejoin:round;stroke-miterlimit:4;stroke-dasharray:none;stroke-opacity:1" />
    <ellipse
       style="fill:#ff8787;fill-opacity:1;stroke:none;stroke-width:745.286;stroke-linecap:round;stroke-linejoin:round;stroke-miterlimit:4;stroke-dasharray:none;stroke-opacity:1"
       id="ellipse881"
       cx="1015.9172"
       cy="308.05679"
       rx="44.306664"
       ry="45.210876" />
    <path
       sodipodi:nodetypes="cc"
       id="path883"
       d="m 782.07166,465.48258 c 71.87347,11.9621 107.11654,-24.84367 131.32547,-76.33989"
       style="fill:none;stroke:#ff8787;stroke-width:41.5371;stroke-linecap:round;stroke-linejoin:miter;stroke-opacity:1" />
    <g
       transform="matrix(19.408476,0,0,19.408476,-380.91055,-974.80183)"
       clip-path="url(#clipPath940)"
       id="g936">
      <path
         sodipodi:nodetypes="cc"
         id="path885"
         d="m 60.801664,151.35623 c -4.531967,-20.17248 -39.763645,-10.06651 -38.68531,3.70076"
         style="fill:none;stroke:#ffa8a8;stroke-width:4;stroke-linecap:round;stroke-linejoin:miter;stroke-opacity:1" />
      <path
         style="fill:none;stroke:#ffa8a8;stroke-width:4;stroke-linecap:round;stroke-linejoin:miter;stroke-opacity:1"
         d="M 68.401859,157.7943 C 58.335346,146.69436 34.756432,164.7372 37.008057,178.40905"
         id="path887"
         sodipodi:nodetypes="cc" />
      <path
         sodipodi:nodetypes="cc"
         id="path889"
         d="M 78.877708,160.53131 C 62.030622,156.59768 55.395969,185.51942 62.762092,193.30118"
         style="fill:none;stroke:#ffa8a8;stroke-width:4;stroke-linecap:round;stroke-linejoin:miter;stroke-opacity:1" />
      <path
         style="fill:none;stroke:#ffa8a8;stroke-width:4;stroke-linecap:round;stroke-linejoin:miter;stroke-opacity:1"
         d="m 85.316926,164.06405 c 2.345729,9.09181 6.974844,24.32771 9.79038,29.27378"
         id="path891"
         sodipodi:nodetypes="cc" />
      <path
         sodipodi:nodetypes="cc"
         id="path893"
         d="m 94.027626,158.29598 c 11.434374,-0.67944 25.577054,8.59609 25.020654,18.07686"
         style="fill:none;stroke:#ffa8a8;stroke-width:4;stroke-linecap:round;stroke-linejoin:miter;stroke-opacity:1" />
      <path
         style="fill:none;stroke:#ffa8a8;stroke-width:4;stroke-linecap:round;stroke-linejoin:miter;stroke-opacity:1"
         d="m 99.7927,135.2357 c 11.43437,-0.67944 33.26381,14.36116 32.70741,23.84193"
         id="path895"
         sodipodi:nodetypes="cc" />
      <path
         sodipodi:nodetypes="cc"
         id="path897"
         d="m 109.95021,117.39144 c 11.13594,-2.47001 29.204,11.4154 28.86403,22.19476"
         style="fill:none;stroke:#ffa8a8;stroke-width:4;stroke-linecap:round;stroke-linejoin:miter;stroke-opacity:1" />
      <path
         style="fill:none;stroke:#ffa8a8;stroke-width:4;stroke-linecap:round;stroke-linejoin:miter;stroke-opacity:1"
         d="m 124.24943,101.7122 c 11.94549,-1.27834 29.76292,16.61534 27.16344,28.01894"
         id="path899"
         sodipodi:nodetypes="cc" />
      <path
         sodipodi:nodetypes="cc"
         id="path920"
         d="m 145.42249,92.628367 c 10.61093,4.314457 22.12101,20.151853 17.53324,28.467313"
         style="fill:none;stroke:#ffa8a8;stroke-width:4;stroke-linecap:round;stroke-linejoin:miter;stroke-opacity:1" />
      <path
         style="fill:none;stroke:#ffa8a8;stroke-width:4;stroke-linecap:round;stroke-linejoin:miter;stroke-opacity:1"
         d="M 87.867257,80.696587 C 81.886292,87.705297 66.15738,94.738371 59.230825,92.218764"
         id="path924"
         sodipodi:nodetypes="cc" />
    </g>
    <path
       sodipodi:nodetypes="cscccccc"
       id="path1003"
       d="m 1348.4057,607.57897 c 0,0 18.6584,261.36158 -7.5351,388.06004 -12.0874,58.46649 -67.8163,165.77329 -67.8163,165.77329 l 71.5836,263.7302 82.8869,-128.0976 60.2811,-301.40589 -94.1893,-305.17342 z"
       style="fill:#ffa8a8;fill-opacity:1;stroke:none;stroke-width:5.13515px;stroke-linecap:butt;stroke-linejoin:miter;stroke-opacity:1" />
    <path
       d="M 810.87768,46.553229 C 425.50638,61.887264 448.18668,447.34324 591.13117,589.60743 745.39131,728.24721 803.92248,830.40489 845.25921,922.21826 793.5116,936.25018 769.17238,979.62199 715.28552,1017.5196 l -326.76459,229.7982 c -61.12971,42.9848 -156.50393,137.3329 -184.52474,206.6101 0.96654,-0.2542 2.11593,-0.6152 3.16923,-0.9219 -24.52183,21.4685 -49.29425,46.1373 -74.2091,74.9412 -89.659203,103.6554 -130.0571691,294.6255 -91.470014,432.4767 38.587349,137.8511 113.580534,241.8355 216.599574,360.0828 319.90603,367.1953 724.78529,541.7466 1100.18772,482.4442 375.4025,-59.3024 677.8851,-360.4128 774.065,-750.4452 37.9665,-153.9637 170.9069,-382.1498 291.3099,-495.5228 48.0692,-45.2625 85.7236,-65.0516 105.0803,-73.7276 191.4844,-114.5492 611.6189,-295.4758 419.7492,-456.979 -209.9324,-176.70723 -362.7343,-195.43373 -534.7988,-158.17701 -172.0645,37.25665 -302.4745,130.02227 -415.7975,236.72891 -226.6456,213.4125 -394.6711,499.4407 -468.5331,798.9686 -46.662,189.2255 -144.3449,266.1741 -267.971,285.7033 -123.6262,19.529 -316.64316,-26.337 -534.97935,-276.9475 -0.17467,-0.2 -0.26182,-0.3339 -0.42116,-0.5221 200.53928,51.0802 285.69681,-125.8927 452.83681,-248.1826 80.0596,-56.2966 128.7308,-139.7348 146.362,-230.4603 5.5072,-5.6689 10.6384,-11.006 16.2278,-16.7395 287.9887,-295.409 49.4443,-834.42135 -228.394,-1193.5134 C 1044.8486,135.04018 922.2616,46.105224 810.87768,46.553424 Z M 725.75642,1899.4833 c -0.98984,2.6941 -2.0647,5.4002 -3.12927,8.1036 -0.97237,-1.4537 -1.89621,-2.8816 -3.62065,-4.9342 2.344,-1.0869 4.46707,-2.1004 6.74992,-3.1694 z"
       style="color:#000000;font-style:normal;font-variant:normal;font-weight:normal;font-stretch:normal;font-size:medium;line-height:normal;font-family:sans-serif;font-variant-ligatures:normal;font-variant-position:normal;font-variant-caps:normal;font-variant-numeric:normal;font-variant-alternates:normal;font-variant-east-asian:normal;font-feature-settings:normal;font-variation-settings:normal;text-indent:0;text-align:start;text-decoration:none;text-decoration-line:none;text-decoration-style:solid;text-decoration-color:#000000;letter-spacing:normal;word-spacing:normal;text-transform:none;writing-mode:lr-tb;direction:ltr;text-orientation:mixed;dominant-baseline:auto;baseline-shift:baseline;text-anchor:start;white-space:normal;shape-padding:0;shape-margin:0;inline-size:0;clip-rule:nonzero;display:inline;overflow:visible;visibility:visible;opacity:1;isolation:auto;mix-blend-mode:normal;color-interpolation:sRGB;color-interpolation-filters:linearRGB;solid-color:#000000;solid-opacity:1;vector-effect:none;fill:none;fill-opacity:1;fill-rule:nonzero;stroke:#ff8787;stroke-width:29.1127;stroke-linecap:round;stroke-linejoin:round;stroke-miterlimit:4;stroke-dasharray:none;stroke-dashoffset:0;stroke-opacity:1;color-rendering:auto;image-rendering:auto;shape-rendering:auto;text-rendering:auto;enable-background:accumulate;stop-color:#000000;stop-opacity:1"
       id="path918-7"
       sodipodi:nodetypes="ccccccccssssscsssssscccsssccccc" />
    <path
       id="path1005"
       d="m 679.39209,1609.3526 -63.93792,122.5476 111.89122,199.8056 39.96104,-133.2039 z"
       style="fill:#ffa8a8;fill-opacity:1;stroke:none;stroke-width:5.13515px;stroke-linecap:butt;stroke-linejoin:miter;stroke-opacity:1" />
    <path
       d="m 882.22774,917.55615 c -79.79236,0.0854 -101.6746,54.06176 -166.94243,99.96345 l -326.76457,229.7982 c -61.12952,42.9846 -156.50548,137.3337 -184.52647,206.6109 32.14315,-8.4683 113.19411,-47.4058 146.43404,-47.4407 126.51609,-0.1359 245.15736,58.7403 317.92847,162.2327 75.78915,107.772 102.39349,219.9895 53.01138,342.1379 203.8707,55.0119 289.02864,-123.7844 457.44954,-247.0119 175.3696,-123.3164 200.608,-376.7545 77.2842,-552.119 C 1183.324,1008.2468 1008.7384,917.41924 882.22774,917.55615 Z"
       style="color:#000000;font-style:normal;font-variant:normal;font-weight:normal;font-stretch:normal;font-size:medium;line-height:normal;font-family:sans-serif;font-variant-ligatures:normal;font-variant-position:normal;font-variant-caps:normal;font-variant-numeric:normal;font-variant-alternates:normal;font-variant-east-asian:normal;font-feature-settings:normal;font-variation-settings:normal;text-indent:0;text-align:start;text-decoration:none;text-decoration-line:none;text-decoration-style:solid;text-decoration-color:#000000;letter-spacing:normal;word-spacing:normal;text-transform:none;writing-mode:lr-tb;direction:ltr;text-orientation:mixed;dominant-baseline:auto;baseline-shift:baseline;text-anchor:start;white-space:normal;shape-padding:0;shape-margin:0;inline-size:0;clip-rule:nonzero;display:inline;overflow:visible;visibility:visible;isolation:auto;mix-blend-mode:normal;color-interpolation:sRGB;color-interpolation-filters:linearRGB;solid-color:#000000;solid-opacity:1;vector-effect:none;fill:#ffa8a8;fill-opacity:1;fill-rule:nonzero;stroke:#ff8787;stroke-width:29.1127;stroke-linecap:round;stroke-linejoin:round;stroke-miterlimit:4;stroke-dasharray:none;stroke-dashoffset:0;stroke-opacity:1;color-rendering:auto;image-rendering:auto;shape-rendering:auto;text-rendering:auto;enable-background:accumulate;stop-color:#000000"
       id="path877"
       sodipodi:nodetypes="cccccccccc" />
    <circle
       r="32.024372"
       cy="1069.1067"
       cx="832.24805"
       id="path997"
       style="fill:#ffc9c9;fill-opacity:1;stroke:none;stroke-width:38.817;stroke-linecap:round;stroke-linejoin:round;stroke-opacity:1" />
    <path
       id="path999"
       d="m 729.64855,1149.7864 -192.1462,152.5867"
       style="fill:none;stroke:#ffc9c9;stroke-width:77.6339;stroke-linecap:round;stroke-linejoin:round;stroke-miterlimit:4;stroke-dasharray:none;stroke-opacity:1" />
    <path
       sodipodi:nodetypes="csccccccccc"
       id="path1001"
       d="m 743.3298,1723.9078 c 0,0 123.43268,-59.2948 170.50096,-87.9144 164.96754,-100.3073 415.59604,-356.9863 415.59604,-356.9863 v 194.4776 l -66.602,130.5399 -189.1495,154.5163 -143.86013,130.5398 -130.53966,34.6329 -82.58635,-15.9844 29.30467,-117.2193 z"
       style="fill:#ff8787;fill-opacity:1;stroke:none;stroke-width:5.13515px;stroke-linecap:butt;stroke-linejoin:miter;stroke-opacity:1" />
  </g>
</svg>
