<?xml version="1.0" encoding="UTF-8"?>
<svg viewBox="0 0 943.19092 745.22308" xmlns="http://www.w3.org/2000/svg" xmlns:xlink="http://www.w3.org/1999/xlink">
 <defs>
  <filter id="u">
   <feGaussianBlur stdDeviation=".73704"/>
  </filter>
  <linearGradient id="a">
   <stop stop-color="#bc878a" offset="0"/>
   <stop stop-color="#bc878a" stop-opacity="0" offset="1"/>
  </linearGradient>
  <linearGradient id="b">
   <stop stop-color="#bc8775" offset="0"/>
   <stop stop-color="#bc8775" stop-opacity="0" offset="1"/>
  </linearGradient>
  <linearGradient id="c">
   <stop stop-color="#b67865" offset="0"/>
   <stop stop-color="#b67865" stop-opacity="0" offset="1"/>
  </linearGradient>
  <linearGradient id="d">
   <stop stop-color="#f24141" offset="0"/>
   <stop stop-color="#d75459" stop-opacity="0" offset="1"/>
  </linearGradient>
  <radialGradient id="t" cx="765.43" cy="209.77" r="157.98" gradientTransform="matrix(1.4949 -.85778 .31094 .5419 -449.16 801.09)" gradientUnits="userSpaceOnUse">
   <stop stop-color="#fff" offset="0"/>
   <stop stop-color="#fff" stop-opacity="0" offset="1"/>
  </radialGradient>
  <radialGradient id="s" cx="472.97" cy="739.17" r="244.43" gradientTransform="matrix(.97206 -.56611 .30155 .5178 -188.05 524.09)" gradientUnits="userSpaceOnUse">
   <stop stop-color="#fa0000" offset="0"/>
   <stop stop-color="#fa0000" stop-opacity="0" offset="1"/>
  </radialGradient>
  <radialGradient id="r" cx="78.5" cy="522.64" r="220.99" gradientTransform="matrix(1.2843 -.87638 .45699 .66971 -279.55 272.64)" gradientUnits="userSpaceOnUse">
   <stop stop-color="#ec9de3" offset="0"/>
   <stop stop-color="#ec9de3" stop-opacity="0" offset="1"/>
  </radialGradient>
  <radialGradient id="q" cx="593.48" cy="425.29" r="164.33" gradientTransform="matrix(.25561 -.70569 1.1638 .42154 -44.655 506.22)" gradientUnits="userSpaceOnUse">
   <stop stop-color="#990f3c" offset="0"/>
   <stop stop-color="#990f3c" stop-opacity="0" offset="1"/>
  </radialGradient>
  <radialGradient id="p" cx="-26.827" cy="557.36" r="94.034" gradientTransform="matrix(2.9457 .65548 -.69552 3.1257 475.95 -1124.1)" gradientUnits="userSpaceOnUse">
   <stop stop-color="#ab1310" offset="0"/>
   <stop stop-color="#ab1310" stop-opacity="0" offset="1"/>
  </radialGradient>
  <radialGradient id="m" cx="293.67" cy="288.98" r="256.57" gradientTransform="matrix(.91542 -.53753 .24221 .41248 -61.476 360.86)" gradientUnits="userSpaceOnUse">
   <stop stop-color="#be1b3e" offset="0"/>
   <stop stop-color="#be1b3e" stop-opacity="0" offset="1"/>
  </radialGradient>
  <radialGradient id="h" cx="-13.385" cy="548.05" r="49.924" gradientTransform="matrix(1.5777 -.5198 1.068 3.2415 -577.58 -1235.4)" gradientUnits="userSpaceOnUse">
   <stop stop-color="#a37870" offset="0"/>
   <stop stop-color="#9c7557" stop-opacity="0" offset="1"/>
  </radialGradient>
  <radialGradient id="e" cx="557.65" cy="224.54" r="40.243" gradientTransform="matrix(2.5462 -2.9081e-7 2.7156e-7 2.3777 -845.64 -317.52)" gradientUnits="userSpaceOnUse">
   <stop stop-color="#7f4159" offset="0"/>
   <stop stop-color="#7f4159" stop-opacity="0" offset="1"/>
  </radialGradient>
  <radialGradient id="o" cx="37.461" cy="162.43" r="166.6" gradientTransform="matrix(1.3729 -1.0748 .44611 .56985 -90.621 146.94)" gradientUnits="userSpaceOnUse" xlink:href="#d"/>
  <radialGradient id="n" cx="45.999" cy="162.15" r="166.6" gradientTransform="matrix(2.3718 -.88401 .2901 .77834 237.21 -70.717)" gradientUnits="userSpaceOnUse" xlink:href="#d"/>
  <radialGradient id="l" cx="183.49" cy="397.19" r="77.057" gradientTransform="matrix(.77406 -.83768 1.7551 1.6218 -719.82 -143.71)" gradientUnits="userSpaceOnUse" xlink:href="#c"/>
  <radialGradient id="k" cx="33.89" cy="416.47" r="77.057" gradientTransform="matrix(.58644 -.60202 1.426 1.389 -592.44 -61.74)" gradientUnits="userSpaceOnUse" xlink:href="#c"/>
  <radialGradient id="j" cx="150.87" cy="291.1" r="128.76" gradientTransform="matrix(.8273 -.46713 .56962 1.0088 -152.27 83.508)" gradientUnits="userSpaceOnUse" xlink:href="#b"/>
  <radialGradient id="i" cx="334.21" cy="281.32" r="128.76" gradientTransform="matrix(.94447 -.49477 .57338 1.0945 -226.8 85.791)" gradientUnits="userSpaceOnUse" xlink:href="#b"/>
  <radialGradient id="g" cx="346.16" cy="259.15" r="110.09" gradientTransform="matrix(.27817 -.23138 .61692 .74167 89.994 156.08)" gradientUnits="userSpaceOnUse" xlink:href="#a"/>
  <radialGradient id="f" cx="628.36" cy="252.51" r="110.09" gradientTransform="matrix(.47196 -.26541 .51385 .91374 52.782 148.46)" gradientUnits="userSpaceOnUse" xlink:href="#a"/>
 </defs>
 <g transform="translate(146.11 12.819)" fill-rule="evenodd">
  <path d="m491.74 184.52c24.076 0.06167 53.669 4.216 90.456 8.7905 38.294 4.7277 82.41 31.464 91.869 42.16 9.1885 10.39 21.004 2.9144-2.0684 16.547-8.1546 4.8182-30.143 17.381-54.363 27.957-24.9 10.873-52.132 35.697-72.496 49.261-27.972 18.632-82.956 62.862-124.89 79.563-42.865 17.07-90.457 34.129-146.92 74.461-55.495 39.639-140.26 85.122-160.75 97.73s-21.688 15.744-58.327 36.231-47.661 35.083-59.086 36.265-40.589 16.153-42.953 13.789-12.986-1.9896-38.988-0.41367-31.548-6.3742-14.213-16.617 42.953-20.421 60.682-42.089 41.003-85.098 57.155-107.55 74.436-74.85 100.83-117.79 92.204-91.382 134.75-101.62 60.273-21.668 79.183-38.609 72.506-39.791 98.902-49.64c14.023-5.2324 33.937-8.4812 61.223-8.4113z" stroke="#000" stroke-width="1.1031"/>
  <path d="m443.47-12.312c-38.419 0.26136-74.85 8.6008-112.91 36.969-97.143 100-102.87 95.616-145.72 105.72-97.362 22.954-178.94 35.328-224.28 118.56-46.838 85.988-55.692 175.7-71.406 242.84s-20 128.58-30 147.16-10.009 14.295 58.562 41.438 202.84 47.48 287.12 51.406c66.399 3.0933 267.16-52.844 332.88-92.844 67.116-40.853 154.27-107.15 177.12-135.72s75.737-107.14 78.594-144.28 11.197-70.369-22.875-98.562c-27.844-23.04-70.01-94.523-95.719-150-24.692-53.285-97.134-98.576-148.56-115.72-29.301-3.5386-56.526-7.1476-82.812-6.9688zm11.188 225.06c21.825 0.05591 48.652 3.8219 82 7.9688 34.714 4.2857 74.706 28.522 83.281 38.219 8.3296 9.4191 18.291 2.6419-1.875 15-7.3209 4.4865-27.325 15.757-49.281 25.344-22.573 9.8563-47.259 32.36-65.719 44.656-25.357 16.891-75.201 56.986-113.22 72.125-38.858 15.474-82.001 30.938-133.19 67.5-50.307 35.934-127.15 77.165-145.72 88.594s-19.661 14.272-52.875 32.844-43.205 31.804-53.562 32.875-36.795 14.643-38.938 12.5-11.772-1.8036-35.344-0.375-13.214-3.2143 2.5-12.5 23.554-21.076 39.625-40.719 37.17-77.143 51.812-97.5 67.478-67.853 91.406-106.78 83.585-82.839 122.16-92.125 54.638-19.643 71.781-35 65.728-36.071 89.656-45c12.712-4.7433 30.765-7.6884 55.5-7.625z" fill="#f55789" stroke="#000"/>
  <path d="m495.75 216.86s25.75 1 42.5 5.75 22.25 5.25 27.25 10.75 10.25 31 7.5 35.25-17.5 17.25-28.75 13.5-16.5-3.25-18.75-7.75-17.25-34.25-20.75-38.5-8.5-12.5-10-14.5 1-4.5 1-4.5z" fill="#fff" stroke="#000"/>
  <path d="m313.25 266.61c-3.0864-5.0067 16.75-19.25 57.5-34.5s50.86-24.636 110-15.75c4.0245 0.60468 9.1875-1.125 12.25 1.5 2.9241 2.5064 38.25 60 39 76s-2.25 15-7.5 17-35.25 13-44 17-42.25 24-50.5 29.25-9.25 6.5-12 5.75-17-7.5-23.5-8-7 0.25-13.25-8.75-56.25-69.75-61.25-73.25-3.3715-0.76945-6.75-6.25z" fill="#fff" stroke="#000"/>
  <path d="m139 367.36c-2.1127-3.4331 21.502-26.016 48-43.5 18.196-12.006 53.867-22.994 82-32.5 12.012-4.0586 17.31-8.9753 40.75-24.5 2.6529-1.7571 33.25 31.25 37.5 35.75s40.25 49.5 44 63 9.0966 11.958-5.5 23.25c-14.407 11.145-110.41 71.83-133.5 81-21.006 8.3421-14.724 14.547-40 0-21.93-12.622-59.75-81.75-64-88.25s-7.25-11-9.25-14.25z" fill="#fff" stroke="#000"/>
  <path d="m42.75 478.11s50.5-52 59.25-64.5 29.5-44 34.75-46.25 16 26.75 24 38.25 32.5 45.25 34.25 51.25 2.5 47.5-14.75 61.25-34.25 26.5-38 30-12.5 13.5-26.25 7.5-45-30.25-51-39.5-22.25-38.25-22.25-38z" fill="#fff" stroke="#000"/>
  <path d="m-12.75 578.36s15 20 28.5 28.75 17.089 7.1812 17.25 9.75c0.18134 2.8873 22.75-9.75 30.25-15.25s15.5-7.25 16-11.75 1.25-28.25 3-36.5 4.5-11.75 3.5-14.75-24-23.25-30.75-36.5-10.75-22-11.75-23.25-23.75 22-31 41-21.25 49.25-23.75 53.5-0.75 5.75-1.25 5z" fill="#fff" stroke="#000"/>
  <path d="m336.02 227.3c84.485-21.534 260.21 12.335 263.04 14.591 42.592 33.913 26.939 27.475 50.939 13.475s66-12 73-12-28.071-45.707-69.071-61.707c-96.314-23.948-234.09-5.6135-317.91 45.641z" fill="url(#q)"/>
  <path d="m750 241.36c20.331 15.858 58.113 36.55 44 116-2.5824 14.537-8 7-62 17-65.961 12.215-86 2-152 28s-126 10-86-22 50-34 106-76 20-50 82-58 36-4 68-5z" fill="url(#t)"/>
  <path d="m-68.876 673.06c91.757-10.511 145.31-52.44 168.3-66.353s190.47-114.72 241.48-131.71c77.683-25.868 35.343 39.592-18.798 93.194-75.918 75.162-100.16 104.52-159.71 125.96-61.899 22.285-75.797 24.121-151.59 5.3602s-76.726-35.091-79.675-26.458z" fill="url(#r)"/>
  <path d="m712.76 481.02c-175.36-11.314-110.31-11.314-246.07 50.912-136.86 62.726-120.17 74.729-181.02 127.28-62.225 53.74-84.853 76.368-28.284 65.054s197.99-36.77 243.24-67.882 138.59-82.024 169.71-110.31 48.083-65.054 42.426-65.054z" fill="url(#s)" opacity=".48913"/>
  <path d="m-137.89 636.58c1.8358-9.179 41.719-138.59 41.719-178.19s47.024-158 111.2-142.47c95.31 23.055 68.69 130.27 16.783 175-27.274 23.503-38.184 76.721-66.468 116.32-15.087 21.122-37.096 33.035-49.568 40.544-10.909 6.5678-16.666 11.429-23.264 11.429-14.142 0-32.173-13.789-30.406-22.627z" fill="url(#p)" opacity=".58424"/>
  <path d="m-70.004 327.58c16.971-50.912 42.426-115.97 107.48-149.91s142.77-49.611 172.46-45.368c38.999 5.5713 67.882 33.941 67.882 33.941s-25.084 6.0904-92.994 69.684c-75.577 70.774-113.14 74.83-169.71 84.853-61.081 10.824-102.1 57.708-85.127 6.7967z" fill="url(#o)" opacity=".66489"/>
  <path d="m224.68 132.9c28.75-45.315 106.94-123.99 178.58-139.88 33.136-7.3482 110.85-3.9269 138.64 7.3539 36.504 14.814 57.691 49.312 57.691 49.312s12.931 4.7447-72.636 41.272c-93.776 40.032-119.63 47.871-185.16 41.414-61.733-6.0834-145.87 45.841-117.12 0.52632z" fill="url(#n)" opacity=".66489"/>
  <path d="m72.703 445.15c22.685-23.004 51.004-69.93 68.632-84.917 69.826-59.367 80.341-58.377 131.65-75.993 12.022-4.1279 94.024-58.362 135.32-68.25 45.477-10.889 75.03-2.3265 95.968-4.653s-2.5261-61.601-35.097-62.764c-102.72-3.7353-127.74-13.343-164.96 14.575s-48.058 38.752-110.87 66.67-38.022 15.088-103.16 82.557-21.571 45.167-47.163 110.31c15.52 54.94 8.7899 54.277 29.697 22.467z" fill="url(#m)"/>
  <path d="m42.75 478.11s50.5-52 59.25-64.5 29.5-44 34.75-46.25 16 26.75 24 38.25 32.5 45.25 34.25 51.25 2.5 47.5-14.75 61.25-34.25 26.5-38 30-12.5 13.5-26.25 7.5-45-30.25-51-39.5-22.25-38.25-22.25-38z" fill="url(#l)" opacity=".51087" stroke="#000"/>
  <path d="m42.75 478.11s50.5-52 59.25-64.5 29.5-44 34.75-46.25 16 26.75 24 38.25 32.5 45.25 34.25 51.25 2.5 47.5-14.75 61.25-34.25 26.5-38 30-12.5 13.5-26.25 7.5-45-30.25-51-39.5-22.25-38.25-22.25-38z" fill="url(#k)" opacity=".61141" stroke="#000"/>
  <path d="m139 367.36c-2.1127-3.4331 21.502-26.016 48-43.5 18.196-12.006 53.867-22.994 82-32.5 12.012-4.0586 17.31-8.9753 40.75-24.5 2.6529-1.7571 33.25 31.25 37.5 35.75s40.25 49.5 44 63 9.0966 11.958-5.5 23.25c-14.407 11.145-110.41 71.83-133.5 81-21.006 8.3421-14.724 14.547-40 0-21.93-12.622-59.75-81.75-64-88.25s-7.25-11-9.25-14.25z" fill="url(#j)" opacity=".41848" stroke="#000"/>
  <path d="m139 367.36c-2.1127-3.4331 21.502-26.016 48-43.5 18.196-12.006 53.867-22.994 82-32.5 12.012-4.0586 17.31-8.9753 40.75-24.5 2.6529-1.7571 33.25 31.25 37.5 35.75s40.25 49.5 44 63 9.0966 11.958-5.5 23.25c-14.407 11.145-110.41 71.83-133.5 81-21.006 8.3421-14.724 14.547-40 0-21.93-12.622-59.75-81.75-64-88.25s-7.25-11-9.25-14.25z" fill="url(#i)" opacity=".60326" stroke="#000"/>
  <path d="m-12.75 578.36s15 20 28.5 28.75 17.089 7.1812 17.25 9.75c0.18134 2.8873 22.75-9.75 30.25-15.25s15.5-7.25 16-11.75 1.25-28.25 3-36.5 4.5-11.75 3.5-14.75-24-23.25-30.75-36.5-10.75-22-11.75-23.25-23.75 22-31 41-21.25 49.25-23.75 53.5-0.75 5.75-1.25 5z" fill="url(#h)" opacity=".76902" stroke="#000"/>
  <path d="m313.25 266.61c-3.0864-5.0067 16.75-19.25 57.5-34.5s50.86-24.636 110-15.75c4.0245 0.60468 9.1875-1.125 12.25 1.5 2.9241 2.5064 38.25 60 39 76s-2.25 15-7.5 17-35.25 13-44 17-42.25 24-50.5 29.25-9.25 6.5-12 5.75-17-7.5-23.5-8-7 0.25-13.25-8.75-56.25-69.75-61.25-73.25-3.3715-0.76945-6.75-6.25z" fill="url(#g)" opacity=".33967" stroke="#000"/>
  <path d="m313.25 266.61c-3.0864-5.0067 16.75-19.25 57.5-34.5s50.86-24.636 110-15.75c4.0245 0.60468 9.1875-1.125 12.25 1.5 2.9241 2.5064 38.25 60 39 76s-2.25 15-7.5 17-35.25 13-44 17-42.25 24-50.5 29.25-9.25 6.5-12 5.75-17-7.5-23.5-8-7 0.25-13.25-8.75-56.25-69.75-61.25-73.25-3.3715-0.76945-6.75-6.25z" fill="url(#f)" opacity=".4212" stroke="#000"/>
  <path d="m495.75 216.86s25.75 1 42.5 5.75 22.25 5.25 27.25 10.75 10.25 31 7.5 35.25-17.5 17.25-28.75 13.5-16.5-3.25-18.75-7.75-17.25-34.25-20.75-38.5-8.5-12.5-10-14.5 1-4.5 1-4.5z" fill="url(#e)" filter="url(#u)" opacity=".67663" stroke="#000"/>
 </g>
</svg>
