<?xml version="1.0" encoding="UTF-8"?>
<svg viewBox="0 0 867 1154" xmlns="http://www.w3.org/2000/svg">
 <g fill-rule="evenodd">
  <path d="m673 572v-3h1l1 1h1v1h1v1h1v1h1v1h1v3l-1 1v1l-2 1q-1 2-3 6t-3 5l-1 1v4h-2v-3l1-1 1-2v-2q0-2 1-6l1-5v-1q0-2 1-4z" fill="#e0e0e0" stroke="#e0e0e0"/>
  <path d="m642 472v-1l1 1q1 0 2 1 0 1 1 1 2 0 2-1h2v1l1 1 1 1v1l6 9q4 8 8 12 2 5 3 6l1 1v1l1 1 1 1v1l-1 1-1 1v1h-2l-1-1-1-1v-1l-1-1-1-1v-1t-7-11q-6-11-9-16-4-6-5-6t-1-1zm7 3q1 0 1 1 0 2-1 0-1-1 0-1z" fill="#191919" stroke="#191919"/>
  <path d="m533 560v2q-1 1 1 2 2 0 2 1 0 0-1 1-1 0-1 0t-10 4q-11 4-24 5-14 1-21-1t-17-5l-10-3-2-1h-1v-2h1l2-1h-1v-1h1l1 1h3l14 4q14 4 28 3 15-1 24-4t9-4q1 0 1 0v-1t1 0z" fill="#121212" stroke="#121212"/>
  <path d="m784 722l2 4q2 4 2 6v1q-1-1-2 1-2 1-2 2l-2 1v-5q0-4-1-6v-1h1q1 0 1 1 1 1 1-2 0-2 0-2z" fill="#1e1e1e" stroke="#1e1e1e"/>
  <path d="m450 534v-8l1 1 1 1 2-1h1v2q1 2 1 1t1-1h1v1q0 1 0 7v6l2 2q3 3 6 2t4-1h6v2l1 1v1h-2l-1 1-1 1h-1l-2 1-1 1h-2q-2 0-5-1-2-1-4-2-2-2-5-6t-3-11z" fill="#151515" stroke="#151515"/>
  <path d="m664 606l4-10h1v1q-1 1-1 4v3l-1 1-1 1v2l1 12q1 11 1 12v2l2 8q2 8 3 8v1q1 1 1 5 0 3-8 5l-8 3h-1v1h-1q-2 1-8 3-5 3-5 2-1-2-4-8l-3-6v-1q0-1-7-10l-6-9q-1-1-1-2-2-1-8-3-6-3-20-2l-14 1h-3l-1 1h-2q-1 1-3 1t-15 6l-14 6t-1 0v1q-1 0-2 1h-1l-1 1-1 1h-4v-1h-1v-1h-1v-5h1v-1h1v-1h1v-1h1t0-1l1-1 9-6q8-5 9-5h1q0-1 0-1 1 0 1-1l12-5q12-4 15-5t3-1h3q4 0 4-1l20-1q19 0 19-1h1v5q0 4 0 14v10h1v1h1v1h4l1-1 1-1h2v-1t2-1q2-2 8-10l6-9 1-1q1-1 5-10z" fill="#f7f7f7" stroke="#f7f7f7"/>
  <path d="m266 684l-1 8q-1 7-1 14 0 8 0 11v3t0 1q-1 1-2-1l-1-1v-3q-1-4 1-18l1-14h1q1 0 2 0z" fill="#212121" stroke="#212121"/>
  <path d="m262 726l-1-7 1 1q1 2 2 1 0-1 0-1l1 4q1 3 1 6t1 5v2h-1q-1-1-2-1v-2q0-1-2-8z" fill="#303030" stroke="#303030"/>
  <path d="m180 410v-1l6 2q5 3 6 3h1l3 2q3 0 3 1v4h-3q0-1-8-4l-7-4v-1q-1-1-1-2z" fill="#1f1f1f" stroke="#1f1f1f"/>
  <path d="m426 424h2v1l1 1q1 2 2 2h1l-7 8q-7 8-13 15-6 6-6 6v1h-1l-1 1-1 1h-2l-1 1h-2v-3h-1v-1h1v-1h1v-1h1v-1h1v-1h1q0-1 4-4 3-3 11-14l8-10q1 0 1-1zm1 4v-1h1v1t-1 0z" fill="#161616" stroke="#161616"/>
  <path d="m312 638h11q11 0 11 1 0 0-1 1v1h-5q-6-1-12 0h-5v-1q-1 0 0-1v-1h1z" fill="#1e1e1e" stroke="#1e1e1e"/>
  <path d="m355 632l3 1q0 1 0 1h2t2 1l1 1 3 1q4 2 4 3t1 2l1 1v8q-1-1-2-1h-1v-1q-1 0-9-4l-8-3v-6q0-4 3-4z" fill="#f0f0f0" stroke="#f0f0f0"/>
  <path d="m742 66v1q0 1 0 1 0 2 0 2h-6q-7 0-20 5l-12 4v-2l-1-1-1-1v-1h2l2-1 1-1 9-3q10-3 18-3t8 0z" fill="#181818" stroke="#181818"/>
  <path d="m756 801h2v2h1v1h-1l1 1 1 1t-2 1-14 3q-13 2-14 5 0 3-6 9l-6 7v-1q0-1-2-2h-2q0-1 4-4l2-4 1-1 1-1v-1h1v-1h1v-1l1-1v-1h-9q-9 1-10 1-2 0-22 0h-19l-2-1h-2v-2h-2v-1l1-1v-1h2v-2h24q21 0 40-1 18-1 23-3 5 0 7-1z" fill="#111" stroke="#111"/>
  <path d="m433 462v-1h1q2 0 2 1 0 2 1 2l-3 5q-2 5-6 11-4 7-5 12t-2 8v4h-6v-1l1-1v-4q0-3 2-7 0-4 7-16l7-12v-1t1 0z" fill="#1a1a1a" stroke="#1a1a1a"/>
  <path d="m360 632l1-1 5 3q6 2 8 6t3 8q1 3-1 8 0 5-1 6l-1 1t-2-2l-1-2v-1h1t0-1v-1t2-2q0-3-1-3h-1v-8l-1-1q-1-1-1-2t-4-3l-3-1-1-1q-2-1-2-1h-2t0-1 2-1z" fill="#181818" stroke="#181818"/>
  <path d="m485 680v2q-1 0-1 1v3h6v-1h1v-1h1v1q0 1 1 1v1q-1 0-1 1 0 0-3 2l-2 2h-2l-1 1-1 1h-5v-6l1-2q1-1 1-2l1-2 2-2q1-1 2 0z" fill="#111" stroke="#111"/>
  <path d="m647 465h2q1 1 17 1h16l-2 1q-2 1 0 2 0 1 1 1v1h-3q-4 1-16 0h-13v2q-1 0-1 1t1 1 1 1q0 2-2 0l-2-2-1-1v-1h-2l-1-1v-1t-1 0v-1l-1-2q0-2 2-3 2 0 2 1t1 1 2-1z" fill="#0e0e0e" stroke="#0e0e0e"/>
  <path d="m156 745l2-1 12 2q11 0 22 6 11 4 11 5h-3v2h1v1h1v1q0 1 1 2v1h-2v-2h-2l-1-1q-1-1-12-5-10-4-22-5l-11-1h-3v-2l1-1v-1h2l3-1z" fill="#151515" stroke="#151515"/>
  <path d="m281 1076l7-15h1q1 0 2 1 0 1 1 1h1l-5 12q-6 11-12 20t-10 11q-4 4-5 4h-1v1h-1v1h-1l-1 1-1 1h-5v-1h1v-1h2v-1h1v-1h1v-1h1v-1h1t2-2 8-9 13-21z" fill="#181818" stroke="#181818"/>
  <path d="m81 93h1v4h-1v1h2q-1 1-1 2v1l-1 1-1 1v4l6 1q6 0 8 1h2v3h-1v1h-1v1h-1v1h-1v1h-1t-2 2l-2 1v-1q-1 0-1-2 0-1-2 0h-1l1-1v-1h1v-1h1v-2h-2l-2 1h-1q-1 0-5 0l-3 2h-3v-6l1-1 1-1v-1l1-1q1-1 1-3l2-2v-1q0-1 1-2l1-2h3v-1z" fill="#131313" stroke="#131313"/>
  <path d="m702 750h14q15 0 18 2 4 0 6 1l2 1h2v1h1v1h1v3h-1l-1 1h-1l-2-1-2-1h-1q-2 0-4-1-3-1-16-1h-13l-1-1-1-1h1q2 0 2-2-1-2-2-2h-2z" fill="#1a1a1a" stroke="#1a1a1a"/>
  <path d="m222 523l1-1h2v1h1v2l3 10q3 10 3 11 0 0 1 0v1h-1q-2 0-2 1t-1 0h-1q0-1-1-1v-1q-1 0-3-6l-2-6v-3h-1v1h-1v1h-1v1l-3 3q-2 4-3 4v1h-4v-1h-1v-1l-1-1-1-1v-1t-2-3l-2-4v-1h2v-2h1v-1h1v1h1v1l1 1v2l1 1 1 1v2h1v-1h1v-2h1t3-2q2-2 3-4l1-2h1l1-1z" fill="#171717" stroke="#171717"/>
  <path d="m776 706l4 8q4 7 4 8-1 0 0 1v2q0 2-1 1 0-1-1-1h-1q-1 0-4-6l-3-6-1-1q-1-2-1-2v-1l2-2q1-1 2-1z" fill="#1b1b1b" stroke="#1b1b1b"/>
  <g fill="#171717" stroke="#171717">
   <path d="m512 129h1v1h4v3q0 1-4 2t-16 5l-12 4v-2q-1-1-1-1 0 1 0 0l-1-1h1v-1h2l1-1 13-4q12-4 12-5z"/>
   <path d="m43 784l2-2v1h1v2q0 1 0 2h1v2l3 1q2 0 4 1h3v3l-1 4-1 4q-1 5-2 6h-3v-2q0-2 1-6 1-3 0-3-1-1-5-3l-4-3v-1q0-1 0-3t1-3z"/>
   <path d="m389 182v-1l3 2q3 2 4 4 2 3 3 3t1 1 1 1q1 1 2 2 0 1 1 2 2 0 2 2v1q-1 1 0 1t1 1-1 1h-2q0-1-1-1v-1q-1 0-6-5l-6-5v-1h-1v-1h-1t-1-2l-1-1 1-1q1 0 1-2z"/>
  </g>
  <path d="m49 812l1-4h3l-1 4q0 5-1 10v5h-1v1l-1 2-1 1v-1h-1v-6q1-7 2-12z" fill="#191919" stroke="#191919"/>
  <path d="m71 840t1 1l4 5q4 5 4 5v1h2v-1q0-1 4-3l2-3 3 1q3 1 3 3 1 3 2 3h1l1 1 2 1 1 1v1h-2v1h1v2h-2l-1-1-5-2q-6-2-7 1t-2 4v1h-2v-1h-1v-2l-1-1q-1-1-2-3t-2-2-3-3l-2-3v-1q0-1-1-2l-1-2q-1 0-1-1v-1h1t2 0 1 0z" fill="#181818" stroke="#181818"/>
  <path d="m388 1084l8-16 1 2 1 2v-1h1v1h1t1-1h1l-8 17q-8 18-9 20-1 1-1 2v1l-1 1-1 1v1h-7v-1h1v-3l1-2 1-1v-1q0-2 2-4 0-3 8-18z" fill="#121212" stroke="#121212"/>
  <path d="m431 1022l10-12v2l1 1v2h2v1q-1 2-2 2t-3 4q-2 3-3 3t-16 21q-14 20-15 21l-1 1v1l-1 1-1 1-1 1h-2v-1h-1v1l-1-2-1-2v-1l1-1 1-1v-1l1-1q1-1 11-15 10-15 21-26z" fill="#141414" stroke="#141414"/>
  <g fill="#171717" stroke="#171717">
   <path d="m370 158h2q2 0 2 1-1 1-1 2h-1q0 1 0 1v1h-1v1h-1v1h-1v1h-1v3h1l1 1 8 4q9 6 10 6 0 0 0 1h1q0 1 1 1 0 0 1 0v1q0 1-2 1l-2 1h-1q0-1-4-3-5-4-14-7l-10-3v-1h-1v-2h-2v-1l1-1v-1h4q4 0 5-3 2-3 3-3 0 0 1 0v-1q1 0 1-1z"/>
   <path d="m504 223v-1h3l1 1 1 1 9 2q8 2 8 2v1q0 1-1 1l-1 1h-2q-3-1-4-1 0 0-4 0h-3l-1-1h-1v1l1 1v2q-1 1 0 1v1h-1v1h-1l-1 1h-1v-5l-1-2q-1-1-1-2v-5z"/>
  </g>
  <path d="m176 41v-1l8 2q9 2 9 2-1 1-1 2l-1 1h-1q-1-1-5-1l-4-2h-5q0-1 0-2 1 0 0-1z" fill="#202020" stroke="#202020"/>
  <path d="m174 478l2-8h2q2 0 2 1v1l-1 4q-1 3-1 6v8h4l1-1 1-1h1q1 0 3-2l2-1v2h-1v1h-1l1 1 1 1-5 3q-5 3-5 4h-1v1h-6v-1l-1-1v-8q0-3 2-10z" fill="#171717" stroke="#171717"/>
  <path d="m232 392l7-8h1v1h1q0 1 1 1h2l-9 10q-9 10-9 11h-1q-1 0-1 1h-2q-1 0-1-1v-1h-2l1-1v-1h1v-1h1v-1h1v-1h1q0-1 8-9z" fill="#151515" stroke="#151515"/>
  <path d="m160 856l-3 1q-3 1-1 1 1 0 1 1-1 1-1 1v1q-1-1-4-1-3-2-26 0h-26v-6h15q15 0 26 0t15 0q4 2 4 2z" fill="#141414" stroke="#141414"/>
  <path d="m493 398l3 1q4 1 8 5t22 38 22 44q2 10 3 13v3l1 6q2 5 2 5l-1 11q-1 11-3 16-2 6-8 12t-7 6l-1 1-1 1q-1 0-1 0v1t-1 0q0 1-9 4t-24 4q-14 1-28-3l-14-4h-3l-1-1h-1v-1h-1q-2 0-4-1-1-1-7-4t-12-10l-6-6v-1q-1-2-1-6-2-5 0-16l1-12v-4q1-3 2-8t5-12q4-6 6-11l3-5q1 0 8-12l7-13t8-10l7-10q1 0 1-1l6-5q5-5 5-6t7-4q6-3 6-4 0 0 1-1zm-34 127l-1 2v2q0 1 0 1h-1v6l1 7 2 2q3 3 6 2t4-1h6v2l1 1v1h-2l-1 1-1 1h-1l-2 1-1 1h-2q-2 0-5-1-2-1-4-2-2-2-5-6t-3-11v-10l7-13q7-13 10-15 3-4 6-4t5 4q2 3 1 9 0 7-1 6-2 0-3-5-1-4-3-4t-7 10q-5 11-6 13zm84 3v1h-1q-1-1-2-1t-1-3l-1-3-4 8q-6 8-6 10-1 2-2 2l-2 4q-2 5-2 6v2l-1 1-1 1v3h-1v1h-3v-8h1v-1q1 0 3-5l2-5v-1q0-1 1-2l1-1v-2l7-11q7-12 9-12 2-2 4 0 2 1 0 8 0 7-1 8z" fill="#fcfcfc" stroke="#fcfcfc"/>
  <path d="m582 634h16q13 0 18 2t5 3q1 0 1 1l6 8q6 9 6 9l3 9q3 9 1 10 0 2-1 3l-1 1v2h-1v14q1 14 3 20t3 9v3t1 1l-1 11q-1 11-1 14v2l-1 2v1l-3 7q-4 7-4 8v1l-4 5q-4 6-7 6-3 2-3 2h-10l-3 1h-3q0-1-14-2l-14-2h-2q-1-1-8-3l-8-2t-6-3l-7-3t-9-5l-8-4q-1-1-9-6l-8-6h-1q0-1-1-1-1-1 2-6l2-6q1 0 1-1t4-11l4-10v-4q0-3 1-5v-9q-1-8-2-12l-1-4v-2q0-2-2-6l-2-3v-1q0-2 3-4l2-2 7-4q6-5 10-7 4-3 4-3h2l8-5q8-5 16-8 9-3 10-4h2l2-1h2z" fill="#fdfdfd" stroke="#fdfdfd"/>
  <path d="m574 631h2v1l1 2v1h-1q-1 1-10 4-8 3-16 8l-8 5h-2v-1h1v-1h1-2v-3l1-1v-1h1v-1l14-6q13-6 15-6t3-1z" fill="#191919" stroke="#191919"/>
  <path d="m826 247v-1l1 13q1 13 0 23-1 11-1 12v2t-1 1-2-2l-1-3v-4q0-5 1-22v-16h1q2 0 2-1t0-2z" fill="#181818" stroke="#181818"/>
  <path d="m449 757v-1h7q7 0 12 0h4v1q0 1 0 1v1q0 1-11 1h-11t-1-1l-1-1t1-1z" fill="#1f1f1f" stroke="#1f1f1f"/>
  <path d="m725 563h2l-1 2q0 2 0 3v1q-1-1-2-1-2-2-11-2t-13 2l-3 2v-2h2v-1h1v-2q0-1 0-2l1-1 2-1q2-1 10 0t9 1 3 1z" fill="#171717" stroke="#171717"/>
  <path d="m154 101l2-1 11 2q11 0 11 1-1 1-4 1t-3 1 1 1h1v1h1v1h-2q-1 0-10-2-10-2-10-3t2-2z" fill="#181818" stroke="#181818"/>
  <path d="m644 727v-1h1l1 1v9q0 10 2 13t5 5q3 0 11 0t16-2 15-2h9q1 0 2 2 0 2-2 2h-1l1 1 1 1h-6q-6 0-15 2t-19 2l-10 1-1 8q0 8-1 9h-1q-1 0-2-2l-1-1v-4q1-4 1-7v-4h-1v-1h-1v-1h-1l-1-1q-1-1-1-1h-1q0 1-1 2v1q-1 0-2 0l-1 1v-1h-1v-1l1-2v-2q0-3 1-10 1-8 0-12v-4h1q2 0 2-1z" fill="#111" stroke="#111"/>
  <path d="m306 290h3l-5 17q-6 17-6 19v1l-1 1v1h-1v-1l-1-2-1-2v-2q0-3 5-17l4-14h1q0-1 2-1z" fill="#181818" stroke="#181818"/>
  <path d="m714 828h2q2 1 2 2v1q0 1-2 2-1 1-14 8l-12 6v-1t-2-2l-1-1v-1h2l1-1 1-1 11-6q11-6 11-6 1 0 1 0z" fill="#151515" stroke="#151515"/>
  <path d="m541 134h1v1q0 1-2 5 0 5-4 15l-4 10q-1-1-2-1t-1-2v-2l4-14q3-13 4-14v-1l1 1t1-2q1-1 1 2 0 2 1 2z" fill="#171717" stroke="#171717"/>
  <path d="m150 38l12 1q11 1 12 1h2v1q1 1 0 1 0 1 0 2h-6l-4-1q-3-1-10 0h-8l1-2q1-2 1-3z" fill="#141414" stroke="#141414"/>
  <path d="m490 753h1v1q-1 1 0 2-1 0-6 1l-5 1-4 1h-4v-1t0-1v-1l8-1q8-1 10-2z" fill="#262626" stroke="#262626"/>
  <path d="m676 700h1l2 1 2 1h-6l2 2q2 0 5 0 4 0 4 1t-10 3-17 6l-7 4t0 1h-1q-1 0-1-1-1 0-1-3v-3h1v-1h1v-1h1l8-4q7-4 10-4 4-2 6-2z" fill="#121212" stroke="#121212"/>
  <path d="m509 754v-1l8 6q8 5 9 6v4q-1-1-6-3-4-2-6-4l-3-3v-1q0-2-1-2t-1-2z" fill="#242424" stroke="#242424"/>
  <path d="m150 716h2t0 1q-1 1 0 1h1l-1 2q-2 3-3 3t-6 6q-5 7-6 7t-1 1h-1q0-1-1-2l-2-1q0-1 8-10l8-8h2z" fill="#161616" stroke="#161616"/>
  <path d="m820 136l3 10q3 10 3 12v1t-1 1q0 2-1 2h-1q-1-1-3-9l-2-8-1-2v-2h1q1 0 1-3 1-2 1-2z" fill="#1a1a1a" stroke="#1a1a1a"/>
  <path d="m831 210v-1 2q1 2 0 4v2h-1q-1-1-4-3l-2-2h-1v-1h-1v-1h-2v2l1 1 1 1v2h1v1q-1 0-1 3v2h-1v1h-1l-1-1-1-2v-4h-1v-1h-1v-5q0-4 4-4 3 0 7 3t4 1z" fill="#202020" stroke="#202020"/>
  <path d="m248 930l11-7v1h1v-1l1 1 1 1v1t1 0v1q-1 0-1 1l-8 5q-7 5-14 8-6 3-7 4l-1 1h-2l-2-1-2-1h-3l1-1 1-1 1-1 2-1h1l1-1q2-1 4-1t14-8z" fill="#141414" stroke="#141414"/>
  <path d="m510 233v7q0 8-2 10-1 2-1 3h-1q0 1 0 1-1 0-1 1h-1q-1-1-2-2l-1-1t1-1q0-1 2-7l2-7h1l1-1 1-2q1-1 1-1z" fill="#131313" stroke="#131313"/>
  <path d="m740 577h1l1 4q2 4 1 11t-7 18q-8 12-8 12t-1-2q0-1-1-1t-1-1v-1h1v-2l1-1q1-1 3-4 2-4 5-11t3-14l-1-7h1q2 0 2 0t0-1z" fill="#141414" stroke="#141414"/>
  <path d="m552 619h2v2l1 1v1q-1 0-1 1 0 0-1 0v1q-1 0-9 5l-9 6h-1t-2-1l-2-1q0-1 1-1h1q0-1 0-1 1 0 1-1l9-6q9-5 10-6z" fill="#161616" stroke="#161616"/>
  <path d="m299 572l11 2q10 2 17 6t7 4 1 0v1l-1 1q-2 0-1 1t1 1h-2t-6-4q-7-4-16-5l-10-1-1-1h-1v-1q0-1-2-1-1-1 0-1l2-1q1-1 1-1z" fill="#151515" stroke="#151515"/>
  <path d="m260 559v-1l12 5q12 5 12 5 0 1 1 2v2q-1 1-1 1l-1-1h-2v-1h-1v-1h-1q-1 0-7-4l-7-2-1-1q-2-1-2-1h-1q-1-1-1-1v-1t0-1z" fill="#1d1d1d" stroke="#1d1d1d"/>
  <path d="m407 730h1l6 9q5 9 6 10 1 0 2 2 2 1 6 3 4 0 6 1h3l1 2q0 2-2 2-1 1-1 1h-1t-7-2-9-1l-3 1v1l-1 1v1h-2v-1l1-2v-2q1-1 2-3t-4-12l-6-10h1q0-1 1-1z" fill="#1c1c1c" stroke="#1c1c1c"/>
  <path d="m248 597l12-8v1q0 1-1 1t-1 1v1h1v1h2l-7 5q-8 5-8 6t-5 4-5 4h-1v-1q-1 0-1-1t-1-1l-1-1v-1h1v-1h1v-1h1l1-1q1-1 12-8z" fill="#181818" stroke="#181818"/>
  <path d="m478 591h20q19 1 25 2t7 2v1q0 1-1 1t-1 1q0 2 1 2l1-1q1 0 1 1v2h-1q-2 0-6-2-5-2-18-2t-14 2l-2 2t-1 0l-1 1h-1v-1q0-2-1-2h-1q1-1 1-2t-4-1h-4v-1l1-2v-1h-1l-2-1h2v-1z" fill="#0e0e0e" stroke="#0e0e0e"/>
  <path d="m74 288l1-2h5l1 1 1 1t-4 1l-3 1-1 1q0 2-1 2h-1v-1q0-1 2-4z" fill="#181818" stroke="#181818"/>
  <path d="m403 714l2 6q1 5 2 7l1 2v1h-1q-1 0-1 1h-1v-1q-1 0-2-4l-1-5-1-3q-1-2-1-4v-1l1-1q1 0 1 1t1 1z" fill="#272727" stroke="#272727"/>
  <path d="m241 761h1v1h1l1 1 1 1h1v1l4 3q4 4 5 5 0 1 2 1 1-1 5-6 4-6 4-6l1-1 1-1h2l1 2 1 2 3 7q3 7 3 7h1l3 5q2 5 7 12t5 27q0 19-1 22t-1 8v4h-1v1h-1v2h-1v-1h-1v-2h-1v-1h-1v-1h-1t-1-2l-1-2h-1v-1h-1v-1q-1 0-6-4t-9-8l-5-5v-1l-1-1v-1l-1-1-1-1v-2q0-1-14-22-13-22-14-22t-1-1q-1-1-2-1l-1-1v-1q0-1-2-2-1-2-2-4 0-2 2-4l2-3v-1l4-3q3-3 6-1 4 2 5 3z" fill="#fafafa" stroke="#fafafa"/>
  <path d="m796 364h2l1 1 1 1 1 2q1 2 1 4v1l1 1 1 1v1l1-2 1-1v-3l1-1v-1q1 0 1 0v-1l2-1q1 0 1 2 1 1 1 1l-2 7q-2 8-3 10l-1 1v2h-1l-1-1h-1q-1 0-2-2l-1-3v2l-1 1q-1 1-2 4l-1 2q-1 0-2 0l-2-1v-4l1-1q1-2 1-12l2-10z" fill="#101010" stroke="#101010"/>
  <path d="m212 417v-1l2 1q2 1 2 0t1-1h1l-8 13q-9 13-11 15t-3 3v-1q0-2-1-2 0 0-1 1l-2 2v-1h-1v-1l1-1v-1h1v-1h1v-1q0-1 5-7l5-5v-2h1v-1h1v-1h-1v-1h-1q-2 0-4-2h-3v-1h2v-4h1l2 1h1q1 0 3 1h4q0-1 0-1h1q1 0 1-1z" fill="#161616" stroke="#161616"/>
  <path d="m820 338h1l-5 15q-4 15-4 16 0 0-1-1 0-2-1-2t-1 1-1 1h-1v-1q1-1 5-17l5-15v1q1 2 1 0t1 0q0 2 1 2z" fill="#1c1c1c" stroke="#1c1c1c"/>
  <path d="m514 674v-1l2 3q2 4 2 6v2t-2 1h-1v-1q-1-1-1-1v-1q0-2-1-3l-1-1v-2h1q1 0 1-2z" fill="#1e1e1e" stroke="#1e1e1e"/>
  <path d="m726 569l3 1q3 2 4 3t1 2l1 1q1 2 1 2h1l1 7q0 7-3 14t-5 11q-2 3-3 4l-1 1v1q-1 0-1 1l-4 6q-3 6-5 13-2 6-2 10v6q0 3-8 4h-7v1h-7q-5 1-8 1-4 0-5-3l-1-3q0-1-1-1v-1q-1-2-3-10l-2-9v-2q0-2 0-11v-13l1-3q1-2 4-10l3-7h1v-1h1v-1h1v-1h2l2 4q2 4 5 4h4v-2l1-9v-9q1 0 1 0v-1l7-2q7-1 13 0t7 1 1 1z" fill="#fbfbfb" stroke="#fbfbfb"/>
  <path d="m167 698h1l4 2q4 2 4 3h1l1 1q1 0 1 1h1v1l8 6q6 5 7 6 0 1 1 1l1 1h1v1h1v1h1v1h1l7 6q7 7 8 7l1 1q1 1 1 1v1h1v1h1l4 4q4 5 3 8t-2 4l-1 1v1h-1v1h-1v1t-1 1l-1 1v1t-1 1v1h-1q-2-1-6-3l-5-4h-2l-1-1h-1q0-1-11-5-11-6-22-6l-12-2-2 1-3 1h-2v1l-1 1v2h3l11 1q12 1 22 5 11 4 12 5l1 1h1q1 0 2 1 0 1 0 1h2l6 6q7 6 7 7h1v1h1v1h1v1h1v1q0 1 1 1t1 1l1 1 13 21q13 21 14 22t1 2v1h1l1 2q0 1 1 2l1 1v1l5 6q5 6 9 6 3 0 3 1 1 0 1 0v1h1v1h1v1h2v1h1v1h1v1l3 4q3 4 3 13 0 8-4 14-2 7-3 8l-1 1v2l-6 10q-7 9-8 11-2 2-2 2h-1v1h-1v1h-1v1l-11 7q-12 8-14 8t-4 1l-1 1h-1l-2 1-1 1h-3q-2 0-9 2t-19 3q-11 1-16-1l-5-2h-3t-6-4q-5-2-12-8l-6-6q0-1-4-7t-6-14l-1-8v-1q-1-2 1-9t4-11l3-3 5-1q4 0 10 1 5 1 6 2h2v1h2v1h1v1l4 3q3 4 6 8t5 11q2 8 2 8v1l1 2q1 1 1 2h1v1h1v1l1 1v1h1l1 1h3v-5h-1v-1h-1v-1l-1-1q-1-1-1-2h-1v-1q-1-1-1-5t-1-12q-1-7 2-14l2-7q1 0 3-5 4-4 8-8l5-5h1q0-1 0-1h1q1 0 5-2h3l2-1 2-1h1v-2l-1-1-1-1h-7l-2 1-2 1h-3q-2 2-2 2t-1 0v1l-5 4q-4 4-6 7t-2 3v1l-1 1-1 1v2q-2 2-2 2v2t-1 2l-1 1v3h-1v1h-1v-2l-1-1-1-1v-1q0-1-3-4-2-4-11-8l-8-4t-4-2q-4 0-15 0t-26 0h-15l-2-1-1-1h-1q-1 0-2-3 0-2-3-3l-3-1-2 3q-4 2-4 3v1h-2v-1t-4-5l-4-5v-1t-1 0q-1-1-4-8l-3-7h-1v-1h-2v1h-1l-2 3q-3 2-3 3h-1v1h-1l-1 1h-1v-11q1-5 1-10l1-4q1-1 2-6l1-4 1-4v-3h-3q-2-1-4-1l-3-1v-2h1v-2h1q1-1 9-8l7-8h1q1-1 2-1 1-2 11-6 9-5 22-8l12-4h1q2 0 5-2 3 0 9-6l7-5h1q0-1 1-1t6-7q5-6 6-6t3-3l1-2q1 0 1-1 1-1 6-10 6-9 7-9z" fill="#fcfcfc" stroke="#fcfcfc"/>
  <path d="m542 775l1-1 7 3q6 3 6 3h-1q-1 0 0 1 1 0 1 1v1h-1q-1-1-2-1h-1l-2-1q-2-1-5-2l-3-1v-1q0-1 0-2z" fill="#2c2c2c" stroke="#2c2c2c"/>
  <path d="m517 662l1 1q0 1 0 1 0 1 1 2l-2 2q-3 2-3 4v2q0 2-1 2h-2v-1q-1 0-2-1-2 0-5 3-2 4-3 4-1 1-4 4l-3 3h-2v-4h-1v1h-1v1h-5l1-1v-1h2l1-1 1-1h1l1-1q1-1 2-1 2-2 8-9l6-7h1l1 1h1v2h1l1-1h1v-2h1v-1l1-1t1 0z" fill="#131313" stroke="#131313"/>
  <path d="m199 638l9-8h2v4h-2v2l-8 8q-9 8-10 9v-1q0-1 1-1 0-1 0-1 0-2-1-1 0 1-1 1h-1v-1h1v-1h-1v-1h1v-1h1t9-8z" fill="#141414" stroke="#141414"/>
  <path d="m285 572v-2l3 1q3 1 6 1t4 0h1v1q0 1-2 1t-1 1q2 0 2 1v1h1l1 1t-7 2-19 8l-13 6h-2v-1h-1v-2h1v-1h1v-2h1l1-1 1-1h1l1-1q1-1 9-5l8-4h2v-1h1v-1h-1v-1t1-1z" fill="#151515" stroke="#151515"/>
  <path d="m297 220l1-4v2h1q1 0 2-1h1l-1 3q-1 2-1 4v1q-1 1-1 1h-1t-2 0h-1v-2q1-1 2-4z" fill="#242424" stroke="#242424"/>
  <path d="m605 789l3-1h11q1 0 0 2-1 3 0 3l2 6q1 6 10 19 9 12 9 13 2 1 2 1v1l-1 1q-1 2-1 2h-2t-3-5l-3-4h-1v-1h-1v-1l-1-1-1-1v-1h-1v-1h-1v5l1 22q1 22-3 40-4 19-5 24t-2 6l-1 2v2h-2l-1 1-1 1h-3l-1 1v-3h-1v-2h1v-2h1v-1q1 0 4-13 3-12 5-30t2-33q-2-15-6-32t-9-17h-5q0-1 1-2l1-1h3z" fill="#0f0f0f" stroke="#0f0f0f"/>
  <path d="m193 172v-2h5l1 1 1 1h1v1h1l5 5q5 4 5 5h1q0 1 1 1h1v1q0 1-2 1l-2 1h-1q0-1-6-5l-5-6h-1l-1-1-1-1h-2v-1l-1-1z" fill="#1a1a1a" stroke="#1a1a1a"/>
  <path d="m191 908h1q0 1 1 2l1 1v1h1v1h1v5h-3l-1-1h-1v-1l-1-1v-1h-1v-1h-1q0-1-1-2l-1-2 2-1q2 0 3 0z" fill="#1f1f1f" stroke="#1f1f1f"/>
  <path d="m623 298v-1l6 5q5 6 6 6v2h-1v1h-1v1h-3t-2-3l-2-3t-3-2l-2-3 1-1t1-2z" fill="#151515" stroke="#151515"/>
  <path d="m61 825v-1h2v1h1l3 7q3 7 4 7t1 1v1h-2q-1 1-2 1t-1-1q-1 0-3-3l-2-4h-2l-4 2q-3 4-4 4h-1v2h-3v-2l-1-5v-5h1v1l1-1 1-2v-1h1v6h1l1-1h1v-1h1q0-1 3-3l2-3h1z" fill="#1a1a1a" stroke="#1a1a1a"/>
  <path d="m405 142l23 1q22 1 23 0h1l2 2q2 2 1 3-2 0-2 1h-7q-7-1-21-1t-15 0h-1t-3-1q-3 0-2-2v-2t1-1z" fill="#141414" stroke="#141414"/>
  <path d="m700 698h1l1 2q0 3 0 4h-2q-3 0-8 1h-6q0-1-4-1-3 0-5 0l-2-2h6l-2-1-2-1 11-1q12-1 12-1z" fill="#121212" stroke="#121212"/>
  <path d="m511 1055l9-15h3l1 1 1 1-7 14q-8 14-8 16 0 1 3 2t3 4q-2 3-4 8-2 4-3 5l-1 1v2h-1v1h-1v1h-1v1h-1v1h-1v-1h-1v-7l1-1q1-1 1-3 1-2-2-3-2-1-2-4t1-6 10-18z" fill="#0f0f0f" stroke="#0f0f0f"/>
  <path d="m671 510l1-1 8 15q8 14 8 16 2 3 2 4v2q-1 0-2-1l-2-1v1q-1 1-1 1-1 0-1-2 0-1-7-14l-7-13v-1q0-1-1-2l-1-2h2v-1l1-1z" fill="#181818" stroke="#181818"/>
  <path d="m598 605h2q0 1-6 1l-5 1v1l1 1v-1h2q1 0 1 1-1 1-1 1v1q0 1-4 1h-4t3-1-1-1q-3 0-3-1l-1-1h-2l2-1 2-1h6q6 0 8-1z" fill="#191919" stroke="#191919"/>
  <path d="m510 759h1l3 3q2 2 6 4 5 2 6 3l8 4q7 5 8 5l3 1q3 1 5 2l2 1h3t1 1l4 1q3 2 4 2h2l2 1 3 1h2l9 2q8 2 13 2h10q5 0 9 17t6 32q0 15-2 33t-5 30q-3 13-4 13v1h-1v2h-1v1h-1q-2 1-10 3l-9 4h-2q-2 0-13 3l-10 3h-2q-2 0-14 3-11 3-24 3l-14 1h-1q-1 1-31 1-29 0-44-2-16 0-38-4l-23-4h-1q-1 0-4-1-4-1-19-5l-15-5q0-1-11-6t-19-12l-9-6v-1q-1 0-3-2t2-14 6-22q2-9 3-30l1-22h14q9 0 16-2 6 0 6-1l11-3q11-4 11-4h2l2-1 1-1h1q1 0 4-2 3 0 8-4 6-4 13-8l7-5q1-1 8-7l7-7q1 0 1-1v-1l3-1q3-2 10 0t7 2h27q11 0 11-1h4l4-1 5-1q5-1 6-1l7-1q8-1 8 0t2 2 2 2z" fill="#fefefe" stroke="#fefefe"/>
  <path d="m166 43l4 1h11l4 2q4 0 5 1h1l9 5q10 4 10 5h1q0 1 1 1h1q1 1 1 1v1h1l8 7q8 7 9 7h1q1 1 1 1v1h1l7 6q6 4 6 5h1v1q1 0 1 0v1h1v1h1v2l7 7q6 7 7 7t3 2q1 2 2 3v1h2l1 2q2 2 2 3h1v1l12 12q13 13 16 18 4 4 4 5h1v1h1v1h1v1l1 1 1 1v1h1l1 1q0 1 1 1v1h1l4 6q4 6-1 10t-5 4v1h-1v1l-6 8q-5 7-7 10-2 4-2 6v2l-1 1-1 1v4l-1 4q-1 3-2 4v2l-2 6q-1 7-2 8v2l-3 8q-4 7-4 10v4h1t0-1q1 0 5-10l4-10t3-9l2-8q1 0 1 0v-2q0-2 1-4v-2q1 0 1 0v-3l1-1 1-2v-2q0-2 2-4 0-2 6-10l6-8h1v-1h1l1-1q2-2 2-3t9-6q8-5 11-5t9-1h6v1l10 3q9 3 14 7 4 2 4 3h1l1 1q1 2 1 2h1v1h1v1l6 5q5 5 6 5v1q0 1 1 1 0 1 1 2l1 1 4 8q4 8 5 9l1 1v2q2 2 2 3l2 7q2 7 3 9l1 1v2l1 1 1 1v1h4v-4h-1v-1h-1v-2l-1-1q-1-2-3-8l-2-6v-2q0-1-7-14t-8-13h-1v-1q0-2-2-2-1-1-1-2-1-1-2-2-1 0-1-1t-1-1-3-3q-1-2-3-3l-2-1v-1q-1 0-1 0 0-1-1-1h-1q0-1 0-1-1 0-10-6l-8-4-1-1h-1v-3h1v-1h1v-1h1v-1h1v-1t1 0v-1l6-4q6-5 13-7 8-2 12-2h6q1 0 15 0t21 1h7l15-2q14-1 15-2t1-1h1l12-4q12-4 16-5t4-2h1v-1l7-4q7-4 8-4h1v-1h1v-1h2v-1h1v-1h2v1l-1 2-1 2v2q0 2-1 3v2q-1 1-4 14l-4 14q-1 0-3 4l-2 4-3 5q-3 5 2 8 4 3 5 5 1 3 2 3t2 2q0 2 1 3l1 1 3 10q3 10 4 11v1l1 7q2 7 2 10v4l1 1v1h-2v-1h-1v-1h-1l-1-1-1-1h-1t-6-4l-6-4t-8-2l-9-2-1-1-1-1h-3v6q0 1 1 2l1 2v5l-2 7q-2 6-2 7-1 1-1 1-1 0-5 4l-4 4h-1l-1 1-1 1h-2l-1 1h-2v-3l1-2q1-1 1-4v-3h-2l-1 1h-1v1l-1 1-1 1v3l-1 1-1 1v2h-1v1h-1v5h2l1 1 1 1h2l8-4q8-4 11-7t4-3v-1q1 0 1-1 0 0 1 0v-1q0-1 1-3 2-2 2-9v-10l-1-1v-1h1l1 1h3q4 0 4 0 1 0 4 1h2l7 5q7 4 8 5h1l2 2q1 1 2 2l1 1h1v1h1v1h4v-2l-1-3v-1q0-2-2-10 0-8-2-13l-2-5v-2q0-1-3-8l-3-8v-2h-1v-1l-1-1v-1l-1-1v-1h2v1l1 1v1h2l2 1 1 1h2l1 1v1h2t1 1l1 1 6 4q5 4 6 5h1v1h1v1h1v1h1l7 7q8 7 9 7t2 1v1h1v1h1v1q1 2 4 3 2 1 4 2l3 1h-1v1l-1 1h-2v1q-1 0-2 1-2 2-9 8l-6 7h-1v1h-1v2l-1 1-1 1v2h1v1h1v1h3v-1l1-1v-1l1-1 1-1 7-7q7-8 10-10t3-2l10-6q9-6 12-6 4 0 9 5 5 6 6 6v1h1v1l1 1 1 1v1h1l5 11q6 11 7 19t1 22q0 13-3 18-2 4-2 5h-1v2l-1 1-1 1v1h-1v1h-1v1l-1-2-1-1v-2l-1-1q-1-1-2-4l-1-2h-1v-1h-1v-2h-1v-1q-1 0-6-6l-6-5h-1q0-1-2-3l-3-2h-1l-1-1-1-1h-2v-2h2l1-1 1-1h4q3-2 4-2h6v-2l-1-1v-1h-5q-4 0-8 0-3 2-16 8l-13 6h-1v1h-2q0 1 0 1-1 0-12 10-11 8-23 23-13 14-22 29-9 14-14 27l-5 12h-1q-1-1-3-1-2-1-2-2t-6-1l-5-1v1h-1v1h-2v1h-1q-1 1-5 3t-10 7l-6 6v1h-1v1h-1v1l-1 1v1l-6 7q-6 7-6 8h-1v1l-1 1-1 1v1t-1 1v1l-6 9q-5 10-6 11l-1 1v2h-1v1h-1v2l-7 12q-7 12-7 16-2 4-2 7v4l-1 1v1l-1 12q0 13 0 17 2 4 2 5 0 0 0 1h1l1 2q0 2 1 3l1 1v1l6 5q5 5 12 9 6 4 8 4h1l1 1h1q0 1 1 1h2l10 3q10 3 17 5t21 1q13-1 24-5 10-4 10-4t1 0h1t0-1q1-1 1-1h1l1-1q1-1 7-6 6-6 10-14 2-8 3-19v-12q-1-2-1-5l-1-3v-2l-1-2v-3q0-3-1-5v-3l7-1q6-2 8-2h1l1-1 1-1h2v-1h1l2-1h4v-1l10-7q10-8 18-19t8-11v-1l1-1 1-1v-1l1-1 1-1v-1l1 1 1 2v2l8 13q8 13 8 14h1v1q1 0 1 0v1q0 1 0 1h1l10 17q11 17 11 17v1l1 1 1 1v1l1 1 1 1 1 2q1 1 1 2v1l7 13q7 13 7 14 0 2 1 2l2 8q3 8 3 10v3l1 1v7l-1 5v-1h-1v-1h-1v-2l-1-1-1-1v-1t-5-5l-5-4v-1h-1v-1h-1l-3-1h-3v3l-1 4v5l-4 14q-3 14-5 19-2 4-3 6l-1 1v1l-1 1-1 1v2l-3 4q-3 4-3 4v1h-1v1h-1v1h-1v1h-1v1h-1v1h-2v-12q-1-13-1-16l-2-3v-2h-1v-1h-1l-2-1h-1v3q1 2 1 2 0 1-16 2l-16 1h-2q-2 1-8 1h-6l-2 1-2 1h-2q-1 0-11 4l-10 4-1 1-1 1h-1v1h-2q-1 1-10 6l-9 6q-1 0-1 1 0 0-1 0v1q-1 0-1 1l-5 5q-5 5-9 12t-5 8l-1 1v1h-1v1h-1v2l-6 7q-6 7-8 9-1 0-2 1l-1 1h-1l-1 1-1 1h-2v1l-1 1h-1v-2l1-2v-1h1v-1q0-2 2-4 0-2 1-7l1-5-1-1v-1h-2v1h-1v1h-1v1h-1v1l-4 3q-4 3-4 3h-1q-1 0-12 5l-11 5h-1q-1 0-7 2l-7 2h-3l-1 1h-1v-2h1v-1h1v-2l1-1q1-1 1-3l1-1h1q0-1 0-1 0-1 1-2l1-1v-6h-1l-1 1h-2v1h-1v1h-1l-1 1q-1 1-11 6l-11 5v1h-1v1h-7v-1l1-1v-3l1-2q1-2 1-3v-4q0-2 0-6v-4h-6q-2 0-4 1t-12 2l-10 1v-1l1-1q1-1 1-6 2-5 1-8-1-4-3-8t-8-6l-5-3q0-1-4-3t-6-9l-2-8v-1q-1-2-3-8-2-5-6-11l-5-6v-1q-1 0-1 0t-7-4-17-6l-11-2q-1 0-1 0v1h-4q-3-1-6-2l-3-1q-1-1-1-2 0 0-12-5l-12-5q0-1-5-2-4-2-10 0t-9-3l-3-6v-1q-1 0-1 0 0-1-3-11l-3-10v-2h-1v-1h-2l-1 1-1 1h-1l-1 2q-1 2-3 4-3 2-3 2h-1v2h-1v1h-1v-2l-1-1-1-1v-2l-1-1v-2q-1-1-2-6t-2-13 1-17l2-8v-3h-1v-1h-6l-1 1-1 1-3 1q-2 2-3 2v1h-1v1l-2 1q-2 2-3 2h-1l-1 1-1 1h-4v-8q0-3 1-6l1-4t8-12l8-13q1-1 3-3t11-15l8-13t3-4l3-4q1 0 1-1h1q0-1 9-11l9-10q0-1 8-12 8-12 9-18l1-5t1-5l1-6v-5h-1v-1h-4v1h-1v5l-1 5v5l-3 8q-3 8-7 14t-4 6h-1v2h-1v1h-1v1l-1 1v1l-7 8q-8 8-8 9h-1v1h-1v1h-1v1h-1v1l-1 1-3 4q-4 4-4 5v1h-1q-1 1-1 2 0 0-1 0v1h-3q-2-1-3-1h-1l-2-1h-1q0-1-3-1l-3-2h-1q-1 0-6-3l-6-2q0-1-8-4l-9-4q0-1-6-5t-11-9l-5-5v-1q-1-1-2-3t-10-13l-9-12v-1t-1 0q-1-1-9-13l-8-12v-1t-4-6-7-13-5-12l-2-5-1-1-1-1-1-1-1-1h-5l-1 2q0 1-1 2v2q-1 0-1 0v2l-1 2-1 1v-1h-1v-2l-1-1v-3q0-2-3-6l-2-5v-1l-1-2v-2q0-1-3-16t-1-36l2-21v-1h-1q-1 0-5 0l-4 1v-4q0-4 1-7v-4q1-2 5-16l4-13t3-7l3-6v-1l1-1q1-2 5-10 5-7 10-10l5-3 2-1q2-2 2-2h1v-1h1v-1h1v-1h1v-1h1v-3h-2q-2-1-8-1l-6-1v-4l1-1 1-1v-1q0-1 1-2l1-1v-2l1-1q1-1 8-10l8-10v-1h1v-1l11-9q11-9 11-10l8-4q9-5 12-5t4-1h8q7-1 10 0zm-12 58l2-1 11 2q11 0 11 1l11 3q11 4 20 13t19 25q10 17 14 27t6 28 1 32-3 29q-4 16-6 28-4 12-4 16 0 3 0 10v11h-2l-2-1h-2v-2l-1-2-1-1q0-1-1-1t-3-21-2-25q0-5-4-12l-4-7v-2h-1v-1h-1v-1l-1-1h-1v-1h-1v-1h-1t-6-8l-6-6-1-1h-1v-2h-1v-1h-1v-4h4l2 1 1 1h2l6 7q7 6 9 9t2 4v1l1 1 1 1v2q2 2 2 3v1l1 1 1 1v1l1 1 1 1h2v-7l1-4q1-4 1-7 0-4 0-13-2-9-4-17-2-7-8-14l-4-7h-1v-1h-1v-1l-1-1v-1h-1q0-1-6-5l-5-6h-1l-1-1-1-1h-2v-1l-1-1v-2h5l1 1 1 1h1v1h1l5 5q5 4 5 5h2v1h1v1h1v1l1 1 1 1 4 6q5 6 5 6h1v2l1 1 1 1v2h1v1h1v-15q0-15-2-22t-6-16-12-19q-7-11-21-18l-14-7-1-1-1-1h-3q-1 0-10-2-10-2-10-3t2-2zm192 129h6q4 2 8 3t4 2h1l5 3q6 2 6 3t7 5q7 5 16 16 9 10 19 26t16 31 10 31q2 15 2 28 0 14-4 26-4 11-6 16t-3 6l-1 2-7 8q-7 8-13 15-6 6-6 6v1h-1l-1 1-1 1h-2l-1 1v1h-2l-2 1-1 1h-6q-6 0-13 0t-18-2q-10-2-17-7t-17-15q-10-12-17-23t-13-28q-4-17-5-31-1-13 1-20l2-7v-4l1-1 1-2v-2q0-3 5-17l4-14v-1l1-1v-2l1-1 1-2v-1q0-1 2-3 0-2 4-8l4-5q0-1 0-1h1t1-1v-1h1v-1h1v-1l8-6q7-6 8-7l8-3q7-4 10-4h13-1v-1h-1v-1h-2l-2-1-2-1h-1q-2 0-4-2h-3l-1-1q-2-1-4-1-1 0-1-2-1-1 1-2zm-5 314v1l15 15q15 16 23 20 8 6 18 8 10 4 21 4 11 2 26 1t22-1h7l3-1h22q19 1 25 2t7 2h6q5-1 6-2 2-1 2-2h1v-1h1v-1h1v-1h4v2l-1 1v2h-1v1h-1v1h-1v1h-1l-1 1q-1 1-5 3-3 2-6 2h-4q-2 0-6-2-5-2-18-2t-14 2l-2 2-3 14q-3 13-4 17-2 5-3 6 0 1-6 3-7 2-16 1-10-1-12-1h-3v-1h-2l-1-1h-2q-1 0-3-1t-17-7q-16-6-19-10-3-5-14-17-11-13-13-16-3-4-4-4t-2-3q0-2-3-4-2-2-13-13l-10-11v-1q-1-1-2-3-2-2-8-9l-6-8v-3l-1-1-1-1v-1h-1v1h-1v1l-1 1-1 1v1t-1 4v5h-2l-2-1h-1v-9l3-5q3-4 12-10t10-6 1 2-5 5q-5 4-3 10t6 11q4 6 5 6zm125 109l2-1h2q2-1 3 1t-1 3q-2 2-14 2-13 0-18-2t-6-4q0-1 0-3 1-1 7 1t15 3 10 0z" fill="#fcfcfc" stroke="#fcfcfc"/>
  <path d="m396 773l1 1q1 0 1 0v1l-7 5q-7 4-13 8-5 4-8 4-3 2-4 2h-1l-1 1-2 1h-2v-2h-2v-1h1l1-1h3l1-1 1-1h1q1 0 15-8l14-8h1t0-1z" fill="#202020" stroke="#202020"/>
  <path d="m626 430l5 12q5 11 9 15 3 5 6 6 2 1 2 2h-1q-1 1-2 1t-1-1-2-1q-2 1-2 3l1 2h-1q0-1-8-14l-8-13v-2l-1-2-1-1v1l-1 1-1 1v1l-1 1-1 1v-1h-1v1h-1v-1l-1-3v-4h1v-1q0-1 1-2 1 0 1 0v-1h1l1-1 1-1q1-1 1 0t2 1 2 0z" fill="#121212" stroke="#121212"/>
  <path d="m218 842h4l1 1 1 1v2h-1l-2 1-2 1-4 1q-4 1-5 2h-1v-1q1-1 1-2 0-2-2-2h-1t-1 1h-1v-1q0-1 3-2h3l2-1 2-1h3z" fill="#181818" stroke="#181818"/>
  <path d="m144 927l2-1 6 6q7 6 12 8 6 4 6 4h1v2h-2v1h-1v2q-1-1-3-1l-2-2h-1q-1 0-2-1-2-1-8-5l-6-5v-1l-1-1-1-1t-1-1q-1 0-1-1v-2t2-1z" fill="#151515" stroke="#151515"/>
  <path d="m50 188h1v2q-1 3-1 7v4l4-1q4 0 5 0h1v1l-2 21q-2 21 1 36t3 16v2l1 2v2h-1l-1 1-1 1h-1l-1-1v-2l-1-1-1-2v-2q0-2-2-12t-3-22q-1-11 1-22l1-12h-1q-1 0-4 0h-4v-15h1l1-1h2l1-1q1-1 1-1z" fill="#111" stroke="#111"/>
  <path d="m441 446l6-9h1q1 0 2 1 0 0 1 0t1 1l-7 13q-7 12-8 12t-1-2q0-1-1 0t-2 1h-1v-2h1v-1h1v-2l1-1q1-1 6-11z" fill="#151515" stroke="#151515"/>
  <path d="m300 578l10 1q9 1 16 5 6 4 6 4h1v1q0 1 1 1t5 8q3 9 4 11l1 2v2l1 3q1 2 1 13v11h-2q-1 0-6-1h-4q0-1-11-1h-12t-7-1h-8l-6 2q-7 3-10 5-4 2-4 2v1h-1v1h-1v1l-1 1q-1 2-1 3v1l-3 6q-3 5-3 10-2 6-2 9v3l-1 1v1l-1 14q-2 14-1 18v3l1 7q2 7 2 8v2l1 8q1 7-1 11t-3 5l-1 1v1h-1v1h-1v1h-3q-1 0-4-3l-4-3h-1v-1h-1q0-1-1-1t-5-4q-3-3-12-11l-8-8v-1q0-1-7-7l-8-6v-1t-6-4q-4-5-13-10l-8-6t-4-3l-4-3t-5-2l-5-2-1-1-2-1h1v-1h1v-1h1v-1h1v-1h1t1-2 4-4l3-2h1t10-11l10-10q1-1 10-9l8-8h1q1 0 13-12l13-11h1q0-1 5-4t5-4 8-6l7-5 13-6q12-6 19-8t7-2z" fill="#fcfcfc" stroke="#fcfcfc"/>
  <path d="m487 663v-1h2v1l1 1-1 5q-1 5-2 9t-2 5l-1 1v-2q0-1-2 0h-1v-1q1-1 2-4t-3-2l-3 2v-2q-1-2-1-3 0 0 4-3l4-3v-1h1v-1h1v-1h1zm-3 16t1 0q0 1-1 1 0 0 0-1z" fill="#151515" stroke="#151515"/>
  <path d="m475 672h1q0 1 1 3v2q-1 0-13 5l-13 6v-2q1-1 1-2v-2l11-5q11-5 12-5z" fill="#171717" stroke="#171717"/>
  <path d="m636 656l3 6q3 6 4 8 0 1 5-2 6-2 8-3h2v1h-2v3l1 1v1q-1 0-1 1 0 0-3 1-2 1-7 6l-4 5h-1v1h-1v2h-2v-3h-1l-1-1h-1v-1h1v-2l1-1q1-1 1-3 2-1-1-10l-3-9h1q1-1 1-1z" fill="#161616" stroke="#161616"/>
  <path d="m400 660h6v4q0 4 0 6v2h-1q-1 0-2 1l-1 1v-2h-1l-1-1-1-1h-2v-1h-1v-1h-2q-3 0-8 1l-6 1q0-1-1-1v-1h-5l-1-1-1-1h4l-1-1-1-1 10-1q10-1 12-2t4-1z" fill="#151515" stroke="#151515"/>
  <path d="m628 407l7-18v1q1 1 1 1v1l1 2 1 1v-4l1 3v3l-6 17q-7 16-7 16t-2 0-2-1-1 0l-1 1v1h-1v1h-2v-2h2v-1l1-1v-1l1-1q1-1 7-19z" fill="#131313" stroke="#131313"/>
  <path d="m340 545h1l15 15q15 16 23 20 8 6 18 8 10 4 21 4 11 2 26 1t22-1h7l3-1h2v1h-2l2 1h1v1l-1 2v1h-4q-3 1-32 1-28 2-36 0l-9-2h-4v1h1v1h1v1h1v1h1v1h1v2h1v1h1l2 2q3 2 8 2 5 2 10 2h6l1 1 1 1v4h-1v1h-1q0 1-4 0h-3v2l1 2v3h1v1h-1v2h1v1l8 2q8 4 9 4h2l2 1 1 1h1v1h1v1h-4l1 1h1v1l-1 1h-1l-1-1h-2q-1 0-3-1t-17-7q-16-6-19-10-3-5-14-17-11-13-13-16-3-4-4-4t-2-3q0-2-3-4-2-2-13-13l-10-11v-1l1-1q-1 0-1 0t-1-4q-1-3 1-3z" fill="#0d0d0d" stroke="#0d0d0d"/>
  <path d="m746 663v-1l6 2q7 2 8 5 2 2 5 5 3 2 5 8 4 5 4 8v4l-1 1-1 1v1h-1v-1h-1v-3h-1v-1h-1v-3q0-3-1-5-1-1-4-6-4-6-11-9l-6-4t0-1 0-1z" fill="#191919" stroke="#191919"/>
  <path d="m420 235l-2-7h2q2 0 2 0l2 6q2 6 3 8l1 1v2h1v1h1v4h-4v-1l-1-1-1-1v-2l-1-1q-1-2-3-9z" fill="#202020" stroke="#202020"/>
  <path d="m772 429h2q1 0 1 1t1 1h2v1t-8 9-9 9h-1v-1q0-1 0-3 0-1-1-1h-1v-1t1 0v-1h1v-1h1l1-1q2-1 6-6t4-6z" fill="#1a1a1a" stroke="#1a1a1a"/>
  <path d="m282 783l-3-5h2l7 10q8 10 10 12 1 2 4 2t4 1h1v1h-1v2h-4l-1 22q-1 21-3 30-2 10-6 22t-2 14 3 2v1l-1 1q0 2-2 2h-2t0-1h-1v-1l-1-1v-1h-4v1l-1 1v1h-1l-1-1h-1v-3l1-1q1-1 3-8 4-6 4-14 0-9-3-13l-3-4v-1h-1v-1h-1v-1h-1v-3h1l2 1h1v-1h1v1h1l1 2q1 2 1 2h1v1h1v1h1v2h1v1h1v-2h1v-1h1v-4q0-5 1-8t1-22q0-20-5-27t-7-12z" fill="#121212" stroke="#121212"/>
  <path d="m596 234h1v1q-1 1-1 3l-2 1v1h2v-1h1v-1h3t-3 2-10 10l-7 7-1 1-1 1v1l-1 1v1h-3v-1h-1v-1h-1v-2l1-1 1-1v-2h1v-1h1l6-7q7-6 9-8 1-1 2-1v-1h1q1-2 2-2z" fill="#1b1b1b" stroke="#1b1b1b"/>
  <path d="m157 857l3-1 8 4q9 4 11 8 3 3 3 4v1l1 1 1 1v2h1v-1h1v-3l1-1q1-2 1-2v-1h2q2 0 3 0l-2 7q-3 7-2 14 1 8 1 12t1 5v1q-1 0-3 0l-2 1v-1t-2-8q-2-7-5-11t-6-8l-4-3v-1h-1v-1h-2v-2h2v-2h1v-1h1l1 1h2l1 1q0 1 0 1h1v1h1v1h1v1h1v2l1 1 1 1v-3l-1-1-1-1v-3h-1v-1h-1v-1t-9-5l-9-4-1-1h-1v-1t1-1q0-1-1-1-2 0 1-1z" fill="#111" stroke="#111"/>
  <path d="m269 660l3-6v1q0 1 1 1l-3 9q-2 9-3 11l-1 3v5q-1 0-2 0h-1v-1l1-1v-3q0-3 2-9 0-5 3-10z" fill="#282828" stroke="#282828"/>
  <path d="m606 342l5 3 1 1q2 2 2 2h1l2 4q3 3 3 6 2 3 2 5v5q0 4-1 6-1 3-3 9-4 6-10 11-7 6-11 6t-9-2q-5-4-9-8-3-5-4-14-1-10 1-12 0-3 5-10t12-11q7-5 13-1z" fill="#fafafa" stroke="#fafafa"/>
  <path d="m162 674l5-4v1l-1 1h2l1 1v1l-3 2q-3 2-4 4t-1 2h-1v1h-1v1h-1v1h-1v1h-1l2 1 1 1 5 2q5 2 5 2h-3q-3 1-3 2-1 1-1 1l-1-1h-1q-2 0-4-1l-3-1h-5v-7h1v-1h1q1 0 4-4 3-2 8-6z" fill="#151515" stroke="#151515"/>
  <path d="m309 192l6-8v2l-1 1v1l-1 1v1h2v-1h1v-1h2l-6 8q-6 8-6 10-2 2-2 4v2l-1 2-1 1v2l-1 1h-3v-6l1-1 1-1v-2q0-2 2-6 2-3 7-10z" fill="#1c1c1c" stroke="#1c1c1c"/>
  <path d="m178 103l11 3q11 4 20 13t19 25q10 17 14 27t6 28 1 32-3 29q-4 16-6 28-4 12-4 16 0 3 0 10v11h-2l-2-1h-2v-2l-1-2-1-1q0-1-1-1t-3-21-2-25q0-5-4-12l-4-7v-2h-1v-1h-1v-1h1l1-1h-1l1-1 1-1h3v1l1 1 1 1v2q2 2 2 3v1l1 1 1 1v1l1 1 1 1h2v-7l1-4q1-4 1-7 0-4 0-13-2-9-4-17-2-7-8-14l-4-7h-1v-1h-1v-1l-1-1v-3h2v-2h1v1h1v1h1v1l1 1 1 1 4 6q5 6 5 6h1v2l1 1 1 1v2h1v1h1v-15q0-15-2-22t-6-16-12-19q-7-11-21-18l-14-7-1-1-1-1h-1v-1h-1v-1h-1q-1 0-1-1t3-1 4-1z" fill="#090909" stroke="#090909"/>
  <path d="m365 236v-1l5 3q6 2 6 3t7 5q7 5 16 16 9 10 19 26t16 31 10 31q2 15 2 28 0 14-4 26-4 11-6 16t-3 6l-1 2h-5v-1h1v-3h-1l-1 1h-1v-2h2v-1q1-2 3-10 4-7 5-18 1-12-1-31l-2-19v-4l-1-2-1-1v5l-2 4q0 5-1 6l-1 2v2h-1v1h-1l-1 1h-1l-2 1h-1v-6h1v-1q0-1 1-3t1-11q0-10-2-19t-5-12-7-3h-4l-2-1-1-1v-1h1v1h4v-5h2l1 1h2l1 1 2 1v-4l-1-1-1-1v-1l-1-1q-1-1-5-8-6-8-8-10-3-3-3-4t-5-5q-6-4-17-11l-12-6-2-1h-2v-1h-1v-1h-1v-1h1v-1l1-1h10-1v-1h-1v-1h-2l-2-1-2-1h3q3 0 3-2z" fill="#0b0b0b" stroke="#0b0b0b"/>
  <path d="m702 700l-1-2 16 1q16 1 21 1h6l2 1 2 1h1v1h1v3h-7v-1h-1v1t-7-1-20-1h-13q0-1 0-4z" fill="#161616" stroke="#161616"/>
  <path d="m736 70h11l12 3q13 3 19 7 7 5 8 6 0 2 1 2v1h1v1l1 1 1 1v1h1v1h1v1l2 3q2 2 2 2l4 7q4 6 7 11 2 4 3 5l3 9q3 8 4 8v3l1 2 2 8q2 8 3 9v1q1 1 1 3v2l1 2q1 2 1 6v3l1 1v2l2 9q1 9 2 13v6q0 2-4-1t-7-3q-4 0-4 4v5h1v1h1v4l1 2 1 1 1 12q1 12 2 13v18q-1 17-1 22v4l-1 11q-1 11-2 15v3l-1 4q0 4-1 7v3l-4 15q-5 15-5 16v1q-1 1-1 1v1l-1 1v3l-1 1-1 2v-1l-1-1-1-1v-1q0-2-1-4l-1-2-1-1-1-1h-2l-2 10q0 10-1 12l-1 1v4l-2 4q-2 4-5 11-3 8-3 8 0 1-3 6-2 4-3 4t-2 2v1l-1 1v1h-1q0 1-4 6t-6 6l-1 1h-1v1h-1v1q-1 0-1 0v1h-1q-1 1-5 3l-4 4h-1l-1 1-1 1h-2l-1 1h-1v-2q1-2 1-5v-5h-2l-1 1h-1v1h-1v1h-1v1q0 1-2 3t-10 6l-8 4-2 1-1 1h-2q-2 0-15 2l-14 2h-16q-16 0-17-1h-1q0-1-2-2-3-1-6-6-4-4-9-15l-5-12t7-16l6-17h1v-4l3-15q3-15 3-30 2-15 6-20 6-5 14-18 9-14 10-14t4-3 10-9q8-6 9-6h1v-1h1v-1h3v-5h-1v-1h-5l-2 1q-3 1-10 3-6 4-12 9l-6 6-1 1-1 1v1l-1 1-1 1v-9l2-9q2-9 6-18t8-14q4-6 9-10t10-6q5-4 6-4h1l2-1 1-1h1v-3l-1-1v-1h-3l-2 1h-1l-1 1q-1 1-14 8l-14 7v1h-1v1h-2v1h-1v1h-2v-3l1-1 1-2 6-16q7-16 14-28t14-18q7-8 10-9 2-1 2-2h1l7-3q8-2 18-3 9-1 10 0l2 1h3l2 1h2v-1l-1-1v-1h-1v-1h-1v-1h-1v-1h-1v-1h-2l-1-1q-1-1-3-1-1 0-10-1-10-1-15 3l-5 2-1 1-1 1h-2l-1 1q-1 1-1 1h-2q-1 0-6 3-4 3-11 9-7 7-13 16-6 10-17 33t-11 29l-2 7v-1l-1-1-1-1v-1l-1-1-1-1v-1q0-1-2-3l-1-1v-1h-1v-1h-1v-1h-1v-2h-1v-1q-1 0-6-6-6-6-11-8-4-2-11 2t-13 4q-5 0-8-2l-4-2-1-1q-1-1-1-1h-1q-1-1-1-1-1-1-2-1l-2-2h-1v-1h-1v-1h-1v-1h-1v-1h3v-1h1v-1l8-4q8-4 9-4v-1h1v-1l6-6q6-7 14-21 10-14 10-15 2-2 2-2v-1h1v-1h1v-1q0-1 3-4t8-9q5-5 5-6v-1l1-1q1 0 1 0v-1l13-13q13-14 13-14v-1t1-1h1t0-1l5-5q5-6 13-11t8-6l12-4q13-5 20-5z" fill="#fdfdfd" stroke="#fdfdfd"/>
  <path d="m552 508l-1-6h1v1h1v1h4l1 3q0 3 1 5v1h-1q0-1-1-2l-1-1v2q-2 1-2 1t-2-5z" fill="#1e1e1e" stroke="#1e1e1e"/>
  <path d="m133 899l1-3v1h1l1 8q2 8 6 14t4 7l-2 1q-2 1-2 1v1q-1-1-4-5-4-6-6-14l-2-8v-3l1 1 1 1v1l1-3z" fill="#1b1b1b" stroke="#1b1b1b"/>
  <path d="m289 1025l4-11 1 2q1 2 2 3h1l-1 3q-2 4-2 6v1l-1 1-1 1v3h1v-1h1v-1h1t1-1q0-1 2-1h4v4l-4 14q-4 15-5 15h-1q-1 0-1-1-1-1-2-1h-1v-1t1-2l1-1v-1q0-1 2-4v-4l1-1 1-1v-4h-2v1l-2 1q-1 2-4 2h-3v-4l1-3v-1q0-2 5-13z" fill="#111" stroke="#111"/>
  <path d="m718 650v-2h1l1 4q0 4 13 6 13 4 13 4v1q0 1 0 1 0 1 0 1h-2q-3-1-8-1-5-2-21-2h-16l-1-1-2-1h-1v-1h1v-1h2v-1h1v-1h7q8-1 8-4v-2h2l1 1h1v-1z" fill="#181818" stroke="#181818"/>
  <path d="m193 44l7 2q6 2 8 4 3 2 4 2v2q0 2 0 3v1h-1q-1 0-1-1t-10-5l-9-5 1-1q0-1 1-2z" fill="#1c1c1c" stroke="#1c1c1c"/>
  <path d="m483 252l1-1h2v3q0 3-1 4l-1 2v1q-1 1-2-1v-2h-1v1h-1v-4l1-1 1-1v-1h1z" fill="#1e1e1e" stroke="#1e1e1e"/>
  <path d="m615 436v3l1 3v1h1v-1h1v2t-8 11-18 19l-10 7v1h-4l-2 1h-1v-1h-1v-1l-1-1v-2h1l2-1 1-1 9-6q8-6 10-6 1-1 10-14 8-14 9-14z" fill="#141414" stroke="#141414"/>
  <path d="m517 662q-1 0-1 0l-1 1h-1v-1t3-4l3-3v-1l1-1 1-1v-1l2-1q0-1 2 2 0 2-4 6-4 3-5 4z" fill="#d5d5d5" stroke="#d5d5d5"/>
  <path d="m346 230h6q4 2 8 3t4 2h1v1q0 2-3 2h-4q-2 0-4-2h-3l-1-1q-2-1-4-1-1 0-1-2-1-1 1-2z" fill="#191919" stroke="#191919"/>
  <path d="m701 75h1l1 1 1 1v2q0 1-8 6t-13 11l-5 5v2h-2v-1h-1v1h-1v-1l-1-1-1-1v-1h1v-1h1v-2h1l11-10q10-8 12-10 2 0 3-1zm-26 25t0-1q1 0 1 1 0 0-1 0z" fill="#161616" stroke="#161616"/>
  <path d="m457 423l6-7v1l1 1h2q1 0 2 0l-8 10q-8 11-8 11 0-1-1-1t-1 0q-1-1-2-1h-1v-1q1-1 1-1v-1l1-1 1-1v-1h1q0-1 6-8z" fill="#171717" stroke="#171717"/>
  <path d="m317 266h2q2 0 3 0h1l-1 2q0 1-1 1l-4 5q-3 6-6 11-2 5-2 5h-1t0 1q-1-1-3 0h-2v-1l1-1v-2l1-1 1-2v-1q0-1 2-3 0-2 4-8l4-5t1-1z" fill="#1b1b1b" stroke="#1b1b1b"/>
  <path d="m668 562v-1h3l3 1h1v1h1v1l5 4q5 5 5 5v1l1 1 1 1v2h1v1h1v1l1-5v-5h1v-4q0-4 2-4l3 1h1q0-1 2-1h1l-1 2q0 2 0 3h-1v1h-1t0 1q-1 1-1 1v9l-1 9v2h-4q-3 0-5-4l-2-4h-2v1h-1v1h-1v1h-1l-3 7q-3 8-4 10l-1 3v3l-1-1v-1h-2l-1 1-1 1h-1v-2l1-1 1-1v-7t1-1h1v-4l1-1q1-1 3-5t3-6l2-1v-1l1-1v-3h-1v-1h-1v-1h-1v-1h-1v-1h-1l-1-1h-1v3q-1 2-1 4v1l-1-1-1-1v-1h-1v1h-1v-1h-1v-6l1-4v-2z" fill="#111" stroke="#111"/>
  <path d="m198 479l1-1h6v1h1v3l-2 8q-2 9-1 17t2 13 2 6v1h-1v-1h-1v1h-1v2h-2v-1t-3-10q-3-9-2-18l1-10v-4h1-4l-1 1h-1v2h-1l-1 1h-1l-1-1-1-1h1v-1h1v-3h1v-1q1 0 3-2l3-1 1-1z" fill="#151515" stroke="#151515"/>
  <path d="m196 446v1l-8 13q-8 12-8 12v-1q0-1-2-1h-2v-1q0-1 6-11l6-10h1v-1q1 0 1-1h2v1l2-2q1-1 1-1 1 0 1 2z" fill="#171717" stroke="#171717"/>
  <path d="m821 303l1-11 1 3q1 3 2 2t1-1l-1 12q-1 12-2 15v3h-1t-2-3l-1-2v-3q1-4 2-15z" fill="#1c1c1c" stroke="#1c1c1c"/>
  <path d="m668 607l1-1h2v1l1 1v10q0 9 0 11v2h-1q-1 0-1-1t-1 2l-1 2v-2q0-1-1-12l-1-12h1l1-1z" fill="#141414" stroke="#141414"/>
  <path d="m298 225h2l-3 9q-3 9-3 9v-1t-2 0h-1v-2q1-1 2-8l2-6h1q1 0 2-1z" fill="#242424" stroke="#242424"/>
  <path d="m60 157l-4 13q-4 14-5 16v2h-1t-1 1l-1 1h-2l-1 1h-1v-5l1-2q1-3 5-17l5-14h2q1 0 2 1 1 2 0 2 0 0 1 1z" fill="#141414" stroke="#141414"/>
  <path d="m224 778l2-1 1 1q1 0 2 1 0 1 1 1t14 22q14 21 14 22v2l1 1 1 1v1l1 1v1h-1v-1h-1v1h-1v-3h-1v-1h-1v2h-1v1h-3v-1q0-1-1-2t-14-22l-13-21-1-1q0-1-1-1t-1-1v-2q0-1 3-1zm1 0q1 0 1 1t-2 1q-1 1 0 0 0-2 1-2z" fill="#131313" stroke="#131313"/>
  <path d="m169 870v2l1 1q0 1-2 1h-2v1h-2q-1-1-6-2-6-1-10-1l-5 1v-1q-1 0-1-2v-3l2-1q3-2 12 0 10 2 11 3t2 1z" fill="#101010" stroke="#101010"/>
  <path d="m192 225v-1h4l2 1 1 1h2l6 7q7 6 9 9t2 4h-3l-1 1-1 1h1l-1 1h-1l-1-1h-1v-1h-1v-1h-1t-6-8l-6-6-1-1h-1v-2h-1v-1h-1v-3z" fill="#141414" stroke="#141414"/>
  <path d="m644 756h1t1 1l1 1h1v1h1v1h1v4q0 3-1 7v4l-1 2q0 2 0 11t4 14q4 6 5 7t1 2h3v2h2l2 1h19q20 0 22 0 1 0 10-1h9v1l-1 1v1h-1v1h-1v1l-1 1-1 1-2 4q-4 3-4 4 0 0-1 0 0 0-11 6l-11 6-1 1-1 1h-2v1h-2q-2 1-7 1-6 0-14-2-7-2-14-5l-8-4v-1t-2-1q0-1-9-13-9-13-10-19l-2-6q0-1 3-2 4-1 8-8l4-7q1 0 1-1h1q0-1 0-1 0-1 4-8l3-7v-1q1-1 1-2z" fill="#f9f9f9" stroke="#f9f9f9"/>
  <path d="m334 639h4q5 1 6 1 0 1-1 2v1h-1q-1-1-5-1l-4-1v-1q1-1 1-1z" fill="#252525" stroke="#252525"/>
  <g fill="#1c1c1c" stroke="#1c1c1c">
   <path d="m406 199h1q1 0 8 13t7 14v2t-2 0h-2q0-1-2-3v-2l-1-1q-1-1-5-9l-4-8-1-1q0-1-1-1t-1-1v-1h1q1 0 1-1 1-1 1-1z"/>
   <path d="m399 697l1-5t1 1h1v16l1 3v2q-1 0-1-1t-1-1l-1 1v-1t-1-5 0-10z"/>
  </g>
  <path d="m671 631h1l3 9q3 10 3 11v1h-1q-1 0-3-1l-1-1q-1 0-3-8l-2-8 1-2q1-3 1-2t1 1z" fill="#131313" stroke="#131313"/>
  <path d="m626 153l1-1h2v1h1v3t-2 2q0 1-10 15-8 14-14 21l-6 6v1h-1v-1l-1-1v-2h-1v-1l1-1v-1h1v-1h1v-1l6-8q6-7 12-17 6-11 7-12t1-2h2zm-29 44q0-1 0-1 1 0 1 0 0 1-1 1z" fill="#171717" stroke="#171717"/>
  <path d="m438 757l-1-2h1q2 1 6 1h5v1q-1 1-1 1l1 1q1 1 1 1h-15t1-1q2 0 2-2z" fill="#232323" stroke="#232323"/>
  <path d="m358 793v1h2v2t-11 4l-11 3h-2q-2-1-2-1h1v-1q1 0 1-1l11-4q11-3 11-3z" fill="#191919" stroke="#191919"/>
  <path d="m396 302h5l1 1 2 1h4q4 0 7 3t5 12 2 19q0 9-1 11t-1 3v1h-1v1h-1v1q0 1-2 3-2 3-6 6-4 2-10 2-5 0-10-4-4-4-7-10t-3-20q0-15 1-18 1-4 5-8t10-4z" fill="#fafafa" stroke="#fafafa"/>
  <path d="m560 934h2l1 2q1 1 2 2-1 0-17 4t-29 4l-13 1v-2h-1v-1h-2l2-1 2-1h1v-1l14-1q13 0 24-3 12-3 14-3z" fill="#151515" stroke="#151515"/>
  <path d="m826 159l3 11q3 10 3 11v1q-1 0-2-2 0-1-1 0 0 2-1 2h-1v-2l-1-1v-3q0-4-1-6l-1-2v-2q0-2-1-3v-1h1q1 0 1-2 1-1 1-1z" fill="#1b1b1b" stroke="#1b1b1b"/>
  <path d="m742 67v-1l13 2q13 2 18 5t9 7q6 4 8 7t2 4l1 1v2l-1 1v-1h-1v-1h-1v-1l-1-1-1-1v-1h-1v-1q-1 0-1-2-1-1-8-6-6-4-19-7l-12-3h-5t0-2 0-1z" fill="#1e1e1e" stroke="#1e1e1e"/>
  <g fill="#191919" stroke="#191919">
   <path d="m99 748l10-3v1h-1v1l-1 1v1h1l1 1h3q1 0 1 0l-12 4q-13 3-22 8-10 4-11 6-1 0-2 1h-4v-2h1v-1h1v-1h-1v-1h1v-1h1v-1h1l1-1q1-1 11-5 11-6 21-8zm-35 19t1 0q0 1-1 1 0 0 0-1z"/>
   <path d="m118 352h1t1 1l9 12q9 11 10 13t2 3v1l-1 1q-1 1-2 2-1-1-1-1h-1v-1h-1v-1h-1v-1l-1-1q-1-1-1-2-1-2-2-2t-6-8l-6-7v-2h-1q0-1-1-2v-3q0-1 2-2z"/>
  </g>
  <path d="m466 653l2-1h2q2-1 3 1t-1 3q-2 2-14 2-13 0-18-2t-6-4q0-1 0-3 1-1 7 1t15 3 10 0z" fill="#161616" stroke="#161616"/>
  <path d="m623 636v2q-1 2-1 2 0-1-1-1 0-1-5-3t-18-2h-18l-2 1h-1v-1l-1-2v-1l1-1h3l14-1q14-1 20 2 6 2 8 3 0 1 1 2z" fill="#1d1d1d" stroke="#1d1d1d"/>
  <path d="m351 642l1-1v1l8 3q8 4 9 4v1h1q1 0 2 1h1q1 0 1 3 0 2 0 3t-2 1h-1l1-1v-2h-1v-1h-3q-2 0-4-1t-2-2-4-2l-3-1-1-1q-2-1-2-1h-1q1-1 0-2-1 0 0-2z" fill="#1b1b1b" stroke="#1b1b1b"/>
  <path d="m405 672h1v2q0 1-1 3l-1 2v1h-3v-3q1-2 1-3l1-1q1-1 2-1z" fill="#1f1f1f" stroke="#1f1f1f"/>
  <path d="m437 668h1l1-1h1v6l-1 1q-1 1-1 2 0 0-1 0v1h-3q-2 1-3 2l-1 1h-3l-1 1-1 1h-1l-1 1q-1 1-3 2t-10 3l-7 3v1q-1 1-1 1h-1q-1-1-1-1v-1q0-1-2-3v-5l1-1 1-2v-1h1v1h3v2l-1 1v1h7v-1h1v-1l11-5q10-5 11-6l1-1h1v-1h1v-1h1z" fill="#171717" stroke="#171717"/>
  <path d="m376 302v1h1v1h2v-1q0-1 4-3t13-3q10-1 10 0v5h-4v-1h-1v1h-5q-6 0-10 4t-5 8q-1 3-1 18 0 14 3 20t7 10q5 4 10 4 6 0 10-2 4-3 6-6 2-2 2-3v-1h1v5h1l2-1h1l1-1h1v1h-1v2h-1v1h-1v1l-4 4q-4 4-8 5t-5 19-6 32q-5 15-11 22-5 6-10 9-4 3-6 3h-1l-1 1-2 1h-3l1 1 2 1h10q11 0 14-1l2-1h2v-1h1v1h1v3h2v1h-2l-2 1-1 1h-6q-6 0-13 0t-18-2q-10-2-17-7t-17-15q-10-12-17-23t-13-28q-4-17-5-31-1-13 1-20l2-7v-4l1-1 1-2 1 2 1 2v1h1v1l-1 2v4q-2 5-2 16v11l1-1 1-2v-5l4-12q4-12 10-21 6-10 10-16 5-6 6-6t1-1 9-6q8-5 14-7 7 0 14 2 6 3 9 8 3 4 3 6z" fill="#020202" stroke="#020202"/>
  <path d="m459 525l-1 2v2t-1 1q-1 0-1 0t0-1l-1-2h-1l-2 1-1-1-1-1v-2l7-13q7-13 10-15 3-4 6-4t5 4q2 3 1 9 0 7-1 6-2 0-3-5-1-4-3-4t-7 10q-5 11-6 13z" fill="#101010" stroke="#101010"/>
  <path d="m317 156v-2l7 8q7 8 12 6 6-2 13-2h7q0 1 1 3v2h-5q-6 1-9 1t-11 5q-9 5-9 6t-2 3l-1 1h-1v1h-3v1h-1v1h-2v-1l1-1v-1l1-1v-3h1v-1t5-4 1-10l-4-6h-1v-1q-1 0-1-1l-1-1h1v-2l1-1z" fill="#171717" stroke="#171717"/>
  <path d="m677 101v1h-1t0 1v1t-13 14l-13 13-1 1-1 1-1-1-1-1v-1h2l-1-1-1-1 1-1v-2h1v-1l10-10q10-10 10-10l2-2q1-2 2-2h2q2 0 3 1zm-3 2v-1 1z" fill="#151515" stroke="#151515"/>
  <path d="m790 395l2-4 2 1q1 0 2 0l-4 12q-4 11-5 12v1h-1q-1 1-2-1l-2-2t3-8q3-7 5-11z" fill="#181818" stroke="#181818"/>
  <path d="m778 788v2q0 1 1 0 1 0 2 2 1 1 1 1 0 1-3 4t-10 6l-7 3h-2l-1-1-1-1h1v-1h-1v-2l1-1h2l5-3q6-2 8-5 4-4 4-4z" fill="#161616" stroke="#161616"/>
  <path d="m813 132l-3-9h1q1 1 2 1h1l3 6q3 5 3 6 0 0-1 2 0 3-1 3h-1v-1q-1 0-4-8z" fill="#1d1d1d" stroke="#1d1d1d"/>
  <path d="m832 182l2 14q2 14 2 16v3h-1v1h1v1l-1 1-1 2-1-1-1-1h-1v-2q-1 0-1 0t0-1 1-3v-8q-1-4-2-13l-2-9h1q1 0 1-2 1-1 1 0 1 2 2 2z" fill="#121212" stroke="#121212"/>
  <path d="m149 38h1q0 1-1 3l-1 2q-1 1-4 1t-12 5l-8 4v-2q0-2-1-3l7-3q6-3 12-5t7-2z" fill="#1a1a1a" stroke="#1a1a1a"/>
  <path d="m296 638v-1h8q7 1 7 1v1q-1 1 0 1v1h-5q-6 1-6 1h-1q-1-1-2-2-1 0-1-2z" fill="#171717" stroke="#171717"/>
  <path d="m513 726l4-11v2h1q1 1 2 1l-4 10q-4 10-4 11t-1 1-1-1h-1v-1q1-2 4-12z" fill="#242424" stroke="#242424"/>
  <path d="m686 545v-1l2 1q1 1 2 1l3 8q3 9 4 9l-3-1q-2 0-2 4v4h-1v-2l-1-1v-3q0-2-3-10l-2-8t1-1z" fill="#131313" stroke="#131313"/>
  <g fill="#1c1c1c" stroke="#1c1c1c">
   <path d="m334 586l1-1 5 6q4 6 6 11 2 6 3 8v1h-1q0-1-2-1-1-1-2 1v2-2l-1-2q-1-2-4-11-4-8-5-8t-1-1v-1h1t-1-1 1-1z"/>
   <path d="m499 1099l3-6v4h1v1h1v-1h1v-1h1l-2 5q-2 5-2 7v1l-1 1-1 2v2h-6v-3l1-2 1-2v-1q0-1 3-7z"/>
  </g>
  <path d="m393 597v-1h4l9 2q8 2 36 0 29 0 32-1h8q4 0 4 1t-1 2l-5 18q-4 18-14 19-9 1-12 0-4-1-7-1h-4l-1-1-2-1h-2q-1 0-9-4l-8-2v-1h-1v-2h1v-1h-1v-3l-1-2v-2h3q4 1 4 0h1v-1h1v-4l-1-1-1-1h-6q-5 0-10-2-5 0-8-2l-2-2h-1v-1h-1v-2h-1v-1h-1v-1h-1v-1h-1v-1h-1z" fill="#f8f8f8" stroke="#f8f8f8"/>
  <path d="m514 683h2q1 0 2 1l1 4q1 4 2 12v7q-1 0-1 0h-2v-1q0-1-1-1v-5q-1-4-1-10l-1-5v-1h-1t0-1z" fill="#171717" stroke="#171717"/>
  <path d="m232 68l-1-1 11 9q10 8 11 8v2q-1 0-1 1t-1 1q-1-1-1-1h-2q0-1-6-5l-7-6h-1v-1t-1-1v-2q-1-2-1-4z" fill="#1b1b1b" stroke="#1b1b1b"/>
  <path d="m437 676h1l-1 2q-1 2-2 3l-1 1v2h-1v1h-1v2h1l1-1h3l7-2q6-2 7-2h1v2q0 1-1 2v2h-1q-1 0-12 3l-10 3h-3v-1h-1v-4l1-1q1-1 2-3l1-1v-1l1-1 1-1v-1l1-1q1-1 3-2t3-1z" fill="#171717" stroke="#171717"/>
  <path d="m370 660l1-1 1 2q2 2 2 2v1l1 1 1 1h-4l1 1 1 1h5v1q1 0 1 1h-13v-1l-1-1v-2q0-1 1-2 0-2 1-2t2-2z" fill="#1a1a1a" stroke="#1a1a1a"/>
  <path d="m367 933l4-1 23 4q22 4 38 4 15 2 44 2 30 0 31-1h1v1h-1l-2 1-2 1h2v1h1v2q0 1-19 1t-43 0q-24-2-49-6l-25-4h-4v-1h-1v-1h-1v-1h-1q0-1 4-2z" fill="#111" stroke="#111"/>
  <path d="m62 138h1q1 0 1 1v1l1 2 1 2-3 6q-3 7-3 7-1-1-1-1 1 0 0-2-1-1-2-1h-2v-1q1-1 3-7l3-6h1q0-1 0-1z" fill="#161616" stroke="#161616"/>
  <path d="m547 589v-1h4v2l-1 1v2h-1v1h-1v1h-1v1h-1l-1 1q-1 1-5 3-3 2-6 2h-3v-2q0-1-1-1l-1 1q-1 0-1-2 0-1 1-1t1-1v-1h6q5-1 6-2 2-1 2-2h1v-1h1v-1h1z" fill="#181818" stroke="#181818"/>
  <path d="m177 699v-1l8 6q9 5 13 10 6 4 6 4v1h-1q-1 0-1 1t-1 2v1h-1v-1h-1v-1h-1v-1h-1l-1-1q-1 0-1-1-1-1-7-6l-8-6v-1h-1q0-1-1-1l-1-1v-1q1-2 0-3z" fill="#151515" stroke="#151515"/>
  <path d="m501 252l1 1q2 1 2 1 1 0 2-1h1v1q-1 1-5 5-4 3-12 7l-8 4h-2l-1-1-1-1h-2v-5h1v-1h1v-2l1-1 1-1v1h1v-1h1v2q1 2 2 1v2h2l1-1h2l1-1 1-1h1l4-4q4-4 5-4z" fill="#181818" stroke="#181818"/>
  <path d="m124 739l8-5 2 1q1 1 1 2l-7 5q-6 6-9 6-3 2-5 2h-1t-1 0h-3l-1-1h-1v-1l1-1v-1h1v-1h1l1-1h2q2 0 11-5z" fill="#161616" stroke="#161616"/>
  <path d="m282 897v-1h2q3 0 3 1v1h-1q-1 0-2 0v1l-6 9q-6 10-10 14-3 4-3 4h-1v2h-2v-3l-1-1-1-1v1h-1v-2h1v-1h1v-1h1t2-2q1-2 8-11l6-10v1h1l1 1h1v-1l1-1z" fill="#171717" stroke="#171717"/>
  <path d="m421 504l-1 12q-2 11 0 16 0 4 1 6v1h-1q-1-1-2-1v1h-1v-1q-1 0-1 0 0-1-2-5 0-4 0-17l1-12h1l1-1q1 0 1-1t1-1 1 1q0 2 1 2z" fill="#191919" stroke="#191919"/>
  <g fill="#181818" stroke="#181818">
   <path d="m265 744l-1-8q1 0 2 1h1l1 3q0 3 6 19 5 15 6 17 0 1 1 2h-3t-3-7l-3-7-1-2-1-2h-2l-1 1-1 1t-4 6q-4 5-5 6-2 0-2-1-1-1-5-5l-4-3v-1h-1l-1-1-1-1h-1v-1h1l1-1v-3h2v1h1l4 3q3 3 4 3h3v-1h1v-1h1v-1l1-1q1-1 3-5t1-11z"/>
   <path d="m59 768l4-3h1q2 0 1 2-1 1-1 2h1l-7 8q-8 7-9 8h-1v2h-2q0-1 0-2v-2h-1v-1l1-1v-1h1v-1h1v-1h1q1 0 4-3t6-7zm4-2h1-1z"/>
  </g>
  <path d="m222 942h3l-1 1-1 1h3l2 1 2 1t-12 4-22 4q-11 0-19-2l-8-2v-1h-1v-2h1v-1h2v-2h2l5 2q5 2 16 1 12-1 19-3t9-2z" fill="#131313" stroke="#131313"/>
  <path d="m725 616h1v1q-1 1 0 2 1 0 1 1 1 2 1 2l-4 8q-4 9-4 11t-1 5v2h-1v3h-1l-1-1h-2v-4q0-4 1-7t5-13 5-10z" fill="#171717" stroke="#171717"/>
  <path d="m739 444l1-1h2v5q0 3-1 5v2h1l1-1h2l1-1 1-1h1l4-4q4-2 5-3h2q1 0 1 1t1 2v1h-1v1q-1 0-7 4t-12 6-7 2q-1-2-8 1l-8 3h-3v-1l-1-1v-1h-1v-1l1-1 2-1 8-4q8-4 10-6t2-3v-1h1v-1h1v-1h1z" fill="#121212" stroke="#121212"/>
  <path d="m259 335v-1h4v1h1v5l-1 6q-1 5-1 5-1-1-2-2 0-1-1 1 0 1-1 0h-1v-5l1-5v-5h1z" fill="#181818" stroke="#181818"/>
  <path d="m290 639l6-2 1 1q1 0 1 2 0 1 1 2l-7 1q-8 1-13 7-5 5-6 6-1 0-1-1v-2q0-1 1-3l1-1v-1h1v-1h1v-1t4-2q3-2 10-5z" fill="#1c1c1c" stroke="#1c1c1c"/>
  <g fill="#131313" stroke="#131313">
   <path d="m203 719h1l8 6q7 6 7 7v1l-1 1q-2 1-1 1 0 1-1 1t-8-7l-7-6v-1q1-1 1-2t1-1z"/>
   <path d="m788 733l-1 8q-1 8-1 25t-2 21-2 5v1t-1-1q-1-2-2-2-1 1-1 0v-3q0-1 1-3 1-1 1-18t1-23l1-6 2-1q0-1 2-2 1-2 2-1z"/>
  </g>
  <path d="m141 867h1v3q0 2 1 2v1l-3 3q-2 4-4 11t-1 9v1h-1v-1l-1 3-1 3v-1l-1-1-1-1v-4q0-4 1-8t3-9q2-6 4-8 2-1 2-2t1-1z" fill="#191919" stroke="#191919"/>
  <path d="m328 641h5l4 1q4 0 5 1h1l2 1q2 2 4 2h3t2 1l1 1 3 1q4 1 4 2t2 2 4 1h3v1h1v2l-1 1v1l-1 1q-1 2-2 2t-1 2q-1 1-1 2v2l1 1v1h13l6-1q5-1 8-1h2v1h1v1h2l1 1 1 1h1v2q0 1-1 3v2h-1v1l-1 2-1 1v5q2 2 2 3v1l-1 5q-1 5 0 10t1 5v2q0 2 1 4l1 3 1 5q1 4 2 4v1l6 10q5 10 4 12t-2 3v1l-8 7q-9 8-9 8v1t-1 1l-14 8q-14 8-15 8h-1l-1 1-1 1h-3l-1 1h-1t-11 3l-11 4h-1q-1 0-15 2l-13 1h-1q-1-1-4-1t-4-2q-2-2-10-12l-7-10q-1-1-1-2-1-2-6-17-6-16-6-19l-1-3v-2q-1-2-1-5t-1-6l-1-4v-3q0-3 0-11 0-7 1-14l1-8v-5l1-3q1-2 3-11l3-9q1-1 6-6 5-6 13-7l7-1h1t6-1h10q6-1 12 0z" fill="#fdfdfd" stroke="#fdfdfd"/>
  <path d="m82 288l1 1 1 1 2 5q2 5 5 12t7 13 4 6v1h-2q-1 0-2 2 0 1 0 1t-1 0-8-14l-7-13h-1v-1h-1v-2l-1-2v-1h-2v1l-1 2v4q-2 5-2 7v2h-2l-2-1h-1v-1h-1v-1l-1-2-1-1v-2l-1-1-1-2v-3h2q1-1 2-2l1-1t1 1l1-1 1-2v-1q1-1 1-1 1 0 1-1l1-1 3-1q4-1 4-1z" fill="#111" stroke="#111"/>
  <path d="m335 800h1q0 1-1 1v1h-1t2 1h2q0 1-6 1-7 2-16 2h-10v-2h1v-1l13-1q14-2 15-2z" fill="#1d1d1d" stroke="#1d1d1d"/>
  <path d="m793 94v-1l3 3q2 3 3 3t8 12 7 13h-1q-1 0-2-1h-1q-1-1-3-5-3-5-7-11l-4-7t-2-2l-2-3 1-1z" fill="#212121" stroke="#212121"/>
  <path d="m543 528v1h-1q-1-1-2-1t-1-3l-1-3-4 8q-6 8-6 10-1 2-2 2 0 0-1 0 0 0-1 0 0-1-1-1h-1v-1q0-1 1-2l1-1v-2l7-11q7-12 9-12 2-2 4 0 2 1 0 8 0 7-1 8z" fill="#141414" stroke="#141414"/>
  <path d="m623 638v-2l6 9q7 9 7 10v1t-1 1h-1t-6-9l-6-8t1-2z" fill="#232323" stroke="#232323"/>
  <path d="m624 280h5v1l1 1v2h-6q-1 0-4 2h-4l-1 1-1 1h-2v2h2l1 1 1 1h1l3 2q2 2 2 3h1v1q-1 2-1 2l-1 1h-1q-1-1-4-3-4-2-10-4-6 0-12 3l-7 4h-1v-1h-1v-1h-1v-1h2l-1-1-1-1h1v-1h1v-1h1l13-6q13-6 16-8 4 0 8 0z" fill="#141414" stroke="#141414"/>
  <path d="m620 301h1l2 3q3 2 3 2l2 3q2 3 2 3h1v1h1v2l1 1 1 1 2 7q2 7 2 28t-2 27q0 6-1 8v2l-7 18q-6 18-7 19l-1 1v1l-1 1q-1 1-1 2-1 1-1 1-1 1-1 2v1h-1v1q-1 0-9 14-9 13-10 14-2 0-10 6l-9 6-1 1-2 1h-2l-2 1-1 1h-1q-2 0-8 1l-5 1-1-1-2-1h-1v-1h1v-1h7v-1q1 0 3-1 2 0 11-5t13-10q5-5 6-5t4-4q2-4 6-15 4-10 6-22 0-12 4-14 3-1 8-9 6-8 7-18l1-9v-1q0-2-1-4l-1-2v-2q0-2-2-4-2-3-6-7l-5-4v-1q-1 0-1 0 0-1 0-2t0-3q-1-1-8-2-6-1-13 2t-7 2-4-3q-3-2-12-3l-8-1h-5 1v-1h1v-1h1v-1h1v-1h1v-1l1-1q1-2 2-2t5-4q3-4 11-10 7-6 8-6v-1l7-4q6-3 12-3 6 2 10 4 3 2 4 3z" fill="#f8f8f8" stroke="#f8f8f8"/>
  <path d="m635 774h1l-6 8q-5 8-8 10-3 0-3 1-1 0-1-3v-2t3-2q3 0 7-6l4-5h1q1-1 2-1z" fill="#242424" stroke="#242424"/>
  <path d="m635 696v-13h1l1 1h1v3h1v10q1 10 1 11v2l1 2 1 1v2h1v1h3v-1h1v-1h1q0-1 1-1v2q0 3 1 3 2 0 2 0t0 1h-1l-2 3q-1 2-2 3l-1 1v1l-1-1h-1v2h-1l-1 1v-1h-1v-3q-1-3-3-9t-3-20z" fill="#131313" stroke="#131313"/>
  <path d="m163 402v-1l9 4q8 3 8 4v1q0 1 1 2v1h-1q-2-1-8-3l-7-4h-1q-1 0-2-1l-1-1h1q1 0 1-2z" fill="#212121" stroke="#212121"/>
  <g fill="#161616" stroke="#161616">
   <path d="m122 48h1q1 1 1 3v2q0 1-11 10l-11 9v1h-1v1h-5v-4h1v-1h1v-2h1v-1l11-8q11-10 12-10z"/>
   <path d="m88 80l8-9v3h5l-8 10q-7 9-8 10l-1 1v2l-1 1h-2v-1h1v-4h-1v1h-3v-2h1v-1h1v-1q0-1 8-10z"/>
   <path d="m585 928h2l1 2q0 1 0 2l-2 1-1 1h-2q-2 0-10 2l-8 2q-1-1-2-2l-1-2 10-3q11-3 13-3z"/>
  </g>
  <path d="m517 710v-5q1 0 1 1v1h2t1 0v2q-1 2-1 5v4q-1 0-2-1h-1v-7z" fill="#232323" stroke="#232323"/>
  <path d="m631 600v-3h1l2 1h1v1h1v2l2 3q0 3 1 16v12h2v-1h1v-1h1v-1h1v-1h1v-1h1v-1t3-4l3-4h1v-1h1v-1h3l1 1-6 9q-6 8-8 10-2 1-2 1v1h-2l-1 1-1 1h-4v-1h-1v-1h-1v-10q0-10 0-14v-5h-1q0 1-19 1l-20 1v-3h-2v1l-1-1v-1l5-1q6 0 6-1l16-1q16-1 16-2 0 0-1-2z" fill="#111" stroke="#111"/>
  <path d="m663 587l4-14v1h1v1h1v-1h1v1l1 1 1 1-1 5q-1 4-1 6v2l-1 2-1 1v4l-4 9q-4 9-5 10l-1 1-1-1h-3v1h-1v1h-1v-2l1-1 1-1v-1l1-1q1-2 3-6 2-5 5-19z" fill="#141414" stroke="#141414"/>
  <path d="m348 611h1l2 8q2 7 6 9t4 3v1q-1 0-1 1v1h-2t0-1l-3-1q-3 0-3 4v5l-1 1q-1 2 0 2 1 1 0 2h-2q-2 0-4-2l-2-1v-1q1-1 1-2h2v-11q0-11-1-13l-1-3v-2q1-2 2-1 2 0 2 1z" fill="#151515" stroke="#151515"/>
  <path d="m641 234v2h-2l-1 1h-1q-1 0-6-6-5-5-9-5-3 0-12 6l-10 6h-3v1h-1v1h-2v-1l1-1v-2q1 0 1 0v-1t1-1l-3-1q-2-1-4-2-3-1-4-3v-1h-1v-1h-1v-4h-1v-1h1v-2h2v2h1l1 1 4 2q3 2 8 2 6 0 13-4t11-2q5 2 11 8 5 6 6 6z" fill="#141414" stroke="#141414"/>
  <path d="m542 108l2-1h2v7l-2 8q-2 9-2 10v2q-1 0-1 1-1 0-1-3t-1-2q-1 2-1 2l-1-1v-1q1-1 1-3v-2l1-2 1-2v-1h-2v1h-1v1h-2v1h-1v1h-1q-1 0-8 4l-7 4v1h-1v-3h-4v-1h1l1-1h2l1-1 1-1 6-4q7-4 10-7 4-3 4-4h1v-2h1v-1h1z" fill="#131313" stroke="#131313"/>
  <path d="m520 546l2-5h1q1 0 1 1 1 0 1 0 1 0 1 0l-2 4q-2 5-2 6v2l-1 1-1 1v3h-1v1h-3v-8h1v-1q1 0 3-5z" fill="#1f1f1f" stroke="#1f1f1f"/>
  <path d="m487 395h1v2h1l1 1h3v1q0 1-7 4t-7 4-5 6l-6 5q-1 0-1 1h-1q-1-1-1-1h1-2l-1-1v-2l1-1v-1h1v-1h1v-1l6-6q6-5 10-7t5-3z" fill="#131313" stroke="#131313"/>
  <path d="m556 512v-2l1 1q1 1 1 2h1v11q-1 11-3 19-4 8-10 14-6 5-7 6l-1 1-1 1v1h-2v-2h-3v-3l1-1 1-1 1-1q1 0 7-6t8-12q2-5 3-16l1-11t2-1z" fill="#141414" stroke="#141414"/>
  <path d="m506 744l3-5h1q1 1 1 1l-2 6q-3 5-2 6 1 0 1 1h1v1q0 2 1 2t1 2v1h-1q0-1-2-2t-2-2-8 0l-7 1q-1-1 0-2v-1l2-1q2 0 2-1h1v-1h1q1 0 3-1t6-5z" fill="#1c1c1c" stroke="#1c1c1c"/>
  <path d="m483 139h1v1t1 2v2h-1t-1 1-15 2l-15 2q0-1 2-1 1-1-1-3l-2-2 14-1q14-2 15-2t2-1z" fill="#1d1d1d" stroke="#1d1d1d"/>
  <path d="m526 229v-1l6 4q6 4 6 4h1l1 1 1 1v2q-1 1-1 1h-1q-1-1-8-5l-7-5v-1q-1-1 0 0 2 0 2-1z" fill="#1e1e1e" stroke="#1e1e1e"/>
  <path d="m215 412l4-6h2v1q0 1 1 1t2-1h1l-3 5q-4 4-4 4h-1q-1 0-1 1t-1 0-3 1l-3 1v-1q0-1 1-1t5-5z" fill="#171717" stroke="#171717"/>
  <path d="m299 987l2-9v1h1v5h1v-1h1v-1h1l1 1-2 9q-2 8-2 9v1q-1 0-2-1-1 0-1-1-1-1-1 0 0 2-1 2h-1v-2l1-2q1-2 2-11z" fill="#181818" stroke="#181818"/>
  <path d="m673 651v-1h1q1 0 2 1h1q0 1 1 1l1 3q1 3 5 3 3 0 8-1h6v1h-2v1h-1v1h1l2 1 1 1h-5q-5 0-20 4l-15 4v1h-1v1h-2v-2h1v-1h-1v-3h2v-1h-1v-1h1l8-3q8-2 8-5 0-4-1-5z" fill="#131313" stroke="#131313"/>
  <path d="m0 577v-577h867v1154h-867v-577zm149-539h1l12 1q11 1 12 1h2l8 2q9 2 9 2l7 2q6 2 8 4 3 2 4 2l9 7q9 7 10 7v1l11 9q10 8 11 8v1l9 11q10 10 13 12t3 2v1t1 1l15 16q14 15 17 18 2 4 2 4h1v1h1v1h1v1l1 1 7 8q7 8 12 6 6-2 13-2h11q4 0 5-3 2-3 3-3 0 0 0-1h1q0-1 1-1 0-1 1-1v-1h1l9-6q9-4 13-6 4 0 7-1h3q0-1 0-1h1l23 1q22 1 23 0h1l14-1q14-2 16-2h1t1-1h2l1-1 13-4q12-4 12-5h2l1-1h2l1-1 1-1 6-4q7-4 10-7 4-3 4-4h1v-2h1v-1h1l2-1h2v7l-2 8q-2 9-2 10v2q0 1-1 1v3q-1 3-1 5t-4 12l-4 10v1t-3 4l-3 5v1h-1v1h1v1h3q3 1 10 6 7 6 7 6h1q1 0 1 0v1l5 3q5 3 5 4t3 3 4 3h2v1h1v1h2q3 0 8-1 4-1 10-5t6-4h1l1-1v-1h1v-1h1v-1l6-8q6-7 12-17 6-11 7-12t1-2h1v-1h1v-1l1-1 1-1v-1h1l9-11q8-11 8-11h1v-1h1v-1l10-10q10-10 10-10l2-2q1-2 2-2v-1h1v-1h1v-2h1l11-10q10-8 12-10 2 0 3-1h1v-1h2l2-1 1-1 9-3q10-3 18-3t8 0l13 2q13 2 18 5t9 7q6 4 8 7t2 4l1 1v1l3 3q2 3 3 3t8 12 7 13l3 6q3 5 3 6l3 10q3 10 3 12v1l3 11q3 10 3 11v1l2 14q2 14 2 16v3h-1v1h1v1l-1 1-1 2-1-1-1-1h-1v-1h-1q0-1 0-1h-1q-1 0-3-2l-2-2h-1v-1h-1v-1h-2v2l1 1 1 1v2h1v1l1 9q2 10 2 15v5l1 13q1 13 0 23-1 11-1 12v2l-1 12q-1 12-2 15v3l-1 4q0 5-1 6v2l-5 15q-4 15-4 16l-2 7q-2 8-3 10l-1 1v2h-1l-1-1h-1q-1 0-2-2l-1-3v2l-1 1q-1 1-2 4l-1 2-4 12q-4 11-5 12v2q-1 0-5 6l-4 7v1t-9 8l-8 9v1q-1 0-1 0-1 0-7 4t-12 6-7 2q-1-2-8 1l-8 3h-4t-16 3l-17 2h-3q-4 1-16 0h-13v2h1v1l1 1 1 1v1l6 9q4 8 8 12 2 5 3 6l1 1v1l1 1 1 1v1l8 15q8 14 8 16 2 3 2 4v2l3 8q3 9 4 9h1q0-1 2-1h1l2-1q2-1 10 0t9 1 3 1h2l6 5q5 4 7 6 0 2 1 2v1l1 4q2 4 1 11t-7 18q-8 12-8 12l-4 8q-4 9-4 11t-1 5v2l1 4q0 4 13 6 13 4 13 4l6 2q7 2 8 5 2 2 5 5 3 2 5 8 4 5 4 8v4l1 4q1 5 1 6v2l4 8q4 7 4 8v1l2 3q2 4 2 6v1l-1 8q-1 8-1 25t-2 21-2 5v1q0 1-3 4t-10 6l-7 3h-2t-2 1-14 3q-13 2-14 5 0 3-6 9l-6 7q0 1-2 2-1 1-14 8l-12 6t-1 0q0 1-13 1t-22-4l-8-3h-1v-1h-2v-1q-1 0-2-1l-2-2h-1t-3-5l-3-4h-1v-1h-1v-1l-1-1-1-1v-1h-1v-1h-1v5l1 22q1 22-3 40-4 19-5 24t-2 6l-1 2v2h-2l-1 1-1 1h-3l-1 1-3 1q-3 2-17 19t-17 22-4 6l-1 1v1h-1v1h-1v1l-18 29q-18 30-18 31v1l-1 1-1 1v2h-1l-7 14q-8 14-8 16 0 1 3 2t3 4q-2 3-4 8-2 4-3 5l-1 1v2h-1v1h-1v1l-2 5q-2 5-2 7v1l-1 1-1 2v2h-6v-3l1-2 1-2v-1q0-1 3-7l3-6v-3l1-1q1-1 1-3 1-2-2-3-2-1-2-4t1-6 10-18l9-15v-2h1v-1h1v-3l1-1q1-1 18-30l17-29v-1h1v-1h1v-2h1v-1q1 0 1-1t12-15l11-15h1v-1h1v-1h1v-1h1v-1h1v-2h-2l-2 1-1 1h-2q-2 0-10 2l-8 2q-1 0-17 4t-29 4l-13 1q0 1-19 1t-43 0q-24-2-49-6l-25-4h-4v-1h-3q-2-1-17-5l-14-4-1-1-1-1h-2q-1 0-2-1h-1q-1-1-5-3l-5-2v-1h-1v-1h-3l-1 25q-2 25-2 28t-1 7l-1 3v2l-2 9q-2 8-2 9v1l-2 8q-2 7-3 8v1l-1 3q-2 4-2 6v1l-1 1-1 1v3h1v-1h1v-1h1t1-1q0-1 2-1h4v4l-4 14q-4 15-5 15l-5 12q-6 11-12 20t-10 11q-4 4-5 4h-1v1h-1v1h-1l-1 1-1 1h-5v-1h1v-1h2v-1h1v-1h1v-1h1v-1h1t2-2 8-9 13-21l7-15v-1t1-2l1-1v-1q0-1 2-4v-4l1-1 1-1v-4h-2v1l-2 1q-1 2-4 2h-3v-4l1-3v-1q0-2 5-13l4-11v-2q1-2 2-6l1-4v-2l1-2q1-2 2-11l2-9v-2q1-3 1-6t2-29q0-26-5-31l-6-6h-1v-1h-1v-1q-1 0-1-1l-1-1h-1t0-1h-1v-1h-1v-1h-2v2l-6 9q-6 10-10 14-3 4-3 4h-1t0 1h-1q0 1-1 1l-8 5q-7 5-14 8-6 3-7 4l-1 1h-2t-12 4-22 4q-11 0-19-2l-8-2v-1h-1q-1-1-3-1l-2-2h-1q-1 0-2-1-2-1-8-5l-6-5v-1l-1-1-1-1t-1-1q-1 0-1-1v-1q-1-1-4-5-4-6-6-14l-2-8v-7q0-4 1-8t3-9q2-6 4-8 2-1 2-2t1-1h1l2-1q3-2 12 0 10 2 11 3t2 1v1h1l1 1h2l1 1q0 1 0 1h1v1h1v1h1v1h1v2l1 1 1 1v-3l-1-1-1-1v-3h-1v-1h-1v-1t-9-5l-9-4-1-1h-1q-1-1-4-1-3-2-26 0h-26v-1h-2l-1-1-5-2q-6-2-7 1t-2 4v1h-2v-1h-1v-2l-1-1q-1-1-2-3t-2-2-3-3l-2-3v-1q0-1-1-2l-1-2q-1 0-1-1v-1h-1t-2-3l-2-3h-2l-4 2q-3 4-4 4h-1v2h-3v-2l-1-5v-11q1-7 2-12l1-4v-2q0-2 1-6 1-3 0-3-1-1-5-3l-4-3v-1q0-1 0-3t1-3l2-2 1-1v-1h1v-1h1v-1h1q1 0 4-3t6-7l4-3v-1h1v-1h1v-1h1l1-1q1-1 11-5 11-6 21-8l10-3h1l1-1h2q2 0 11-5l8-5q0-1 8-10l8-8 1-1h1v-2h1v-1q1 0 1-1t1-1 4-5l3-5v-2h1v-1h1v-2l-1-1h-1q-2 0-4-1l-3-1h-5v-7h1v-1h1q1 0 4-4 3-2 8-6l5-4 1-1v-1l1-1 1-1 1-1q1 0 4-5 3-4 8-8l5-4v-1h1v-1h1t9-8l9-8 1-1 1-1t1 0q1-1 4-4 4-2 4-3 1-1 7-7l6-5v-1h1v-1h1v-1h1l1-1q1-1 12-8l11-7q1-1 1-1v-1h1l1-1 1-1h1l1-1q1-1 9-5l8-4h2v-1h1v-1h-1v-1l-1-1h-2v-1h-1v-1h-1q-1 0-7-4l-7-2-1-1q-2-1-2-1h-2t0-1h-6q-7 1-8 2 0 1-1 3l-1 3v1h-2l-1-1-1-1h-1v-1h-1v-1q0-1-1-1 0-1-5-9l-4-8q-1 0-1-1v-1q-1 0-3-6l-2-6v-3h-1v1h-1v1h-1v1l-3 3q-2 4-3 4v1h-4v-1h-1v-1l-1-1-1-1v-1t-2-3l-2-4v-2t-3-10q-3-9-2-18l1-10v-4h1-4l-1 1h-1v2h-1l-1 1h-1l-5 3q-5 3-5 4h-1v1h-6v-1l-1-1v-8q0-3 2-10l2-8v-1q0-1 6-11l6-10h1v-1q1 0 1-1h1v-1l1-1v-1h1v-1h1v-1q0-1 5-7l5-5v-2h1v-1h1v-1h-1v-1h-1q-2 0-4-2h-3v-1h-1q0-1-8-4l-7-4h-1q-2-1-8-3l-7-4h-1q-1 0-2-1l-1-1h-1t-1-1l-1-1h-2l-1-1q-1-1-3-1-1-2-6-6l-4-4h-1v-1h-1q0-1-1-2l-1-2q-1-1-1-1h-1v-1h-1v-1h-1v-1l-1-1q-1-1-1-2-1-2-2-2t-6-8l-6-7v-2h-1q0-1-1-2v-1h-1v-1h-1v-2h-1v-1h-1t-6-9l-6-9h-1v-1h-1q0-1 0-2l-1-1q-1 0-8-14l-7-13h-1v-1h-1v-2l-1-2v-1h-2v1l-1 2v4q-2 5-2 7v2h-2l-2-1h-1v-1h-1v-1l-1-2-1-1v-2l-1-1-1-2v-4q0-1-1-4l-1-2v-5l-1-1q-1-2-1-3l-1-1-1-1v-2l-1-1-1-2v-2q0-2-2-12t-3-22q-1-11 1-22l1-12h-1q-1 0-4 0h-4v-20l1-2q1-3 5-17l5-14v-1q1-1 3-7l3-6v-1q1 0 1 0v-2l1-1q1-1 3-5t8-8l6-5h1v-1h2l1-1v-1h1v-1h1v-2h-2l-2 1h-1q-1 0-5 0l-3 2h-3v-6l1-1 1-1v-1l1-1q1-1 1-3l2-2v-1q0-1 1-2l1-2v-2h1v-1h1v-1q0-1 8-10l8-9v-1h1v-1h1v-2h1v-1l11-8q11-10 12-10h1l7-3q6-3 12-5t7-2zm296 976l-1 1v1q-1 2-2 2t-3 4q-2 3-3 3t-16 21q-14 20-15 21l-1 1v1l-1 1-1 1q0 1 0 1h-1l-8 18q-9 19-9 20v1l-1 1-1 1v1h-7v-1h1v-3l1-2 1-1v-1q0-2 2-4 0-3 8-18l8-16v-1l1-1 1-1v-1l1-1q1-1 11-15 10-15 21-26l10-12 1-1v-1h1v-1h1v-1l10-10q10-10 12-10 3 0 3 2-1 2-12 14t-12 12z" fill="#fefefe" stroke="#fefefe"/>
  <path d="m445 1014l-1 1h-2v-2l-1-1v-2l1-1v-1h1v-1h1v-1l10-10q10-10 12-10 3 0 3 2-1 2-12 14t-12 12z" fill="#101010" stroke="#101010"/>
  <path d="m769 698l-1-6h1v1h1v3h1v1h1v-1l1-1 1-1 1 4q1 5 1 6v2q-1 0-2 1l-2 2v-2l-1-1q-1-1-2-8z" fill="#181818" stroke="#181818"/>
  <path d="m612 343l1-2 5 4q4 4 6 7 2 2 2 4v2l1 2q1 2 1 4v1l-1-1-1-1v1h-1l-1 1h-2v-2q0-2-2-5 0-3-3-6l-2-4h-1t-2-2l-1-1q0-1 1-2z" fill="#171717" stroke="#171717"/>
  <path d="m823 217l1 9q2 10 2 15v6q0 1 0 2t-2 1h-1v-2q-1-1-2-13l-1-12h1v-1h1v-2q0-3 1-3z" fill="#161616" stroke="#161616"/>
  <g fill="#191919" stroke="#191919">
   <path d="m232 556l-5-9h1q1 0 1 1 1 1 1 0t2-1h1l3 6q3 5 9 3t10 0q5 1 5 2v1q-1 1 0 1t1 1v1h-1q-1 0-7 0t-7 3l-2 4v1h-2l-1-1-1-1h-1v-1h-1v-1q0-1-6-10z"/>
   <path d="m416 539v-1h2q1 0 2 1h1l6 6q6 7 12 10t7 4q2 1 4 1h1v2h1l-2 1-1 1h1l1 1 1 1h-4v-1h-1v-1h-1q-2 0-8-4-7-4-12-9l-6-5v-1l-1-1q-1-1-1-2 0-2-1-2t-1-1z"/>
  </g>
  <path d="m606 921h1v1h1v3l-3 1q-3 2-17 19t-17 22-4 6l-1 1v1h-1v1h-1v1h-1l-1 1v-2l-1-1-1-1h-2v-1h1v-1h1v-2h1v-1q1 0 1-1t12-15l11-15h1v-1h1v-1h1v-1h1v-1h1v-2h-2q0-1 0-2l-1-2 9-4q8-2 10-3z" fill="#121212" stroke="#121212"/>
  <path d="m726 565l1-2 6 5q5 4 7 6 0 2 1 2v1h-1q0 1 0 1t-2 0h-2t-1-2l-1-1q0-1-1-2t-4-3l-3-1v-1q0-1 0-3z" fill="#1d1d1d" stroke="#1d1d1d"/>
  <path d="m273 110v-1h1l1 1h1l1 1h1q0 1 0 1h1l15 16q14 15 17 18 2 4 2 4h1v1h1v1h1v1l1 1v2l-1 1v2h-2v-1l-1-1-1-1v-1h-1v-1h-1v-1h-1q0-1-4-5-3-5-16-18l-12-12v-1h-1q0-1-2-3l-1-2v-2z" fill="#161616" stroke="#161616"/>
  <path d="m646 126h1v1l-1 1 1 1 1 1h-2l2 1h2v1t-1 0l-1 1v1q0 1-5 6-5 6-8 9t-3 4v1h-1v1h-1v-2h-1v-1h-2l-1 1h-1v-1h1v-1l1-1 1-1v-1h1l9-11q8-11 8-11z" fill="#171717" stroke="#171717"/>
  <path d="m168 694v-2h1l4 3q4 3 4 3l1 2q1 2 0 2t-1 1h-1q0-1-4-3l-4-2t-1-1q-1 0-1-1t1-1 1-1z" fill="#121212" stroke="#121212"/>
  <path d="m546 192l1-2h1q1 0 1 1t5 3q4 3 4 4t3 3 4 3h-1v2h-1v1h-1q-1-1-6-5l-6-4-1-1q-1-1-1-1h-1q-1-1-1-1 0-1 0-3z" fill="#1b1b1b" stroke="#1b1b1b"/>
  <path d="m744 665h2l6 4q7 3 11 9 3 5 4 6 1 2 1 5v3l1 6q1 7 2 8l1 1v3t1 2l1 1 3 6q3 6 4 6v1q1 2 1 6v5l-1 6q-1 6-1 23t-1 18q-1 2-1 3v1t-4 4q-2 3-8 5l-5 3h-2l-1 1h-2q-2 1-7 1-5 2-23 3-19 1-41 2h-22v-1q-1 0-1 0-1 0-2-1t-4-4q-2-4-3-13v-10q1-1 1-9l1-8 10-1q10 0 19-2t15-2h19q13 0 16 1 2 1 4 1h1l2 1 2 1h1l1-1h1v-3h-1v-1h-1v-1h-2l-2-1q-2-1-6-1-3-2-18-2h-21q-7 0-15 2t-16 2-11 0q-3-2-5-5t-2-13v-10l1-1q1-1 2-3l2-3h1q0-1 0-1l7-4q7-4 17-6t10-3h6q5-1 8-1h15q13 0 20 1t7 1v-1h1v1h7v-3h-1v-1h-1l-2-1-2-1h-6q-5 0-21-1l-16-1h-1t-12 1l-11 1h-1q-2 0-6 2-3 0-10 4l-8 4h-1v1h-1v1h-1v1q-1 0-1 1h-1v1h-1v1h-3v-1h-1v-2l-1-1-1-2v-2q0-1-1-11v-10h1v-2h1v-1h1l4-5q5-5 7-6 3-1 3-1 1 0 1-1h1l1-1 15-4q15-4 20-4h21q16 0 21 2 5 0 8 1z" fill="#fcfcfc" stroke="#fcfcfc"/>
  <path d="m292 898l1-1 9 6q8 7 19 12t11 6h-2l-1 1h-2q-2 0-2 1 1 1 1 1v1h-1q-1-1-5-3l-5-2v-1h-1v-1h-3l-1 25q-2 25-2 28t-1 7l-1 3v2l-1-1h-1v1h-1v1h-1v-5h-1v-3q1-3 1-6t2-29q0-26-5-31l-6-6h-1v-1h-1v-1q-1 0-1-1l-1-1h1q2 0 2-2z" fill="#141414" stroke="#141414"/>
  <path d="m294 242v1l-4 10q-4 10-5 10 0 1 0 1h-1v-4q0-3 4-10l3-8h1q2 0 2 0z" fill="#202020" stroke="#202020"/>
  <path d="m100 327h2l8 12q8 11 9 12 1 0 1 1v1h-2q-2 0-2 1v2h-1v-1h-1v-2h-1v-1h-1t-6-9l-6-9h-1v-1h-1q0-1 0-2l-1-1q1 0 1 0t0-1q1-2 2-2z" fill="#171717" stroke="#171717"/>
  <path d="m404 142h1v1q0 1-1 1t-1 2q0 1 3 1 3 1 3 1h-5q-4 0-12 2-7 2-12 6-6 4-6 5t-1 1h-1v-4h-1v1h-1v1h-2v-2h1l1-1 1-1h1l9-6q9-4 15-6 7-2 8-2z" fill="#1f1f1f" stroke="#1f1f1f"/>
  <path d="m753 147l1 1h2v1h1v1h1v1h1v1h1v1l1 1v1h-2l-2-1h-3l-2-1q-1-1-10 0-10 1-18 3l-7 3v-2q-1-2-2-3h-1t1-1l1-1h2l1-1 1-1 5-2q5-4 15-3 9 1 10 1 2 0 3 1z" fill="#121212" stroke="#121212"/>
  <path d="m206 846h2q2 0 2 2v2t-1 0v1l-5 5q-4 4-8 8-2 5-3 5t-3 0h-2v-1t2-2v-2l1-1 1-1v-1t2-3 6-7l5-4h1q0-1 0-1z" fill="#141414" stroke="#141414"/>
  <path d="m327 922h2l1-1h2l15 5q15 4 19 5 3 1 4 1h1l-4 1q-4 1-4 2h1v1h1v1h-2q-2-1-17-5l-14-4-1-1-1-1h-2q-1 0-2-1v-1t-1-1q0-1 2-1z" fill="#171717" stroke="#171717"/>
  <path d="m712 154h3q1 1 2 3v2h-1q0 1-2 2-3 1-10 9-7 6-14 18t-14 28l-6 16-1 2-1 1v3h2v-1h1v-1h2v-1h1v-1l14-7q13-7 14-8l1-1h1l2-1h3v1l1 1v3h-1l-1 1-2 1h-1q-1 0-6 4-5 2-10 6t-9 10q-4 5-8 14t-6 18l-2 9v9l1-1 1-1v-1l1-1 1-1 6-6q6-5 12-9 7-2 10-3l2-1h5v1h1v5h-3v1h-1v1h-1q-1 0-9 6-7 6-10 9t-4 3-10 14q-8 13-14 18-4 5-6 20 0 15-3 30l-3 15v4h-1v-3l-1-3v4l-1-1-1-2v-1t-1-1v-3q1-2 1-8 2-6 2-27t-2-28l-2-7-1-1-1-1v-2h-1v-1h2v-1h1v-1h1v-1h1v2h1v1h1l1 2q1 3 2 4l1 1v2l1 1 1 2v-1h1v-1h1v-1l1-1 1-1v-2h1q0-1 2-5 3-5 3-18 0-14-1-22t-7-19l-5-11h-1v-1l-1-1-1-1v-1h-1v-1h1l1-1h2v-1h1v2h1v1h1v1h1v1l1 1q2 2 2 3v1l1 1 1 1v1l1 1 1 1v1l2-7q0-6 11-29t17-33q6-9 13-16 7-6 11-9 5-3 6-3z" fill="#0b0b0b" stroke="#0b0b0b"/>
  <path d="m555 780h1l8 2q7 2 8 3h2v1t-1 1v1h-2l-3-1-2-1h-2q-1 0-4-2l-4-1v-1t-1 0q-1-1 0-2z" fill="#232323" stroke="#232323"/>
  <path d="m782 414l2 2q1 2 2 1h1v1q-1 0-5 6l-4 7h-2q-1 0-1-1t-1-1h-1v-1l1-1v-1q1-2 2-2t3-4q3-5 3-6z" fill="#191919" stroke="#191919"/>
  <path d="m63 279l2 5q3 4 3 6v3l1 1q1 1 1 2v1l-2 1q-1 0-2 1h-2v-1q0-1-1-4l-1-2v-5l-1-1q-1-2-1-3l-1-1h1l1-1 1-1h1v-1z" fill="#151515" stroke="#151515"/>
  <path d="m711 462h2v1h1v1l1 1v1h-1t-16 3l-17 2v-1q-1 0-1-1-2-1 0-2l2-1 14-2q13-2 15-2z" fill="#161616" stroke="#161616"/>
  <path d="m262 351l-1 5q-1 6-9 18-8 11-8 12h-2q-1 0-1-1h-1v-1h-1v-1l1-1v-1h1v-1h1v-2h1t4-6 7-14l3-8h1q1 1 1 0 1-2 1-1 1 1 2 2z" fill="#181818" stroke="#181818"/>
  <path d="m544 216v-2l2 5q2 5 2 13 2 8 2 10v1l1 3v2h-4v-1h-1v-1h-1l-1-1q-1-1-2-2l-2-2t1-1v-2h1v1h1q0-1 0-1 1 0-1-10l-1-11h1q2 0 2-1z" fill="#1b1b1b" stroke="#1b1b1b"/>
  <path d="m596 196v-1h1q1 0 1 1t-1 1-1 1v1l1 1v2q-1 0-9 4l-8 4v1h-1v1h-3v1h1v1h1v1h1v1h1l2 2q1 0 2 1 0 1 0 1h1t-1 1l-1 1h1v3q-1-1-2-1t-9-7l-7-7h-1v-1h-1v-1h-1v-2h1v-2h3v1h1v1h2q3 0 8-1 4-1 10-5t6-4h1q1 0 1 0z" fill="#131313" stroke="#131313"/>
  <path d="m584 295h1v1q1 1 1 1v1h-2v1h1v1h1v1h1v1q-1 0-8 6-8 6-11 10-4 4-5 4t-2 2l-1 1v1h-1v1h-1v1h-1v1h-1v1h-1 5l8 1q9 1 12 3 4 2 4 3t7-2 13-2q7 1 8 2 0 2 0 3t0 2 1 0v1l-1 2q-1 1-1 2l-5-3q-6-4-13 1-7 4-12 11t-5 10q-2 2-1 12 1 9 4 14 4 4 9 8 5 2 9 2t11-6q6-5 10-11 2-6 3-9 1-2 1-6v-3h2l1-1h1v-1l1 1 1 1-1 9q-1 10-7 18-5 8-8 9-4 2-4 14-2 12-6 22-4 11-6 15-3 4-4 4t-6 5q-4 5-13 10t-11 5q-2 1-3 1v1h-7v1h-1v1h1l2 1 1 1 5-1q6-1 8-1h1l1-1 2-1h1v2l1 1v1h1v2h-2l-1 1-1 1h-1q-2 0-8 2l-7 1v3q1 2 1 5v3l1 2v2h-4v-1h-1v-1h-1v-3q-1-3-3-13-4-10-22-44t-22-38-8-5l-3-1h-1v1l-1-1h-1l-1-1h-1v-3h2v-1h1v-1l5 1q6 0 6 1t2 2q2 0 3 1h1l5-12q5-13 14-27 9-15 22-29 12-15 23-23 10-9 11-10 0-1 1-1z" fill="#040404" stroke="#040404"/>
  <path d="m541 1003l17-29h2l1 1 1 1v2l1-1h1l-18 29q-18 30-18 31v1l-1 1-1 1v2h-1l-1-1-1-1h-3v-2h1v-1h1v-3l1-1q1-1 18-30z" fill="#131313" stroke="#131313"/>
  <path d="m302 1002l-2 8q-2 7-3 8v1h-1q-1-1-2-3l-1-2v-2q1-2 2-6l1-4h1q1 0 1-2 0-1 1 0 0 1 1 1 1 1 2 1z" fill="#141414" stroke="#141414"/>
  <path d="m537 194h1v2l3 8q3 7 3 8v4q0 1-2 1h-1v-1q-1-1-4-11l-3-10h1q1 0 2-1z" fill="#1a1a1a" stroke="#1a1a1a"/>
  <path d="m253 86v-1l9 11q10 10 12 12 3 2 4 2h1v2h-2v-1h-1v-1h-1l-1-1h-1v3h-2v-1q-1-1-2-3-2-2-3-2t-7-7l-7-7v-2h-1v-1h-1v-1t-1 0v-1h1t1 1q1 0 1-1t1-1z" fill="#191919" stroke="#191919"/>
  <path d="m87 118v1l-5 3q-5 3-10 10-4 8-5 10l-1 1v1l-1-2-1-2v-2h-1l-1 1h-1v-1l1-1v-1l1-1q1-1 3-5t8-8l6-5h1v-1h3q2-1 2 0 0 2 1 2z" fill="#141414" stroke="#141414"/>
  <path d="m818 325l1-4 1 2q2 3 2 3h1l-1 4q0 5-1 6v2h-1q-1 0-1-2-1-2-1 0t-1 0v-4q1-3 1-7z" fill="#1e1e1e" stroke="#1e1e1e"/>
  <path d="m354 242h3l-1 1v1h-1v1h1v1h1v1h-3q-3 1-10 3-6 2-6 3t-1 1h-1v-1q0-1 0-3v-1l8-3q7-4 10-4z" fill="#161616" stroke="#161616"/>
  <g fill="#151515" stroke="#151515">
   <path d="m529 634l4-3-1 2q0 2 1 2 1 1 1 1h1l-1 1q0 1 0 1h-1v1h-1v1h-1v1h-1v5h1v1h1v1h4l1-1 1-1h1q1 0 1-1t1-1h1v1q-1 1-1 2h-1v3h2-1v1h-1v1t-4 3q-4 2-10 7l-7 4q-1-1-1-2 0 0 0-1l-1-1q1-1 5-4 4-4 4-6-2-3-2-2l-2 1v1l-1 1-1 1v1l-3 3q-3 4-3 4v1h1v1h-1v2h-1l-1 1h-1v-2h-1l-1-1h-1v-2h1v-1h1v-1l1-1q1-1 7-11 8-10 11-14z"/>
   <path d="m529 160v2q0 2 1 2t2 1v1t-3 4l-3 5v1h-1v1h1v1h3q3 1 10 6 7 6 7 6h1t1 1v1q-1 0 0 1 1 0 1 1l-1 1v1h-2v-1l-1-1h-2l-1-1-2-1h-4l1 1v1q-1 1-2 1h-1l-1-1q-1-1-1-3-1-2-2-2t-2-3q-1-2-5-5-5-3-2-8l3-5 2-4q2-4 3-4z"/>
  </g>
  <path d="m226 614l6-5 1 1q1 0 1 1t1 1v1l-13 11q-12 12-13 12h-1v-2h2v-4h-2l1-1 1-1t1 0q1-1 4-4 4-2 4-3 1-1 7-7z" fill="#161616" stroke="#161616"/>
  <path d="m641 834l1-1 8 4q7 3 14 5 8 2 14 2 5 0 7-1h2l1 1q2 2 2 2v1t-1 0q0 1-13 1t-22-4l-8-3h-1v-1h-2v-1q-1 0-2-1l-2-2h1t1-2z" fill="#151515" stroke="#151515"/>
  <path d="m652 778h1v10q1 9 3 13 3 3 4 4t2 1 0 1h1q0 1-1 1h-2v1l-1 1v1h-1q0-1-1-2t-5-7q-4-5-4-14t0-11l1-2 1-1q1 0 1 2t1 2z" fill="#1c1c1c" stroke="#1c1c1c"/>
  <path d="m480 618l5-18h1q1 0 1 2v1h1l1-1q1 0 1 0l-3 14q-3 13-4 17-2 5-3 6 0 1-6 3-7 2-16 1-10-1-12-1h-3v-1h-1l-1-1v-2h4v-1h-1v-1h3q3 0 7 1 3 1 12 0 10-1 14-19z" fill="#141414" stroke="#141414"/>
  <path d="m166 692h2v6h-1q-1 0-7 9-5 9-6 10 0 1-1 1h-1q-1 0 0-1 0-1 0-1h-4l1-1h1v-2h1v-1q1 0 1-1t1-1 4-5l3-5v-2h1v-1h1v-2t1-1q0-1 3-2z" fill="#171717" stroke="#171717"/>
  <path d="m574 786v-1l14 2q14 1 14 2l-1 1q-1 1-1 2h-5q-5 0-13-2l-9-2v-1q1-1 1-1z" fill="#242424" stroke="#242424"/>
  <path d="m336 249v1q-1 2 0 2t1 1h-1q0 1 0 1-1 0-7 6l-6 6h-1t0 1-1 1v1h-1q-1 0-1-1t-1-1h-2v-2h1l1-1h1v-1h1v-1l8-6q7-6 8-7z" fill="#151515" stroke="#151515"/>
  <g fill="#191919" stroke="#191919">
   <path d="m140 383l1-1 5 5q5 5 11 9t6 5v1q0 2-1 2h-2t-1-1l-1-1h-2l-1-1q-1-1-3-1-1-2-6-6l-4-4h-1v-1h-1q0-1-1-2l-1-2q1-1 2-2z"/>
   <path d="m404 764l9-7v1q1 0 1 0v1q-1 1-1 1h-1v1h1l-7 7q-7 6-8 7 0-1-2-1h-1v-1q0-1 9-9z"/>
  </g>
  <path d="m218 734l1-1 8 8q9 8 12 11 4 4 5 4t1 1h-1v3l-1 1h-2q-1-1-5-3-3-2-6 1l-4 3v1l-2 3q-2 2-2 4 1 2 2 4 2 1 2 2v3l-1 1v1h-1l-1-1h-3v-1h-1v-1h-1v-1h-1q0-1-7-7l-6-6h-1l-1-1v-3h-1v-1h-1v-2h4l1 1h2l5 4q4 2 6 3h1v-1q1-1 1-1v-1l1-1q1-1 1-1v-1h1v-1h1v-1l1-1q1-1 2-4t-3-8l-4-4h-1v-1h-1v-1t-1-1l-1-1q1 0 1-1-1 0 1-1zm5 43q1 0 1 0 0 1 0 1-1 0-1-1z" fill="#101010" stroke="#101010"/>
  <path d="m354 247h5l2 1 12 6q11 7 17 11 5 4 5 5t3 4q2 2 8 10 4 7 5 8l1 1v1l1 1 1 1v4l-2-1-1-1h-2l-1-1h-2q0-1-10 0-9 1-13 3t-4 3v1h-2v-1h-1v-1q0-2-3-6-3-5-9-8-7-2-14-2-6 2-14 7-9 5-9 6t-1 1-6 6q-4 6-10 16-6 9-10 21l-4 12v5l-1 2-1 1v-11q0-11 2-16v-4l1-2v-2l1-1v-1q0-2 5-18l5-17t1-1 2-5q3-5 6-11l4-5q1 0 1-1v-1t1-1l6-6q6-6 7-6 0 0 1 0v-1l5-2q4-3 6-3 3 0 6-1z" fill="#f9f9f9" stroke="#f9f9f9"/>
  <path d="m481 681v1l-1 2q0 1-1 2l-1 2v6h5l1-1 1-1h2l2-2q3-2 3-2 1 0 1-1l5-3q4-3 6-7 3-3 5-3 1 1 2 1v1h1v2l1 1q1 1 1 3v1q0 1 0 1h1v1l1 5q0 6 1 10v15l-4 11q-3 10-4 12v1l-3 5q-4 4-6 5t-3 1h-1v1h-1q0 1-2 1l-2 1h-1q-2 1-10 2l-8 1h-4q-5 0-12 0h-12q-4 0-6-1h-4q-2-1-6-1-4-2-6-3-1-2-2-2-1-1-6-10l-6-9v-1l-1-2q-1-2-2-7l-2-6v-2l-1-3v-16t1-1v-1l7-3q8-2 10-3t3-2l1-1h1l1-1 1-1h3v1l-1 1-1 1v1l-1 1q-1 2-2 3l-1 1v4h1v1h3l10-3q11-3 12-3h1l13-6q12-5 13-5l3-2q4-1 3 2t-2 4z" fill="#fcfcfc" stroke="#fcfcfc"/>
  <path d="m636 766l3-7h1v1l1-1q1 0 2 0l-3 7q-4 7-4 8 0 0-1 0v1q-1 0-1 1h-1q-1 0-1-1v-1q0-1 4-8z" fill="#282828" stroke="#282828"/>
  <path d="m183 652l5-4h1v1h-1v1h1q1 0 1-1 1-1 1 1 0 0 0 1-1 0-1 1v1l-10 10q-10 11-10 11h-1v-1l-1-1h-2l1-1v-1l1-1v-1l1-1 1-1 1-1q1 0 4-5 3-4 8-8z" fill="#131313" stroke="#131313"/>
  <path d="m341 544v1l-1 3q-2 2 0 3 0 1 1 1l-1 1q-1-1-2-3-2-2-8-9l-6-8v-3l-1-1-1-1v-1h-1v1h-1v1l-1 1-1 1v1t-1 4v5h-2l-2-1h-1v-9l3-5q3-4 12-10t10-6 1 2-5 5q-5 4-3 10t6 11q4 6 5 6z" fill="#191919" stroke="#191919"/>
  <path d="m578 608h4l1 1q0 1 3 1 4 0 1 1t-3 1h1t-3 1-16 6l-13 6v-1l1-1v-1h1v-1h-1v-3h1l1-1 1-1 10-4q10-4 11-4z" fill="#161616" stroke="#161616"/>
  <path d="m256 828v-1h1v1h1v3h1v-1h1v1h1l5 5q4 4 9 8t6 4v2h-1q-2 1-2 0t-1 0v2h-1v-1h-1v-1h-1v-1t-1 0q0-1-3-1-4 0-9-6l-5-6v-1l-1-1q-1-1-1-2l-1-2h2v-1h1v-1z" fill="#141414" stroke="#141414"/>
  <path d="m212 53v-1l9 7q9 7 10 7v1l1 1q0 2 1 4v2h-1q-1 0-9-7l-8-7h-1v-1t-1-1h-1q0-1-1-1v-1q1-2 1-3z" fill="#1a1a1a" stroke="#1a1a1a"/>
  <path d="m526 767v-2l8 4q9 5 9 5l-1 1q0 1 0 2v1q-1 0-8-5l-8-4v-2z" fill="#222" stroke="#222"/>
  <path d="m430 340v-3l1 1 1 2v4l2 19q2 19 1 31-1 11-5 20-4 10-4 10-1 0-1 1l-8 10q-8 11-11 14-4 3-4 4h-1v1h-1v1h-1v1h-1v1h-2v1h-2l-2 1q-3 1-14 1h-10l-2-1-1-1h3l2-1 1-1h1q2 0 6-3 5-3 10-9 6-7 11-22 5-14 6-32t5-19 8-5l4-4v-1h1v-1h1v-2h1v-2h1v-2l1-2q1-1 1-6l2-4v-2z" fill="#f9f9f9" stroke="#f9f9f9"/>
 </g>
</svg>
