<?xml version="1.0" encoding="UTF-8"?>
<!DOCTYPE svg PUBLIC "-//W3C//DTD SVG 1.1//EN" "http://www.w3.org/Graphics/SVG/1.1/DTD/svg11.dtd">
<!-- Creator: CorelDRAW X6 -->
<svg xmlns="http://www.w3.org/2000/svg" xml:space="preserve" width="13in" height="18in" version="1.1" style="shape-rendering:geometricPrecision; text-rendering:geometricPrecision; image-rendering:optimizeQuality; fill-rule:evenodd; clip-rule:evenodd"
viewBox="0 0 13000 18000"
 xmlns:xlink="http://www.w3.org/1999/xlink">
 <defs>
  <style type="text/css">
   <![CDATA[
    .fil0 {fill:black}
   ]]>
  </style>
 </defs>
 <g id="Layer_x0020_1">
  <metadata id="CorelCorpID_0Corel-Layer"/>
  <g id="_2226031936">
   <path class="fil0" d="M2287 5594c1,1 20,4 14,19 -5,15 -1,5 -25,14 0,-15 -2,-12 2,-21 1,-2 3,-6 3,-7 1,-1 3,-4 5,-6zm193 -17l1 34 -66 5c1,-8 -6,-39 40,-44 43,-5 14,0 25,6zm-2 -30l-56 -3c-2,-60 4,-87 65,-84l-9 88zm602 -26l36 -18c-19,25 3,15 -36,18zm-737 37c0,-40 11,-66 42,-81 1,37 -5,71 -42,81zm-57 -22c1,-40 0,-49 39,-65 -8,34 -10,46 -39,65zm-215 2c4,-48 0,-59 34,-83 2,4 25,-10 6,44 -12,32 -15,27 -39,39zm112 63c-4,-41 -4,2 15,-42 -19,-28 -19,-42 3,-78 18,-30 30,-32 72,-27 1,31 -18,57 -34,83 -28,46 -8,65 -56,63zm-39 -107c5,-31 6,-33 33,-51 5,9 15,8 0,33 -13,21 -9,15 -33,18zm-97 -43c9,-37 -7,-29 39,-36 -6,48 -13,26 -39,36zm-280 42c3,-47 45,-116 92,-127 4,71 -27,113 -92,127zm766 112c-1,-47 5,-30 51,-41 -10,-10 12,-31 -60,-14 -7,-176 109,-75 389,-177 60,-22 108,-25 170,-50 30,-12 50,-22 79,-31l61 -20c41,-4 7,-3 21,7 19,25 14,65 10,102 -98,40 -195,132 -327,151 -97,14 -299,107 -393,72zm-818 -147l-40 -5c-3,-65 35,-136 98,-126 8,52 -38,94 -58,131zm-130 -59c7,-64 37,-98 92,-116 -8,40 -19,34 -36,68 -21,41 3,47 -56,48zm-271 -113c44,-17 14,-4 26,8 14,14 16,13 23,33 -31,-15 -49,-40 -49,-40zm1986 -57c16,-4 16,-21 24,13 8,34 -3,28 -15,37 -15,-11 -16,0 -19,-22 -6,-42 7,-26 10,-29zm-1834 44c7,-41 -9,-28 31,-31 -19,45 -1,7 -31,31zm37 59c-7,-14 -10,19 -7,-19 1,-16 -1,-8 6,-19 9,-15 76,-72 104,-83 -6,26 -25,55 -39,83 -6,12 -10,23 -22,32 -39,31 -41,6 -41,6zm1861 -129c10,5 14,-9 18,19 5,30 -9,23 -9,23 -11,-13 -23,-29 -9,-42zm73 -54l0 28c-9,-18 -16,-7 0,-28zm-234 0c0,-6 14,-22 9,-2 -3,10 -10,14 -9,2zm297 -80c26,38 21,55 -9,74 -8,-11 -14,-19 -13,-40 2,-37 7,-27 22,-34zm-1734 -148c70,-7 122,-43 165,-41 47,3 41,27 73,28 30,1 41,-29 64,-45 65,-1 60,28 112,45 73,25 66,-15 125,36 48,3 40,-9 88,7 36,12 51,29 85,36 59,12 111,36 171,55 52,16 147,14 183,45 83,70 -23,26 100,65 21,7 22,13 39,23 43,9 125,-120 154,38 -72,73 -101,40 -181,90 -45,28 -131,32 -222,51 -155,33 -355,30 -517,25 -120,-4 -325,-69 -433,-124 -50,-25 -185,-132 -70,-244l36 -46c21,-32 19,-15 28,-43zm-259 206c-36,60 -12,21 -62,51 -21,13 -28,35 -69,41 5,-14 88,-103 118,-115 19,-7 41,-14 61,-17 -3,34 -11,36 -49,40zm2029 -169c39,-1 19,-22 36,28 9,26 11,34 9,60 -35,5 -32,12 -47,-22 -10,-24 -8,-43 2,-66zm-567 -36c2,-2 -2,-30 91,-6 64,16 141,102 149,152 -91,-10 -66,-124 -192,-136 -8,-1 -20,0 -27,-2 -16,-3 -14,-5 -20,-8zm640 -44c15,9 14,-3 23,30 5,19 4,32 4,53 -32,-14 -73,-52 -27,-83zm46 -38l7 11c-2,23 3,3 -7,17 -9,-15 -22,-4 0,-28zm-2300 8c2,-48 2,-41 33,-56 -8,49 -4,42 -33,56zm698 -66c8,30 13,15 -3,37 -21,-23 -17,-16 3,-37zm1629 -47l29 88c-66,-2 -59,-55 -29,-88zm-1479 45c60,21 -7,12 93,62l20 -34c2,-2 5,-4 8,-6 25,24 47,24 80,9 64,-27 48,-43 65,-53 41,-23 275,26 356,72 115,64 4,76 146,117 83,24 58,36 135,103 36,31 43,15 51,74 -128,9 -120,-39 -174,-97 -39,-42 -185,-62 -191,-60 81,57 59,-16 150,82 23,25 25,13 26,53 -72,3 -183,-82 -277,-103 -47,-10 -103,-27 -148,-44l-93 -44c-39,-19 -16,-1 -31,-27 16,-25 13,-9 38,-27 -24,-21 -12,-18 -44,-8 -39,12 -27,-3 -56,8 20,50 19,7 35,46 -82,33 -180,-90 -184,-97l-8 -26zm-499 -47c-9,-16 -12,21 -9,-22 3,-39 0,-6 9,-22 1,3 13,16 0,43zm1997 -63c15,10 16,-1 29,40 -11,-1 -33,1 -37,-18 -8,-41 -6,-13 8,-22zm-401 415c-20,-19 -28,-38 -44,-55 -21,-22 -33,-19 -56,-46 -39,-48 -37,-76 -116,-95 -63,-15 -102,-15 -158,-41 -134,-64 -173,-80 -112,-138l-10 -53c51,-43 29,-33 84,-69 41,-26 41,-54 75,-78 30,-1 92,-4 117,1 52,11 59,10 75,51 40,1 67,-7 109,1 31,6 67,17 104,25 125,28 318,-147 232,148l-169 260c-50,61 -64,100 -131,88zm-919 -447c29,-25 18,-6 25,0 -18,13 27,10 -11,7 -22,-2 -1,4 -15,-7zm-366 -29c9,17 21,-1 0,25 -21,-31 -3,-21 0,-25zm-593 101c-1,-1 -24,9 -4,-58 5,-15 14,-37 22,-47 11,25 -5,83 -18,105zm2225 -122c7,18 1,15 -13,24 4,-25 -11,-15 13,-24zm-1532 -105c11,28 23,92 9,118 -18,-23 -9,-3 -15,-54 -10,-95 -5,-51 6,-64zm-175 53c12,17 11,-23 14,22 3,38 -6,18 -12,25 -13,-19 -8,-25 -2,-47zm-390 -34l65 23c0,20 2,47 -15,72 -11,16 0,1 -15,14 -13,-15 1,14 -15,-24 -17,-40 -25,-55 -21,-86zm337 -120c37,48 -13,74 19,192 0,0 7,30 7,30 1,43 -2,14 -8,24 -14,-23 -33,-143 -37,-181 -3,-37 -10,-48 18,-65zm-561 88c7,18 5,1 7,23 0,0 -1,14 -2,17 -15,-14 -25,4 -5,-39zm188 -7c25,28 13,-26 9,12 -3,28 10,-4 -9,16 -12,-15 -10,26 -7,-11 2,-19 -6,-5 7,-17zm2328 -24c51,-14 103,15 96,67 -52,1 -107,-6 -96,-67zm-2040 -24c-6,31 0,88 -24,103 -15,-25 -6,-7 -7,-51 -2,-66 16,-46 31,-52zm651 27c-14,-30 -3,-16 9,-23 15,46 -3,9 -9,23zm-483 -62c23,15 28,32 30,94l8 74c1,51 3,9 -11,29 -3,-6 -3,1 -9,-20 -13,-44 -36,-142 -19,-176zm-365 -1c3,5 13,-8 12,22 -1,31 0,13 -16,29 -15,-57 -3,-43 3,-51zm2485 125c-69,0 -138,-37 -138,-101 46,-18 117,-35 143,24 -52,-12 -24,-28 -107,-21 26,37 13,12 59,41 32,20 32,24 43,56zm-2681 -133c9,2 44,5 25,25 -28,29 -22,-10 -25,-25zm2429 23c2,-37 -5,-38 40,-45 12,-2 21,-3 33,-2 27,4 26,11 32,17 -11,22 -5,23 -40,28 -24,4 -42,3 -65,1zm-1403 -59c6,3 25,-4 23,52 -16,-2 -18,1 -25,-11 -15,-26 -1,-34 3,-42zm685 45c-1,-41 -11,-19 17,-31 12,33 -11,22 -17,31zm-200 -59c12,5 19,7 23,20 13,38 -7,31 -7,31 -20,-18 -22,-16 -17,-52zm-704 12c29,16 22,4 21,49 -1,31 1,35 -12,53 -20,-22 -20,-92 -9,-103zm164 -30c16,9 18,5 25,38 4,18 5,42 7,60 -32,-10 -21,1 -34,-43 -8,-28 -15,-30 2,-55zm-602 -91c18,28 28,159 9,193 -36,-53 -23,-172 -9,-193zm-82 -38c22,12 18,0 21,44 6,81 27,152 26,192 -2,116 1,155 40,252 51,13 52,8 56,67l29 28 -108 109c-60,6 -78,-6 -98,52 33,-15 3,-16 56,-27 -11,51 -34,56 -70,98 -23,27 10,10 -41,24 -11,-63 9,-38 16,-94 8,-66 16,-29 24,-59 15,-54 4,-9 -6,-28 -78,59 -5,130 -102,144 7,-39 18,-39 20,-68 -82,51 -12,66 -90,57 8,-84 101,-157 107,-184 14,-64 -3,-31 -8,-41 -50,28 -26,72 -89,93l4 -63c-28,36 -67,102 -76,145l37 -12c0,63 -33,73 -84,58 -1,-39 75,-148 91,-204 15,-51 -38,-36 6,-103 32,-48 1,-59 -7,-109l41 -6c7,14 7,4 10,23 7,46 -7,123 38,152 9,-24 5,-63 58,-87 -8,69 15,49 57,31 -4,124 4,69 16,106 5,15 1,-7 27,4 0,0 28,39 40,-8 3,-10 -1,-28 -2,-37 -2,-29 2,-63 -2,-89 -15,-76 -63,-417 -39,-464zm-64 -82c39,68 20,265 28,308 0,0 41,93 9,157 -17,35 2,5 -19,18 -10,-24 -10,-89 -7,-119l-22 -302c-2,-56 -6,-45 11,-62zm328 209c-1,-2 -3,-7 -4,-6 -3,11 -15,-131 4,-158 8,4 26,-15 29,81 1,37 -6,70 -29,83zm-73 -111c15,7 21,-6 26,31 7,50 -6,30 -17,35l-9 -66zm1053 11c13,12 3,-11 16,15 24,47 8,10 -2,26 -18,-15 -17,-6 -14,-42zm-134 9l14 29c-22,-17 -14,1 -14,-29zm-1283 -125c30,33 32,200 39,223 8,25 26,31 6,63 -26,-17 -59,-265 -46,-285zm-64 -21c25,11 10,-19 22,32 3,12 6,33 8,45 4,30 12,79 -2,104 -26,-10 -11,33 -26,-82 -5,-37 -20,-68 -2,-99zm319 74c-30,-24 -21,-167 9,-186 11,12 15,-21 13,36l-23 149zm1150 -119c36,4 28,-5 35,35 -26,-6 -31,-4 -35,-35zm-1542 -103l21 61c5,26 14,227 6,246 -35,-26 -23,-161 -31,-233 -7,-66 2,-72 3,-75zm1492 24c27,12 28,10 33,41 -28,-12 -25,-7 -33,-41zm-1565 -99l12 39c5,74 55,174 30,317 -36,-17 -20,-39 -24,-80 -3,-28 -19,-51 -25,-84l-15 -154c2,-50 2,-28 22,-38zm1624 57c34,13 48,38 55,76 -33,-16 -51,-35 -55,-76zm-1224 93c1,-21 0,-51 6,-71 14,-51 7,31 38,-107l22 -52c9,12 15,-14 9,65 -6,76 -29,42 -42,111 -14,75 -7,46 -33,54zm-580 -226c21,14 15,14 23,44 7,27 13,39 3,60 -29,-15 -35,-68 -25,-104zm1827 -41c40,24 86,75 87,129 -31,-13 -87,-102 -87,-129zm-1726 -119c-5,82 -21,129 32,155 5,38 9,147 -7,173 -33,-25 -36,-110 -41,-161 -3,-30 -11,-49 -14,-83 -7,-93 15,-78 30,-84zm116 83c13,27 9,21 1,48 -6,-5 -14,5 -17,-22 -3,-30 8,-21 16,-26zm1561 -17c26,6 45,19 34,47 -31,-23 -19,-18 -34,-47zm-1100 91c3,-55 8,-117 31,-157 27,33 14,90 -1,128 -15,39 -3,18 -30,29zm-144 155l2 -163c-4,11 -4,10 -6,22 -2,10 -3,23 -6,37 -5,26 -13,55 -18,76l-24 -30c-10,46 -29,109 -20,154 -49,-16 -16,11 -20,-125 -2,-55 41,-314 79,-360 8,-10 7,-8 14,-13 28,47 11,122 20,181 35,-18 22,-69 62,-107 62,65 -42,244 -44,247 -30,92 9,65 -40,81zm375 -322c1,2 13,-10 11,31 -1,48 -1,14 -11,23 -15,-21 -12,-26 0,-54zm807 -11c20,5 11,-10 25,9 17,23 -2,22 -3,22 -38,-10 -5,11 -23,-32zm-429 -28c42,-30 6,-9 42,-17l6 86c-45,-6 -61,-18 -47,-70zm549 -9c45,18 7,2 30,15l27 16 -24 21c-21,-17 -25,-27 -32,-53zm-293 -28c78,13 145,106 151,145 -50,-13 -77,-66 -114,-98 -47,-40 -17,14 -37,-47zm-92 7l51 8c5,50 40,55 54,74 8,11 8,25 16,37 26,42 77,66 84,115 -57,-15 -60,-70 -115,-69 -14,99 121,176 137,249l-57 -2 -90 -160c-45,-99 -49,-22 -82,-108 -7,-19 -5,-1 -7,-19 -6,-55 -2,-9 7,-26l23 32c21,29 4,14 37,27 -10,-68 -51,-94 -56,-158zm-1207 86c-19,-24 -10,-31 0,-60 10,-28 3,-40 18,-66 11,14 24,-29 1,66 -5,22 -7,41 -19,59zm410 -22c-28,-51 10,-206 54,-227 3,209 23,77 -33,202 -1,3 -4,11 -6,13 -12,17 3,1 -16,13zm-483 71l-10 -63c-1,-9 -50,-129 19,-193 5,61 -11,86 -8,129 3,42 26,81 -1,128zm1287 -262c39,15 46,78 47,117 -37,-13 -55,-78 -47,-117zm-1414 368c-35,-55 -24,-227 -28,-306 -2,-33 -1,-77 19,-100 32,48 -5,253 13,351 12,66 2,42 -4,55zm1694 -352c2,-1 6,-5 7,-2l19 0c32,7 57,24 71,53 -26,-4 -27,-9 -47,-22 -1,-1 -22,-14 -22,-14 -2,-1 -4,-2 -6,-3 -2,-1 -5,-2 -7,-3 -2,-1 -5,-3 -7,-4 -2,-1 -5,-3 -7,-4zm-133 -12c62,17 99,56 104,119 -58,-9 -90,-70 -104,-119zm-83 -42c35,15 41,45 60,76 19,31 40,52 54,89 -72,-4 -118,-85 -114,-165zm-994 43c-2,-2 -5,-6 -5,-5l-13 -20c-37,50 -25,251 -90,374 -17,33 -29,89 -27,130l-40 -68 53 -276c11,-28 89,-262 97,-248 1,2 5,-3 7,-3l50 -14c-4,45 -7,96 -33,130zm-301 16c-8,-21 27,-163 29,-167 18,-33 10,-14 24,-27 -3,49 -6,184 -53,194zm529 -116c15,-12 17,-18 45,-21 0,58 -25,274 -62,292 -3,-52 14,-161 27,-216 9,-36 -4,-11 -11,-55zm995 -17c23,5 27,-1 17,23 -17,-8 -7,11 -17,-23zm-1168 238c1,-58 6,-88 15,-143 7,-43 12,-102 44,-129l-24 222c-13,43 3,34 -35,50zm135 -265c6,40 6,15 -8,35 -10,-15 -15,20 -7,-16 2,-7 8,-12 14,-19zm-409 586c-26,-46 6,-51 -25,-87 -11,-29 91,-479 162,-520 24,66 -105,362 -120,565 -3,43 -5,27 -17,41zm767 -586c2,-36 0,-43 18,-64 3,10 7,18 6,34 -3,35 -6,25 -24,31zm373 120c-19,-42 -24,-114 -19,-167 4,-43 -4,-150 10,-174l11 36c19,94 42,85 37,128 -5,39 -32,40 -29,128 0,9 3,19 1,28 -4,25 -3,10 -11,21zm328 -191c20,10 16,5 9,27 -13,-7 -33,-2 -9,-27zm-160 1c28,7 29,20 32,49 -33,-11 -31,-16 -32,-49zm-821 57c6,-35 1,-37 23,-61 1,1 23,-4 8,33 -10,24 -10,18 -32,28zm-496 247l-35 -35 82 -245c20,-50 4,-53 56,-60l-103 340zm1197 -338c-9,-39 -9,-107 7,-138 40,32 -5,25 50,45l-6 -71c74,30 -13,25 53,119l-23 125c-24,-23 -30,-53 -37,-97 -40,13 -5,13 -44,17zm-385 -27c-11,-17 -12,-60 21,-83 5,91 -16,74 -21,83zm838 -50c9,19 7,-4 6,18 0,14 -3,14 -5,20 -1,-2 -30,-6 -1,-38zm-236 -61l15 35c17,52 14,90 9,138 -35,-6 -1,11 -43,-76 -18,-36 -5,-68 19,-97zm-1233 213l60 -180c1,-1 4,-4 5,-5 19,33 6,41 -8,104 -8,37 -18,75 -57,81zm-354 204c0,-66 21,-142 43,-196 12,-29 24,-56 33,-86 9,-29 17,-69 42,-87 14,33 -21,102 -28,139 -5,24 13,103 -32,158 -18,21 -13,1 -29,35 -15,31 1,21 -29,36zm506 -363c22,0 28,5 28,5l-13 35c-11,-6 1,-18 -15,-41zm1208 -43c28,20 86,126 93,161 -43,-13 -19,-6 -62,-70l-37 -64c-7,-41 -6,-7 7,-28zm-80 15c59,8 66,52 65,145 -40,-23 -64,-103 -65,-145zm200 -11l16 -5 3 20c-12,-3 -10,0 -19,-15zm-818 -31l14 31 -14 -31zm-275 402c14,-32 17,-145 45,-259 14,-54 9,-57 33,-76 8,13 21,-26 -3,51 -52,168 -2,362 -37,410l-33 45c-11,-22 10,-78 14,-110 -7,6 -12,5 -22,24 -18,33 -10,198 -72,232 -4,-25 -10,-81 0,-103 10,-24 24,7 23,-84 -1,-104 9,-112 25,-197 5,-28 -3,-53 2,-87 13,-89 59,-203 60,-281 41,21 18,51 10,84 -9,39 -17,72 -26,111 -20,92 -25,138 -19,239zm-798 35c4,-108 57,-413 111,-471 2,4 21,-18 -2,53 -42,124 6,115 -64,301 -32,86 1,88 -45,116zm1796 -489c34,16 65,81 76,116 -50,-8 -41,6 -60,-37 -12,-27 -16,-47 -16,-78zm-1018 56c-6,-9 -20,3 -1,-28l1 28zm-635 4c0,-27 0,-23 14,-39 13,47 -10,8 -14,39zm1764 -55c14,7 36,-9 9,35 -16,-17 -7,18 -13,-17 -5,-31 -7,-11 4,-19zm-616 -44c23,2 49,-14 60,69 4,28 3,20 -9,38 -19,-9 -1,21 -21,-18 -6,-12 -2,-16 -8,-29 -19,-44 -17,13 -22,-59zm561 -8l8 12c-3,29 7,-3 -8,19 -1,-2 -3,-8 -3,-6 0,0 -9,-8 3,-25zm101 -8c9,29 5,25 0,35 -11,-15 -21,-18 0,-35zm-1396 72c-3,-4 -25,23 -4,-37 9,-25 12,-25 34,-36l-30 73zm1444 -51c-20,-10 -15,16 -19,-14 -5,-33 0,-10 16,-19 1,2 3,3 3,7l0 26zm-341 -45c26,18 34,56 40,93 -19,-12 -12,13 -38,-60 -18,-52 6,41 -5,-12 -5,-23 -4,-9 3,-21zm-1040 373c-24,-29 -9,-39 3,-109 19,-110 31,-106 71,-193 23,-50 10,-70 64,-75 -2,49 -57,131 -78,180 -21,48 -42,170 -60,197zm-669 -255c5,-33 30,-105 49,-127 15,23 -2,77 -15,101 -15,26 -8,16 -34,26zm1389 -264c14,21 5,20 12,42 7,22 9,8 19,38 7,21 5,79 8,96 -42,-2 -11,9 -33,-26 -16,-25 -20,-11 -26,-43 -6,-32 5,-88 21,-108zm128 78c16,14 5,0 15,15l81 147c11,43 10,72 19,110 12,49 39,68 4,94 -40,-31 -45,-130 -67,-178l-59 -158c-4,-64 -4,-5 8,-29zm-1075 286c-1,-66 25,-104 50,-150l77 -129c16,23 -66,217 -93,259 -17,27 3,16 -34,21zm474 -306l6 13c-2,28 6,-2 -6,17 -7,-9 -17,11 0,-30zm-283 96c0,-1 -23,4 7,-49 14,-25 14,-24 39,-33 -6,48 -16,71 -46,82zm1459 -148c15,20 28,50 22,78 -8,-10 -39,-49 -22,-78zm-1474 53c10,-18 13,-20 22,-36 17,-31 1,-19 32,-34 -6,36 -23,64 -54,70zm1124 -124l9 83c-5,44 -5,18 -13,29 -12,-22 -12,-32 -14,-61 -1,-8 -2,-24 0,-31 12,-36 -4,-5 19,-20zm-58 -1c7,15 7,5 8,28 1,21 -1,14 -5,32 -37,-48 -15,-47 -4,-60zm-129 27l18 83c-10,-15 1,12 -10,-17l-12 -42c-5,-41 -4,-13 4,-25zm-556 32c0,0 -28,10 -1,-32 8,-12 19,-15 30,-21 -12,35 1,7 -12,30 -21,37 16,-23 -8,11 -1,2 -4,4 -5,6 -1,1 -3,4 -5,6zm-637 216c13,-93 78,-234 135,-273 -3,26 -46,107 -61,138 -12,25 -23,43 -32,68 -13,38 0,53 -41,67zm1632 -280c32,41 0,23 -1,25 -7,-18 -17,-5 1,-25zm-1313 24c14,-22 4,-17 34,-28 -7,29 -1,26 -34,28zm1029 -109c35,64 1,69 0,70 -2,-3 -11,-19 -12,-34 -5,-51 6,-30 12,-37zm-1053 432c5,-68 16,-63 43,-111 39,-66 95,-221 170,-293 0,0 9,-2 4,20l-31 87c-10,35 -5,22 -27,46 -54,61 -117,203 -130,225 -16,26 -3,12 -29,25zm934 -499c16,32 14,111 28,157 19,62 37,82 36,159 -62,-40 -82,-285 -65,-315zm-274 407c-7,-19 0,-40 -9,-58 -8,24 -22,54 -29,80 -9,35 -11,64 15,86 10,-19 7,-10 11,-40l17 -50c10,46 -1,55 26,110 45,92 18,187 18,287 0,29 1,50 -13,66 -28,-56 3,-199 1,-267 -43,30 -49,172 -53,221 -2,29 1,69 -12,90 -50,-76 33,-253 -9,-322 -55,80 -78,346 -62,453 10,70 -8,98 6,152l56 -8c4,51 32,126 52,173 11,26 18,49 32,77l28 55c11,13 3,4 18,13 3,-58 -25,-67 -49,-138 -93,-270 -23,-161 -22,-270 0,-37 8,-44 6,-77 -3,-45 -16,-42 8,-80 37,23 53,111 56,153l-28 0c6,37 25,69 41,96 31,49 42,32 64,82 22,50 90,149 83,202 -25,-24 -26,-43 -56,-57l50 141c-41,18 -94,-124 -109,-154 -22,-44 -69,-182 -95,-202 6,81 42,140 67,212 11,33 34,39 67,124 11,28 21,37 34,57 15,23 17,42 32,60 31,38 28,4 41,59l-36 39c-34,-45 -43,-115 -73,-166 -15,-25 -17,-34 -41,-48 4,53 52,110 32,152l-36 -38 -40 27c-2,2 -5,5 -7,7 15,19 51,92 54,119 -21,1 -30,0 -48,-16 -1,-1 -3,-4 -5,-6l-27 31 -35 -59c-21,29 14,42 -2,87 -21,-11 -72,-104 -76,-134l45 14c18,-38 9,-55 7,-95 -2,-44 -2,-9 6,-24 40,18 -1,-1 29,27 18,17 30,17 47,24 -12,-49 -26,-65 -37,-118l-40 -3 -25 -60c-2,37 12,68 9,93l-13 91c-43,-26 -39,-136 -71,-180 -6,10 -7,-5 -6,16 2,47 24,100 26,155 1,31 1,51 -10,67 -49,-53 -31,-151 -64,-212 -7,9 -14,-14 -7,32l17 150c1,60 20,122 38,174l-80 -150c-10,-52 -12,-166 -39,-196 -21,86 38,205 56,276 9,37 6,112 12,154 7,55 34,82 32,141 -19,-1 -22,-2 -48,-5 -9,-65 -17,-59 -21,-139 -5,-112 -42,-168 -71,-272 -13,-47 -10,-108 -26,-149 -4,6 -18,-10 -6,66 -48,12 -24,5 -41,26l16 73 40 27c15,95 -23,142 22,251 19,47 91,114 71,199 -58,6 -40,-92 -76,-131 -19,25 -12,45 -5,79 6,31 14,43 3,64 -66,-123 -39,-123 -68,-280 -10,-54 1,-69 -4,-116 -36,17 -20,24 -35,51l-8 -24c-6,-22 6,1 -10,-26 -23,39 -6,273 -2,289 5,18 19,42 18,62 -1,19 -2,9 -8,17 -58,-52 -49,-233 -78,-304 -17,-42 -10,-44 2,-81 10,-30 9,-149 -11,-174 -36,-47 -13,-26 -32,-69 -39,8 -16,12 -55,19l-18 -37c-57,55 -31,67 -55,144 -31,-47 -8,-136 -16,-198 -13,-99 -16,-87 17,-183 28,2 22,2 52,11l-1 114c32,-12 26,-14 28,-51 3,-62 26,-151 76,-187l7 14c8,47 -20,117 11,155 29,-17 16,-13 16,-55l11 -64c35,63 18,162 55,228 8,-11 16,19 1,-56 -14,-66 -31,-144 -29,-209 31,34 41,95 64,137 10,-11 13,25 11,-26 -1,-31 -57,-82 -52,-247 3,-93 20,-204 32,-301 5,-41 26,-88 40,-124 28,-75 10,-250 78,-370 18,-33 -9,-10 29,-23 12,19 13,28 4,54 -6,19 -11,28 -17,47 -27,89 -43,130 -48,224 -6,114 -59,217 -60,346 0,75 -14,228 12,262 33,-73 -2,-276 46,-355 0,98 -13,176 -5,277 3,40 37,229 50,252 17,-23 3,-48 -4,-87 -15,-83 -11,-180 -9,-267 2,-65 6,-45 13,-53 16,55 8,152 28,217 9,30 14,19 23,40 8,17 8,34 14,50l56 78c-18,-138 -106,-235 -20,-258 -5,-187 -16,-253 12,-442 9,-59 5,-99 10,-155 7,-80 19,-62 43,-111 14,-28 16,-81 38,-126 22,-47 72,-189 125,-207 14,150 -83,140 -80,305 1,46 25,75 -31,83zm-611 -168c11,-45 86,-145 118,-178 19,34 -87,166 -118,178zm42 -168c4,-32 -2,-15 21,-35 1,3 21,-12 2,25 -10,20 -3,12 -23,10zm-349 455l14 -57c-57,31 -11,59 -76,85l37 -97 46 -9c19,-64 57,-107 79,-170l124 -214c19,-27 14,-35 44,-43l-249 487c-1,2 -3,4 -5,6l-14 11zm455 -493c-10,-13 -26,21 -5,-41 9,11 22,-9 5,41zm-165 24c4,-36 19,-52 48,-65 -6,30 -16,52 -48,65zm253 485c7,-81 71,-303 109,-349 15,-14 20,0 46,-26 32,-32 51,-42 67,-71 22,-40 46,-110 89,-119 -3,49 -68,117 -118,209 -29,53 -26,17 -58,53 -68,74 -77,274 -135,303zm-620 -170c39,34 -3,74 -25,90 4,-54 15,-35 15,-57 1,-35 1,-4 -6,-19l-34 61c-4,-35 95,-211 117,-241 15,-21 20,-29 37,-55 60,-95 68,-154 113,-156 -9,42 -28,56 -48,94 -18,33 -32,55 -52,94 -12,23 -22,22 -33,42 -24,43 -22,125 -84,148zm2429 -388c-1,-14 11,-11 10,1 -2,21 -9,8 -10,-1zm-1244 291c-18,-13 -4,5 -19,-17l-30 -55c3,-38 8,-117 18,-147 10,-29 29,-95 49,-116 17,26 9,21 -10,70 -10,24 -14,54 -16,83 -4,62 9,140 8,182zm155 -318c-13,-29 -2,-72 11,-99l5 79c-9,30 -17,10 -16,20zm-616 176c20,-63 115,-215 151,-237l23 27c1,1 3,4 4,5 -14,53 -45,65 -75,107 -32,44 -39,81 -103,98zm-82 12c17,-74 99,-215 154,-234 -6,84 -78,128 -104,170 -50,80 -7,37 -50,63zm772 -270c15,23 24,72 34,101 13,37 14,75 27,110 15,40 40,53 45,89l14 100c-2,49 0,13 -10,28l-18 -29c-3,-9 -5,-26 -6,-37 -1,-15 0,-30 -4,-44 -8,-36 -11,-23 -18,-29l-18 47c-21,-40 -27,-170 -47,-256 -7,-29 -13,-58 1,-81zm310 -65c34,11 11,18 42,104 15,40 48,74 42,99 -30,10 -17,9 -38,-21 -30,-43 -79,-123 -46,-182zm-1157 209c0,-43 16,-54 34,-92 25,-56 -2,-43 42,-85 2,30 1,76 -16,103 -20,32 -26,60 -60,75zm-716 -44c10,-45 6,-13 51,-72 18,-23 25,-46 60,-68 -5,35 -81,128 -111,140zm1791 -181c40,20 1,35 74,170 18,32 14,21 34,45l10 205c-68,-45 -32,-131 -32,-131l-27 -47c-3,37 4,37 -13,65 -35,-1 -11,12 -31,-15 -11,-15 4,-7 -24,-35 -25,42 2,90 -2,132 -2,19 -2,8 -7,19 -55,-39 -2,-172 -70,-182l13 113c-48,-17 -48,-41 -53,-96 -7,-76 -25,-50 -29,-111 17,14 11,17 45,25l-2 -52c37,-23 21,-28 51,-45 18,14 17,5 34,58 9,28 14,52 24,75 2,1 6,0 7,2 0,0 21,10 49,-6 -9,-18 -3,-11 -18,-23l-19 -10c-1,-1 -4,-3 -6,-4 -7,-46 -27,-115 -7,-153zm-1464 349c8,-48 24,-49 47,-90 72,-130 74,-112 138,-198 14,-18 15,-25 39,-37 -7,52 -116,181 -158,245 -20,30 -32,62 -66,80zm1692 -359c22,7 16,-8 27,27l50 149c-51,-23 -31,-21 -55,-80 -13,-32 -39,-56 -23,-96zm-1393 52c-19,-27 -13,-25 7,-40l-7 40zm1457 -30c44,1 35,12 42,-24 35,15 2,6 38,11 15,-51 -12,3 50,-52l380 -1c88,-4 85,21 127,62 22,21 76,66 73,100 -3,38 0,5 -9,21 -50,-34 -23,-56 -86,-69 5,55 23,36 28,91 -72,6 -2,-26 -81,-47 7,43 29,71 3,111 -24,-25 4,-30 -28,-62 -78,-77 -96,-163 -324,-70 -58,24 -52,64 -131,44 -15,37 1,23 -28,35 -2,-2 -4,-6 -5,-4 -1,1 -4,-4 -4,-5l-25 -57c-7,-27 -14,-60 -20,-84zm-1051 770c-43,52 -27,50 -53,65 -55,-86 72,-367 77,-390 18,-97 26,-82 30,-97 15,-61 -1,-24 -10,-36 -13,54 -94,210 -114,287 -2,9 -2,14 -5,23 -9,25 -8,15 -15,22 -20,-35 -6,4 -6,-51 0,-66 22,-95 36,-177 35,-23 20,-4 47,-42 17,-23 23,-36 42,-59 23,-27 47,-107 73,-126 26,-20 40,8 98,-104 18,-34 50,-99 82,-115l-92 178c-82,157 -107,246 -169,378 -49,105 -26,138 -21,245zm-379 -242c1,-30 179,-552 337,-560 -30,113 -121,44 -257,410l-16 64c-9,39 -32,65 -65,86zm-487 -484c9,-46 -1,-20 33,-46 25,-20 12,-18 45,-34 -9,29 -10,30 -29,50 -21,23 -17,22 -49,30zm1780 -147c14,18 25,102 35,135 16,55 47,86 50,127 -22,-7 -17,-1 -56,-40 -34,-34 -48,-198 -29,-222zm-64 -1l4 23c-8,-5 -33,-1 -4,-23zm-1208 31c10,-11 6,-10 15,-21 15,-19 9,-12 27,-23 -2,33 -8,51 -42,44zm1062 45c-21,-25 -11,-108 15,-129 7,34 3,104 -15,129zm-64 4c-29,-21 -22,-102 -9,-130 32,11 26,11 23,53 -3,40 2,54 -14,78zm-612 123c8,-36 44,-101 66,-132 15,-21 24,-39 36,-55 39,-52 35,-42 53,-48l-61 132c-12,20 -30,36 -41,50 -51,62 -15,37 -53,54zm968 -244l-6 25c-4,-1 -17,-8 -17,-9 4,-24 -23,-10 23,-16zm-1299 24c1,-34 16,-38 45,-51 -18,52 -13,22 -45,51zm795 88c8,-48 24,-83 43,-133 16,-41 8,-26 40,-36 -17,67 -32,61 -53,132 -12,41 -2,26 -30,37zm587 -188c21,19 26,29 0,48 -26,-18 -20,-28 0,-48zm-628 81c4,-33 10,-68 44,-77 16,36 -8,68 -44,77zm-488 109c5,-43 104,-171 149,-183 -3,36 -35,79 -58,104 -25,28 -60,65 -91,79zm660 -219c13,14 11,-10 12,18 1,44 -4,17 -12,27 -22,-28 -14,-27 0,-45zm265 -26c5,37 8,46 -19,65 -1,-1 -17,18 -7,-37 5,-24 7,-20 26,-28zm245 -45c29,11 27,10 28,44 1,34 2,42 -18,50l-10 -94zm-1188 200c18,-36 33,-51 57,-75 17,-17 17,-15 35,-29 32,-24 8,-19 49,-26 -15,38 -35,46 -61,69 -37,32 -33,46 -80,61zm889 -151c-15,23 0,14 -23,16 2,-26 -4,-17 23,-16zm382 -35c4,7 10,-6 11,21 1,40 -5,17 -11,23 -21,-26 -18,-25 0,-44zm-814 111c12,-53 51,-108 106,-121 -6,53 -77,109 -106,121zm-45 -74c21,-35 33,-50 76,-57 -11,43 -46,61 -70,59 -1,0 -4,-1 -6,-2zm736 -69l17 -7 -17 7zm-542 90l-14 -7c13,-18 10,-29 13,-51 8,-47 9,-40 36,-48l-35 105zm-626 49c20,-18 22,-27 41,-44 18,-17 34,-24 56,-44 24,-22 90,-65 119,-72 -10,47 -112,98 -153,130 -24,19 -33,30 -64,30zm717 -135c-11,-26 -8,-26 9,-41 8,17 5,30 -9,41zm-184 -7c3,-34 -8,-17 20,-34 7,14 23,-15 4,18 -8,14 -23,13 -24,16zm-116 19c12,-34 51,-66 94,-77 -12,32 -20,28 -41,48 -21,20 -18,26 -53,29zm-419 -41c18,-20 33,-37 70,-42 -12,28 -28,45 -70,42zm1083 -37c-13,-22 -15,-21 9,-33 13,38 0,13 -9,33zm-451 -15c11,-42 34,-64 65,-83 -1,27 -8,29 -22,48 -18,24 -13,22 -43,35zm-54 -16c14,-48 72,-121 103,-143 -5,26 -55,104 -77,126 -17,16 -3,5 -26,18zm785 -172c0,-10 -6,-14 16,-18 -7,35 -12,14 -16,18zm-630 -15c5,-29 12,-33 40,-45 -2,40 0,24 -40,45zm-74 -67c22,-12 10,-21 46,-29 -9,24 -12,29 -46,29zm606 -23c-16,-29 -13,-41 9,-66 1,2 19,-14 9,39 -2,13 -8,23 -18,27zm-786 -15c13,-33 24,-46 60,-56 -17,25 -11,13 -25,31 -25,31 15,11 -35,26zm503 -90c10,24 7,12 0,21 -5,-6 -15,5 0,-21zm363 -59c0,0 -7,-23 24,0 -32,18 -22,1 -24,0zm-216 38c7,-28 18,-44 32,-60 2,15 6,20 -1,36 -9,23 -10,17 -31,24zm66 143c-3,-50 24,-122 44,-170 14,-34 8,-29 41,-43 -10,48 -31,67 -45,111l-22 87c-10,18 2,6 -18,15zm-175 -18c0,-32 68,-147 89,-182 13,-22 14,-39 29,-60 28,39 -42,82 -77,184 -11,32 -7,42 -40,58zm205 -194c6,-61 3,-55 57,-72 -4,49 -12,61 -57,72zm67 -79c-10,-18 -8,-16 0,-37 14,24 8,19 0,37zm548 47c-34,-18 -37,-52 -42,-80 28,16 35,40 42,80zm-1117 -97c-26,14 -18,-4 -19,-5 23,-30 3,-10 33,-20 -6,21 8,13 -14,25zm789 -3c16,27 -9,27 26,70l13 -14c15,-22 -1,-30 49,-32 32,-77 54,-6 63,-94l-24 -6c9,-19 86,-105 150,64 -17,15 -5,8 -38,13 -4,47 19,45 -14,77 -44,-14 -5,-14 -46,-36 -6,3 -121,85 -182,75 -17,46 -41,25 -57,60 -21,45 16,67 -34,83 -13,-25 -3,-29 1,-62 -16,-33 -18,-20 -25,-60l-48 4c7,-34 11,-19 19,-52 11,-44 -10,-34 28,-45l9 71c69,-28 19,-73 61,-110l6 25c0,18 -13,22 12,57 37,-16 29,-48 29,-88zm467 -121c23,-21 29,-16 52,0 -20,11 -22,14 -52,0zm-31 -9c-3,-14 10,2 11,3l-3 2c-32,5 -3,18 -8,-5zm-523 -109c18,-30 33,-44 73,-45 -7,27 3,16 -30,31 -24,11 -18,9 -43,14zm99 -93l4 -15c19,31 3,12 -4,15zm-1133 41c91,-20 33,-40 156,-36l-18 -78c50,5 92,56 103,104 48,200 -4,200 -148,193 -19,-49 -25,-107 -87,-86 -16,112 103,92 118,220 -40,-11 -72,-52 -101,-74 -35,-27 -75,-26 -74,-91 27,-36 18,-22 29,-73 6,-28 10,-51 21,-78zm608 -199c77,21 42,-19 132,-9 64,7 111,-5 174,9 -6,-36 0,-41 -53,-48 -27,-4 -45,-6 -73,-10 -90,-14 -211,11 -293,39 -36,12 -29,-3 -66,17 -26,14 -31,13 -42,42l85 54c19,15 4,-2 20,18l-140 -43c-56,21 -70,62 -141,21 -43,-25 -75,-45 -123,-20 -15,-8 -6,-2 -18,-11 -36,-25 -79,-23 -123,-6 -30,12 -83,49 -93,81 -28,90 45,159 50,273 -12,12 -21,21 -35,35 -26,27 -12,5 -24,38 -16,44 -39,37 -53,75 -20,55 6,60 -54,83 -34,13 -61,23 -87,40 16,40 10,6 23,31 15,30 -12,-12 4,21 35,-11 4,8 25,-36 52,-32 86,-23 124,-77 15,-21 22,-39 42,-58 23,-21 45,-20 68,-9 -8,17 -7,12 -17,24 -5,5 -9,12 -10,10 -1,-2 -3,4 -5,7l65 -17c-17,42 -11,9 -37,50 33,-2 27,-22 56,-9 -11,27 -51,46 -72,66 16,17 17,10 31,39l74 -38c6,44 11,11 -25,43 -32,30 -93,60 -111,98 66,-10 54,-54 146,-45 -21,36 -51,24 -92,46 -26,14 -56,38 -59,69 34,-9 71,-52 115,-68 31,39 16,23 48,38l-25 57c46,-20 -3,0 30,-15 21,-10 6,-5 31,-10 -17,57 -26,25 -43,82 61,-26 87,-127 156,-139 -2,33 -2,17 -22,42l-73 75c-8,8 -10,9 -20,17l-21 18c11,68 13,1 16,51 1,24 -6,2 1,26l14 33c-42,35 -88,81 -143,95 12,-37 12,-20 21,-50l-26 -28 -63 23c-100,-59 -109,28 -230,113 -13,9 -30,18 -44,29 -21,17 -17,21 -33,39 -25,29 -50,34 -76,61l-131 152c-30,33 -99,140 -134,152 14,-95 102,-168 160,-235 34,-40 65,-80 108,-112 96,-74 82,-107 257,-208 29,-17 56,-39 86,-64l-56 -3c-6,-33 -20,-34 -7,-64 -94,-6 -174,81 -231,112 80,14 138,-102 191,-76 -16,26 -60,46 -81,61 -190,133 -193,83 -232,103l-128 84c-61,53 -193,133 -230,191l350 -246c-33,39 -131,110 -202,189 37,-9 220,-202 292,-203 1,37 -138,156 -165,179 -29,26 -47,75 -86,88 -139,46 -136,13 -174,71 -32,50 -106,133 -149,207 -45,79 -99,202 -164,256 -109,91 -59,96 -122,157 4,-98 79,-252 136,-326 15,-19 15,-28 28,-46 32,-43 16,2 27,-46 -37,14 -44,43 -70,76 -11,14 -24,24 -32,40 -8,16 -11,34 -20,53 -49,104 -107,185 -129,299 -9,46 -22,60 -31,115 -10,61 -31,43 -40,109 -5,36 -4,81 -33,101 1,-31 13,-70 -1,-96 -35,40 -44,303 -37,359l11 92c-3,25 1,5 -11,19 -5,-8 -6,-4 -9,-19 -11,-49 -15,-227 -16,-273 -2,-81 69,-217 9,-246 27,-104 29,-160 104,-156 15,-45 26,-95 35,-137 18,-86 49,-174 100,-240 128,-166 -54,6 105,-178 19,-22 27,-44 47,-72 22,-30 32,-24 59,-59 20,-25 26,-38 57,-51 -5,35 -25,47 -45,73l-40 68c39,-2 64,-54 90,-82 75,-79 123,-138 227,-210 23,-16 27,-20 39,-40 -44,-2 -134,47 -165,69 -25,17 -50,32 -69,50 -20,18 -36,44 -61,51 15,-91 111,-98 150,-168 -185,79 -215,185 -270,189 14,-84 95,-92 139,-143 29,-33 21,-73 161,-111 0,0 -2,11 18,34 33,-31 41,-13 67,-61 25,-46 108,-71 165,-83 117,-25 68,28 197,-56l99 -55c-51,-30 -198,48 -247,72 -61,30 -120,33 -189,54 -31,10 -1,0 -21,8 -3,1 -10,5 -12,5 -19,5 -14,-1 -17,-2l75 -39c42,-20 34,-11 69,-40 41,-35 95,-47 153,-71l-34 -14c17,-23 47,-12 89,-11l27 -39 102 4 -2 -41c95,-36 47,-30 89,-52 81,-41 84,1 100,-92l-31 -13c17,-16 49,-32 59,-60l-48 -10c-23,38 -2,37 -55,54 -9,30 0,30 -25,48 -48,36 -95,47 -148,68 -34,14 -56,43 -104,46 -38,2 -87,-9 -115,15 29,28 43,9 79,27 -13,21 20,7 -33,23 -71,21 -307,159 -377,198 -84,46 -166,121 -240,180 -57,46 -56,45 -90,120 -38,83 -40,64 -84,125 -18,25 -22,43 -41,68 -28,36 -20,24 -11,72 -46,9 -58,8 -74,52 -24,66 -20,28 -15,91 6,79 -24,140 -51,201 -2,19 11,34 15,50 -30,15 -36,18 -40,69 -8,84 -54,197 -40,278 67,22 24,-17 73,-28 11,70 -29,155 -30,239 -14,-18 -4,9 -15,-32l-10 -96c-76,30 0,262 -2,287 -44,82 -14,101 -1,192 57,30 42,44 40,94 -2,33 26,96 39,127 13,31 16,28 41,41 11,30 15,61 31,96l48 71c35,38 59,247 61,310 2,56 13,59 20,101 12,70 -13,54 -23,103 -15,72 -7,34 -32,87l-66 182c-33,127 43,269 149,330 19,11 59,38 73,55l32 31c18,14 10,8 23,31 59,8 134,62 183,92 32,20 57,23 97,39 36,14 52,37 86,51 65,27 147,37 222,50 50,9 82,-2 129,7 36,7 80,15 115,19 12,-36 6,-28 50,-39 72,-18 60,19 231,12 52,-2 256,-58 286,-71 51,-22 87,-24 133,-49 40,-23 94,-34 126,-57 68,-50 42,-32 116,-67 15,-7 34,-26 53,-37 84,-52 226,-189 257,-246l87 -131c72,-99 57,-105 97,-168l77 -185c7,-29 -4,-47 1,-73 10,-63 43,-67 107,-71 34,20 16,24 57,32l25 -38 39 2c82,126 143,-22 139,-42 -4,-20 -24,-35 -37,-63 -19,-40 -118,-120 -159,-131 -188,-48 -199,-3 -209,-185 -3,-58 -29,-105 -48,-152 -11,-28 -14,-50 -22,-77 -7,-25 -21,-50 -28,-74 -17,-62 -16,-101 -40,-159l-117 -285c-10,-28 -20,-43 -32,-68 -17,-35 -25,-35 -39,-61 -24,-42 -39,-103 -96,-100 -20,118 141,464 156,586 8,65 28,88 45,147 8,30 3,58 6,88 2,21 96,346 34,382 -48,9 -78,-17 -137,-18 -43,-1 -97,2 -141,3l22 16c93,33 252,-3 281,64 8,45 4,57 -17,92 -50,25 -139,33 -188,7 25,-33 57,-13 59,-68 -60,-2 -42,32 -108,4 -49,-21 -41,-3 -47,1 18,21 57,26 78,46 -30,15 -53,1 -83,-11 -84,-34 -74,-10 -80,-7l34 43c-71,-7 -90,0 -123,-74l37 -15c-11,-14 -14,-14 -15,-34 47,8 40,25 83,-1 -5,-52 -6,-102 -54,-125 3,-58 2,-111 6,-169 4,-71 8,-80 -26,-137 -17,-29 -39,-139 -74,-200 -14,-24 -23,-29 -36,-55 -1,-70 -12,-132 -43,-192 -18,-35 -40,-141 -38,-202 38,-24 60,-66 93,-96l90 -102c25,-37 29,-21 50,-51l65 -126c32,-39 33,10 34,-59l42 -9 0 -47c43,-43 49,-29 39,-102 70,-9 52,-58 41,-110l51 4 9 -51c50,-12 119,-150 262,-148 51,1 75,3 107,23 9,53 -2,32 -6,73 61,69 102,46 192,18l17 -45c42,-15 63,-10 87,-50 99,-165 -17,-112 -102,-174 -59,-43 -65,-53 -167,-48 -129,5 -275,-35 -390,-38l16 -73c31,13 2,5 36,30 58,-16 0,-5 33,-16 21,-7 40,10 35,-46 -5,-49 11,-27 1,-64 -7,-28 -12,-20 -14,-56l39 -4c-12,-50 -30,-54 -30,-109 35,17 12,18 53,16 -3,-35 -29,-58 -27,-99 2,-49 4,-20 10,-31l15 26c50,126 40,-61 42,-76 86,-34 70,-35 108,-100 12,-20 15,-16 28,-37l44 7c77,-80 27,-72 55,-153 23,11 11,-11 20,35l31 223c2,9 10,40 12,43 17,30 2,12 33,23 -4,-97 -82,-284 13,-340 36,15 9,-9 29,23l87 141c18,32 12,38 47,42 -14,-45 -60,-104 -58,-141 44,19 58,88 98,105 -11,-80 -96,-130 -106,-232 67,-8 33,-18 69,-56 32,0 43,7 68,19 2,1 9,4 12,5 2,1 18,8 19,8 40,21 40,45 80,53 -36,-76 -172,-67 -128,-165 57,-4 63,8 114,15 -9,-45 -40,-51 -69,-80 -36,36 -52,10 -99,11 -34,1 -46,-8 -82,-10l-8 42c14,4 32,7 50,10l54 15c-31,52 -60,25 -98,8 23,37 21,9 25,61 -81,-11 -83,-11 -105,-105 -17,-70 -19,-12 -54,-84 -20,27 -14,16 -27,21 -11,-13 -22,-24 -36,-34l1 43c22,20 28,10 34,36 -66,34 -73,-16 -94,69l-52 23c-2,-2 -4,-4 -6,-5 -19,-13 -24,-10 -49,-4l-34 -47c23,-58 63,-71 144,-72 -15,-22 -24,-36 -31,-72l-31 -11c8,-29 7,-13 4,-51l49 -4c-6,-22 -92,-87 -109,-91 24,47 16,-13 26,51l-82 -32c-8,7 -16,12 -27,20 -56,-15 -66,-5 -119,-11 -54,-6 -33,-29 -99,-29 39,49 102,50 153,82 -3,46 -33,61 -58,95 -26,36 -55,47 -79,78 47,14 168,-122 234,-140 -12,52 -30,32 -70,67 2,35 8,48 -17,72 -49,48 -105,70 -118,156 39,-14 66,-74 91,-101 -34,125 -77,121 -95,151 -13,21 -12,36 -33,50 2,-40 19,-47 1,-81 -66,-8 -69,39 -101,80l-81 90c0,-30 0,-27 21,-44 -28,-38 10,-7 -27,-21 -42,-16 15,20 -15,-2 21,-27 5,-41 42,-67l15 33c38,-15 18,-2 46,-33 14,-15 20,-23 34,-39 27,-30 52,-45 68,-84 -43,7 -91,3 -112,-23 34,-31 14,-7 43,-18 -54,-49 -92,37 -109,-82 -5,-34 -1,-38 -33,-45 -18,59 -9,67 -3,118l-21 42c1,2 2,5 3,7l-4 42c25,15 14,7 31,26l50 -7 -63 91 -48 4c-6,-23 1,-31 1,-59 -110,-13 -26,108 -147,165l31 17c-21,35 -67,52 -105,72 -23,12 -28,14 -49,33 -42,40 -33,23 -46,14 34,-47 122,-71 153,-129 -27,-10 -57,-17 -94,-15 -24,43 -47,29 -104,57l10 -65c-40,-21 -52,-14 -84,-44 -23,-21 -40,-39 -42,-74 68,0 58,53 125,37 20,-64 -52,-59 -57,-149 54,0 67,33 80,72 10,30 19,21 30,51 20,52 2,102 86,72 29,-10 55,-12 77,-22l4 -81 -87 39c1,-52 -3,-30 45,-51 25,-11 31,-16 48,-35l-28 -8c-31,-10 6,10 -19,-10 30,-21 37,-7 55,-39 -70,2 -72,24 -118,28 27,-88 83,-37 106,-92l-33 -16c17,-30 0,-4 33,-27 -7,-12 -8,-16 -11,-37l75 -37c1,-2 1,-5 2,-7 11,-30 17,-30 20,-64 -26,-19 -31,-10 -37,-41l58 1c1,-56 -53,-120 58,-95 38,9 25,-6 37,-32z"/>
   <path class="fil0" d="M3831 812c38,-5 58,14 97,23l-11 46c13,19 24,25 27,52 -25,-12 -109,-86 -113,-121zm127 33c42,-32 180,-38 233,-35 -1,27 -5,29 -15,44 51,20 65,-68 121,32 21,37 1,18 32,22 21,-47 -11,-94 -56,-108 -75,-23 6,26 -137,-37l-26 26c-50,-2 -48,11 -80,9 -74,-4 -162,-24 -233,5 13,54 56,72 78,104 14,21 11,31 32,41 84,39 21,17 66,46 36,-26 16,-28 55,-40 -24,-10 -27,-4 -33,-2 -3,-49 0,-11 3,-52 -27,-25 -34,-21 -41,-55z"/>
   <path class="fil0" d="M3547 1000c-20,-41 -79,-82 -139,-55 2,50 48,5 18,74 -62,-1 -11,-25 -81,-19 -19,84 16,106 90,91 53,-11 36,-8 57,-44 21,-36 29,-14 54,-48z"/>
   <path class="fil0" d="M4270 923l-99 31c28,19 33,13 66,27 2,77 -38,16 -30,77 28,4 43,0 68,2 49,4 16,5 54,20 44,-45 31,-11 79,-34 -16,-18 -20,-11 -44,-27 20,-22 13,-10 37,-19 24,-9 17,-1 26,-24 -67,-11 -107,38 -169,23l12 -75z"/>
   <path class="fil0" d="M1464 2698c25,-14 9,3 26,-23 4,-7 8,-17 12,-25 37,-71 65,-91 91,-137 19,-34 36,-64 59,-97 20,-29 52,-69 61,-93 -42,29 -121,158 -135,176 -41,53 -95,121 -114,199z"/>
   <path class="fil0" d="M2625 1720c4,-64 -4,-1 23,-52 -41,7 -83,27 -91,70 36,-9 24,-14 56,-29 -8,56 -63,56 -79,98 61,-6 77,-68 125,-70 -6,-9 17,-30 -35,-18z"/>
   <path class="fil0" d="M3756 799c-20,-31 -56,-38 -96,-32 7,39 -3,26 44,37 61,14 46,-1 52,-5z"/>
   <path class="fil0" d="M2068 4126c-13,28 -8,42 -7,76 2,75 15,52 30,60 -2,-33 -7,-109 -23,-135z"/>
   <path class="fil0" d="M1758 4803c34,-5 30,-3 43,-38 9,-24 13,-27 2,-50 -25,14 -43,47 -45,89z"/>
   <path class="fil0" d="M4083 998c7,-9 13,30 9,-34 -2,-37 -6,-22 -9,-27 -6,12 -10,13 -9,36 1,39 5,20 9,26z"/>
   <path class="fil0" d="M3586 2354c32,1 30,2 39,-23 -23,-10 -42,-6 -39,23z"/>
   <path class="fil0" d="M1590 4833c28,-19 32,-15 40,-52 -27,15 -30,20 -40,52z"/>
   <path class="fil0" d="M2395 1748c-10,-7 5,-6 -18,-9 -19,-2 -35,6 -47,22l66 -13z"/>
   <path class="fil0" d="M2186 3818c20,-24 14,-24 0,-45 -1,2 -22,-5 0,45z"/>
   <path class="fil0" d="M4024 1047c8,16 -28,7 16,17 32,7 8,-2 17,-9 -10,-7 17,-16 -33,-8z"/>
   <path class="fil0" d="M1943 1985c24,12 41,-3 49,-27l-49 27z"/>
   <path class="fil0" d="M4083 1091c14,27 -13,9 18,24 18,-34 10,-22 -18,-24z"/>
   <path class="fil0" d="M3043 2471c20,-30 7,-18 -9,-26 -9,23 -6,14 9,26z"/>
   <path class="fil0" d="M3558 822c13,17 12,35 32,0l-32 0z"/>
   <path class="fil0" d="M2505 4793l12 5c17,-1 8,-1 16,-5 -41,-28 -25,-2 -28,0z"/>
   <path class="fil0" d="M3147 1210c4,3 -7,21 21,-3l-21 3z"/>
  </g>
 </g>
</svg>
